{
familyName = Bronova;
customParameters = (
{
name = glyphOrder;
value = (
NULL,
CR,
space,
A,
B,
C,
D,
E,
F,
G,
H,
I,
J,
K,
L,
M,
N,
O,
P,
Q,
R,
S,
T,
U,
V,
W,
X,
Y,
Z,
a,
b,
c,
d,
e,
f,
g,
h,
i,
j,
k,
l,
m,
n,
o,
p,
q,
r,
s,
t,
u,
v,
w,
x,
y,
z,
zero,
one,
two,
three,
four,
five,
six,
seven,
eight,
nine,
period,
comma,
hyphen,
plus,
asterisk,
asciicircum,
tilde,
slash,
backslash,
colon,
semicolon,
less,
at,
equal,
greater,
exclam,
question,
quotesingle,
quotedbl,
numbersign,
dollar,
Euro,
percent,
ampersand,
parenleft,
parenright,
braceleft,
braceright,
bar,
bracketleft,
bracketright,
quoteleft,
quoteright,
quotedblleft,
quotedblright,
quotesinglbase,
quotedblbase,
bullet,
underscore,
endash,
emdash,
macron,
logicalnot,
trademark,
registered,
copyright,
currency,
cent,
sterling,
yen,
minus,
plusminus,
multiply,
divide,
brokenbar,
ellipsis,
periodcentered,
exclamdown,
questiondown,
degree,
ordfeminine,
ordmasculine,
onesuperior,
twosuperior,
threesuperior,
uni2074,
fraction,
onequarter,
onehalf,
threequarters,
Agrave,
Aacute,
Acircumflex,
Atilde,
Adieresis,
Aring,
AE,
Ccedilla,
Egrave,
Eacute,
Ecircumflex,
Edieresis,
Igrave,
Iacute,
Icircumflex,
Idieresis,
Eth,
Ntilde,
Ograve,
Oacute,
Ocircumflex,
Otilde,
Odieresis,
Oslash,
Ugrave,
Uacute,
Ucircumflex,
Udieresis,
Yacute,
Thorn,
germandbls,
agrave,
aacute,
acircumflex,
atilde,
adieresis,
aring,
ae,
ccedilla,
egrave,
eacute,
ecircumflex,
edieresis,
igrave,
iacute,
icircumflex,
idieresis,
eth,
ntilde,
ograve,
oacute,
ocircumflex,
otilde,
odieresis,
oslash,
ugrave,
uacute,
ucircumflex,
udieresis,
yacute,
thorn,
ydieresis,
circumflex,
caron,
ogonek,
mu,
paragraph,
section,
guillemotleft,
guillemotright,
guilsinglleft,
guilsinglright,
dotlessi,
grave,
acute,
hungarumlaut,
ring,
oe,
dieresis,
cedilla,
OE,
asciitilde,
uni02BB,
uni02BC,
minute,
second,
arrowup,
arrowdown,
uni2215,
uniFFFD,
uni00A0,
uni2002,
uni200B,
uni2009,
uniFEFF
);
}
);
fontMaster = (
{
ascender = 750;
capHeight = 700;
customParameters = (
{

glyphs = (
{
glyphname = A;
layers = (
{
layerId = "9e608202-4e31-4786-af01-fb7a634e06d8";
paths = (
{
closed = 1;
nodes = (
"613.921 0 LINE",
"543.79 152.267 LINE",
"217.617 152.267 LINE",
"147.477 0 LINE",
"5 0 LINE",
"332.648 699.858 LINE",
"428.75 699.858 LINE",
"756.399 0 LINE"
);
},
{
closed = 1;
nodes = (
"487.685 274.022 LINE",
"380.7 506.267 LINE",
"273.713 274.022 LINE"
);
}
);
width = 761;
}
);
unicode = 0041;
},
{
glyphname = B;
layers = (
{
layerId = "9e608202-4e31-4786-af01-fb7a634e06d8";
paths = (
{
closed = 1;
nodes = (
"78. 0.011 LINE",
"78. 699.99 LINE",
"391.268 699.99 LINE SMOOTH",
"461.64 699.99 OFFCURVE",
"648.568 699.99 OFFCURVE",
"648.568 501.198 CURVE SMOOTH",
"648.568 456.705 OFFCURVE",
"633.489 408.637 OFFCURVE",
"604.247 383.517 CURVE",
"657.251 349.709 OFFCURVE",
"683.196 287.585 OFFCURVE",
"683.196 211.495 CURVE SMOOTH",
"683.196 115.017 OFFCURVE",
"636.043 0.011 OFFCURVE",
"411.41 0.011 CURVE SMOOTH"
);
},
{
closed = 1;
nodes = (
"218.07 129.916 LINE",
"406.488 129.87 LINE",
"509.799 129.87 OFFCURVE",
"544.671 150.968 OFFCURVE",
"544.671 213.471 CURVE SMOOTH",
"544.671 293.874 OFFCURVE",
"501.567 302.275 OFFCURVE",
"403.213 302.275 CURVE",
"218.07 302.56 LINE"
);
},
{
closed = 1;
nodes = (
"218.07 432.359 LINE",
"408.141 432.343 LINE",
"485.279 432.343 OFFCURVE",
"510.043 448.92 OFFCURVE",
"510.043 500.563 CURVE SMOOTH",
"510.043 552.541 OFFCURVE",
"482.06 570.09 OFFCURVE",
"399.161 570.09 CURVE SMOOTH",
"218.07 570.09 LINE"
);
}
);
width = 730;
}
);
unicode = 0042;
},
{
glyphname = C;
layers = (
{
layerId = "9e608202-4e31-4786-af01-fb7a634e06d8";
paths = (
{
closed = 1;
nodes = (
"176.815 -5.291 OFFCURVE",
"46.8 127.451 OFFCURVE",
"46.8 349.8 CURVE SMOOTH",
"46.8 572.153 OFFCURVE",
"176.815 704.897 OFFCURVE",
"394.594 704.897 CURVE SMOOTH",
"567.751 704.897 OFFCURVE",
"685.094 623.721 OFFCURVE",
"725.013 476.317 CURVE",
"730.17 457.275 LINE",
"588.446 457.275 LINE",
"561.28 536.324 OFFCURVE",
"498.3 574.764 OFFCURVE",
"395.981 574.764 CURVE SMOOTH",
"255.522 574.764 OFFCURVE",
"184.302 499.077 OFFCURVE",
"184.302 349.8 CURVE SMOOTH",
"184.302 200.534 OFFCURVE",
"255.522 124.846 OFFCURVE",
"395.981 124.846 CURVE SMOOTH",
"498.305 124.846 OFFCURVE",
"561.291 163.282 OFFCURVE",
"588.446 242.326 CURVE",
"730.17 242.326 LINE",
"725.013 223.289 LINE",
"685.094 75.884 OFFCURVE",
"567.751 -5.291 OFFCURVE",
"394.594 -5.291 CURVE SMOOTH"
);
}
);
width = 777;
}
);
unicode = 0043;
},
{
glyphname = D;
layers = (
{
layerId = "9e608202-4e31-4786-af01-fb7a634e06d8";
paths = (
{
closed = 1;
nodes = (
"78. -0.152 LINE",
"78. 699.974 LINE",
"373.401 699.974 LINE SMOOTH",
"588.099 699.974 OFFCURVE",
"716.276 569.111 OFFCURVE",
"716.276 349.911 CURVE SMOOTH",
"716.276 130.71 OFFCURVE",
"588.099 -0.152 OFFCURVE",
"373.401 -0.152 CURVE SMOOTH"
);
},
{
closed = 1;
nodes = (
"218.131 129.607 LINE",
"372.038 129.607 LINE SMOOTH",
"509.997 129.607 OFFCURVE",
"579.95 203.731 OFFCURVE",
"579.95 349.911 CURVE SMOOTH",
"579.95 495.968 OFFCURVE",
"510.754 570.027 OFFCURVE",
"374.297 570.027 CURVE",
"218.131 570.023 LINE"
);
}
);
width = 763;
}
);
unicode = 0044;
},
{
glyphname = E;
layers = (
{
layerId = "9e608202-4e31-4786-af01-fb7a634e06d8";
paths = (
{
closed = 1;
nodes = (
"78. -0.152 LINE",
"78. 699.99 LINE",
"589.525 699.99 LINE",
"589.525 570.03 LINE",
"218.129 570.03 LINE",
"218.129 414.899 LINE",
"576.41 414.899 LINE",
"576.41 284.945 LINE",
"218.129 284.945 LINE",
"218.129 129.808 LINE",
"602.645 129.808 LINE",
"602.645 -0.152 LINE"
);
}
);
width = 634;
}
);
unicode = 0045;
},
{
glyphname = F;
layers = (
{
layerId = "9e608202-4e31-4786-af01-fb7a634e06d8";
paths = (
{
closed = 1;
nodes = (
"78. -0.152 LINE",
"78. 699.617 LINE",
"589.263 699.617 LINE",
"589.263 569.727 LINE",
"218.06 569.727 LINE",
"218.06 414.678 LINE",
"576.15 414.678 LINE",
"576.15 284.793 LINE",
"218.06 284.793 LINE",
"218.06 -0.152 LINE"
);
}
);
width = 651;
}
);
unicode = 0046;
},
{
glyphname = G;
layers = (
{
layerId = "9e608202-4e31-4786-af01-fb7a634e06d8";
paths = (
{
closed = 1;
nodes = (
"183.253 -5.929 OFFCURVE",
"46.8 130.524 OFFCURVE",
"46.8 350.179 CURVE SMOOTH",
"46.8 569.836 OFFCURVE",
"184.128 708.426 OFFCURVE",
"402.909 706.289 CURVE SMOOTH",
"423.385 706.289 OFFCURVE",
"485.325 704.878 OFFCURVE",
"555.868 676.622 CURVE SMOOTH",
"647.309 639.986 OFFCURVE",
"707.344 574.909 OFFCURVE",
"729.709 488.269 CURVE",
"582.176 488.269 LINE",
"536.658 569.724 OFFCURVE",
"437.077 575.911 OFFCURVE",
"408.273 575.911 CURVE",
"266.011 575.916 OFFCURVE",
"188.387 499.964 OFFCURVE",
"188.387 350.179 CURVE SMOOTH",
"188.387 200.621 OFFCURVE",
"260.587 124.674 OFFCURVE",
"402.97 124.444 CURVE",
"513.305 124.444 OFFCURVE",
"588.481 174.58 OFFCURVE",
"609.221 261.986 CURVE",
"610.084 265.642 LINE",
"366.329 265.642 LINE",
"366.329 396.26 LINE",
"749.641 396.26 LINE",
"762.515 316.952 OFFCURVE",
"757.062 236.711 OFFCURVE",
"714.251 156.642 CURVE SMOOTH",
"656.671 51.814 OFFCURVE",
"546.096 -5.929 OFFCURVE",
"402.909 -5.929 CURVE SMOOTH"
);
}
);
width = 802;
}
);
unicode = 0047;
},
{
glyphname = H;
layers = (
{
layerId = "9e608202-4e31-4786-af01-fb7a634e06d8";
paths = (
{
closed = 1;
nodes = (
"548.751 -0.152 LINE",
"548.751 284.945 LINE",
"218.129 284.945 LINE",
"218.129 -0.152 LINE",
"78. -0.152 LINE",
"78. 699.99 LINE",
"218.129 699.99 LINE",
"218.129 414.899 LINE",
"548.751 414.899 LINE",
"548.751 699.99 LINE",
"688.88 699.99 LINE",
"688.88 -0.152 LINE"
);
}
);
width = 767;
}
);
unicode = 0048;
},
{
glyphname = I;
layers = (
{
layerId = "9e608202-4e31-4786-af01-fb7a634e06d8";
paths = (
{
closed = 1;
nodes = (
"109. -0.152 LINE",
"109. 699.99 LINE",
"249.129 699.99 LINE",
"249.129 -0.152 LINE"
);
}
);
width = 358;
}
);
unicode = 0049;
},
{
glyphname = J;
layers = (
{
layerId = "9e608202-4e31-4786-af01-fb7a634e06d8";
paths = (
{
closed = 1;
nodes = (
"88.61 -4.737 OFFCURVE",
"28.706 26.411 OFFCURVE",
"4.999 48.423 CURVE",
"84.32 159.472 LINE",
"93.903 152.692 OFFCURVE",
"129.647 129.668 OFFCURVE",
"172.709 129.672 CURVE",
"253.829 130.767 OFFCURVE",
"256.113 207.482 OFFCURVE",
"255.546 264.948 CURVE SMOOTH",
"256.218 699.94 LINE",
"396.418 699.94 LINE",
"395.752 250.498 LINE",
"397.548 137.471 OFFCURVE",
"353.779 55.219 OFFCURVE",
"272.51 18.849 CURVE SMOOTH",
"237.539 3.199 OFFCURVE",
"200.808 -4.736 OFFCURVE",
"163.334 -4.737 CURVE SMOOTH"
);
}
);
width = 474;
}
);
unicode = 004A;
},
{
glyphname = K;
layers = (
{
layerId = "9e608202-4e31-4786-af01-fb7a634e06d8";
paths = (
{
closed = 1;
nodes = (
"551.749 0.01 LINE",
"312.298 288.388 LINE",
"218.064 190.507 LINE",
"218.064 0.168 LINE",
"77.999 0.168 LINE",
"77.999 699.99 LINE",
"218.064 699.99 LINE",
"218.064 382.358 LINE",
"521.484 699.99 LINE",
"708.559 699.99 LINE",
"408.105 387.9 LINE",
"731.639 0.01 LINE"
);
}
);
width = 763;
}
);
unicode = 004B;
},
{
glyphname = L;
layers = (
{
layerId = "9e608202-4e31-4786-af01-fb7a634e06d8";
paths = (
{
closed = 1;
nodes = (
"78.001 0.01 LINE",
"78.001 699.99 LINE",
"218.098 699.99 LINE",
"218.098 129.94 LINE",
"583.462 129.94 LINE",
"583.462 0.01 LINE"
);
}
);
width = 583;
}
);
unicode = 004C;
},
{
glyphname = M;
layers = (
{
layerId = "9e608202-4e31-4786-af01-fb7a634e06d8";
paths = (
{
closed = 1;
nodes = (
"697.002 0.01 LINE",
"697.002 369.969 LINE",
"500.162 0.01 LINE",
"423.907 0.01 LINE",
"227.067 369.969 LINE",
"227.067 0.01 LINE",
"87. 0.01 LINE",
"87. 699.989 LINE",
"218.377 699.989 LINE",
"462.035 222.824 LINE",
"705.697 699.989 LINE",
"837.063 699.989 LINE",
"837.063 0.01 LINE"
);
}
);
width = 924;
}
);
unicode = 004D;
},
{
glyphname = N;
layers = (
{
layerId = "9e608202-4e31-4786-af01-fb7a634e06d8";
paths = (
{
closed = 1;
nodes = (
"592.276 -0.04 LINE",
"227.071 447.25 LINE",
"227.071 -0.04 LINE",
"87. -0.04 LINE",
"87. 699.939 LINE",
"194.37 699.939 LINE",
"559.579 252.648 LINE",
"559.579 699.939 LINE",
"699.65 699.939 LINE",
"699.65 -0.04 LINE"
);
}
);
width = 787;
}
);
unicode = 004E;
},
{
glyphname = O;
layers = (
{
layerId = "9e608202-4e31-4786-af01-fb7a634e06d8";
paths = (
{
closed = 1;
nodes = (
"183.108 -6.064 OFFCURVE",
"46.8 130.244 OFFCURVE",
"46.8 349.666 CURVE SMOOTH",
"46.8 569.089 OFFCURVE",
"183.108 705.398 OFFCURVE",
"402.532 705.398 CURVE SMOOTH",
"621.955 705.398 OFFCURVE",
"758.262 569.089 OFFCURVE",
"758.262 349.666 CURVE SMOOTH",
"758.262 130.244 OFFCURVE",
"621.955 -6.064 OFFCURVE",
"402.532 -6.064 CURVE SMOOTH"
);
},
{
closed = 1;
nodes = (
"260.339 575.163 OFFCURVE",
"188.236 499.291 OFFCURVE",
"188.236 349.666 CURVE SMOOTH",
"188.236 200.042 OFFCURVE",
"260.339 124.176 OFFCURVE",
"402.532 124.176 CURVE SMOOTH",
"544.724 124.176 OFFCURVE",
"616.816 200.042 OFFCURVE",
"616.816 349.666 CURVE SMOOTH",
"616.816 499.291 OFFCURVE",
"544.724 575.163 OFFCURVE",
"402.532 575.163 CURVE SMOOTH"
);
}
);
width = 805;
}
);
unicode = 004F;
},
{
glyphname = P;
layers = (
{
layerId = "9e608202-4e31-4786-af01-fb7a634e06d8";
paths = (
{
closed = 1;
nodes = (
"78 0.01 LINE",
"78 699.933 LINE",
"374.487 699.99 LINE",
"476.029 699.99 OFFCURVE",
"646.37 669.953 OFFCURVE",
"646.37 468.776 CURVE SMOOTH",
"646.37 268.298 OFFCURVE",
"476.029 238.368 OFFCURVE",
"374.498 238.368 CURVE SMOOTH",
"218.091 238.368 LINE",
"218.091 0.01 LINE"
);
},
{
closed = 1;
nodes = (
"218.091 368.039 LINE",
"370.561 368.039 LINE SMOOTH",
"482.295 368.039 OFFCURVE",
"505.181 408.308 OFFCURVE",
"505.181 468.772 CURVE SMOOTH",
"505.181 529.241 OFFCURVE",
"482.295 569.515 OFFCURVE",
"370.561 569.515 CURVE SMOOTH",
"218.091 569.515 LINE"
);
}
);
width = 693;
}
);
unicode = 0050;
},
{
glyphname = Q;
layers = (
{
layerId = "9e608202-4e31-4786-af01-fb7a634e06d8";
paths = (
{
closed = 1;
nodes = (
"735.529 -1.226 LINE SMOOTH",
"670.196 -1.226 OFFCURVE",
"628.234 24.249 OFFCURVE",
"604.692 45.984 CURVE",
"549.022 12.426 OFFCURVE",
"480.623 -4.584 OFFCURVE",
"401.39 -4.584 CURVE SMOOTH",
"182.671 -4.584 OFFCURVE",
"46.8 131.287 OFFCURVE",
"46.8 350.005 CURVE SMOOTH",
"46.8 568.724 OFFCURVE",
"182.671 704.595 OFFCURVE",
"401.39 704.595 CURVE SMOOTH",
"620.109 704.595 OFFCURVE",
"755.99 568.724 OFFCURVE",
"755.99 350.005 CURVE SMOOTH",
"755.99 268.277 OFFCURVE",
"737.945 198.194 OFFCURVE",
"702.357 141.699 CURVE",
"719.543 120.755 OFFCURVE",
"745.571 113.123 OFFCURVE",
"771.512 117.234 CURVE",
"771.512 -1.226 LINE"
);
},
{
closed = 1;
nodes = (
"259.654 574.779 OFFCURVE",
"187.782 499.15 OFFCURVE",
"187.782 350.005 CURVE SMOOTH",
"187.782 200.861 OFFCURVE",
"259.654 125.238 OFFCURVE",
"401.39 125.238 CURVE SMOOTH",
"445.472 125.238 OFFCURVE",
"486.784 134.52 OFFCURVE",
"517.546 149.555 CURVE",
"368.927 328.566 LINE",
"541.456 328.566 LINE",
"601.943 254.077 LINE",
"611.039 285.617 OFFCURVE",
"614.997 317.187 OFFCURVE",
"614.997 350.005 CURVE SMOOTH",
"614.997 499.15 OFFCURVE",
"543.126 574.779 OFFCURVE",
"401.39 574.779 CURVE SMOOTH"
);
}
);
width = 810;
}
);
unicode = 0051;
},
{
glyphname = R;
layers = (
{
layerId = "9e608202-4e31-4786-af01-fb7a634e06d8";
paths = (
{
closed = 1;
nodes = (
"531.789 -0.157 LINE",
"362.117 238.335 LINE",
"218.06 238.335 LINE",
"218.06 0. LINE",
"78. 0. LINE",
"78. 699.766 LINE",
"374.421 699.822 LINE",
"475.93 699.822 OFFCURVE",
"646.233 669.792 OFFCURVE",
"646.233 468.661 CURVE SMOOTH",
"646.233 366.477 OFFCURVE",
"597.4 293.32 OFFCURVE",
"511.675 259.715 CURVE",
"696.377 -0.157 LINE"
);
},
{
closed = 1;
nodes = (
"218.06 367.946 LINE",
"370.486 367.946 LINE SMOOTH",
"482.194 367.946 OFFCURVE",
"505.085 408.206 OFFCURVE",
"505.085 468.657 CURVE SMOOTH",
"505.085 529.112 OFFCURVE",
"482.194 569.377 OFFCURVE",
"370.486 569.377 CURVE SMOOTH",
"218.06 569.377 LINE"
);
}
);
width = 728;
}
);
unicode = 0052;
},
{
glyphname = S;
layers = (
{
layerId = "9e608202-4e31-4786-af01-fb7a634e06d8";
paths = (
{
closed = 1;
nodes = (
"265.348 -4.584 OFFCURVE",
"179.218 21.622 OFFCURVE",
"122.132 69.204 CURVE SMOOTH",
"77.992 105.994 OFFCURVE",
"51.262 157.02 OFFCURVE",
"46.8 212.981 CURVE",
"200.805 212.981 LINE",
"209.728 187.168 OFFCURVE",
"246.147 132.403 OFFCURVE",
"365.415 131.843 CURVE",
"429.398 131.843 OFFCURVE",
"467.486 140.533 OFFCURVE",
"495.112 160.891 CURVE",
"505.432 168.496 OFFCURVE",
"512.684 184.203 OFFCURVE",
"513.153 199.973 CURVE",
"513.632 215.849 OFFCURVE",
"507.193 230.187 OFFCURVE",
"495.011 240.353 CURVE",
"478.802 253.871 OFFCURVE",
"440.469 272.661 OFFCURVE",
"349.889 285.435 CURVE SMOOTH",
"278.876 295.444 OFFCURVE",
"62.845 325.902 OFFCURVE",
"76.149 508.786 CURVE SMOOTH",
"84.919 629.898 OFFCURVE",
"191.84 705.127 OFFCURVE",
"355.165 705.127 CURVE",
"521.69 704.288 OFFCURVE",
"625.096 619.145 OFFCURVE",
"632.369 487.96 CURVE",
"486.931 487.96 LINE",
"486.035 498.34 OFFCURVE",
"482.297 515.561 OFFCURVE",
"468.565 531.125 CURVE",
"446.612 556.012 OFFCURVE",
"409.04 567.61 OFFCURVE",
"351.209 568.73 CURVE",
"305.247 568.73 OFFCURVE",
"229.41 560.734 OFFCURVE",
"224.623 506.697 CURVE",
"224.297 489.09 OFFCURVE",
"216.501 444.374 OFFCURVE",
"371.444 423.655 CURVE SMOOTH",
"573.285 396.654 OFFCURVE",
"662.084 327.628 OFFCURVE",
"659.344 199.845 CURVE SMOOTH",
"657.194 98.099 OFFCURVE",
"565.248 -4.574 OFFCURVE",
"364.659 -4.584 CURVE"
);
}
);
width = 706;
}
);
unicode = 0053;
},
{
glyphname = T;
layers = (
{
layerId = "9e608202-4e31-4786-af01-fb7a634e06d8";
paths = (
{
closed = 1;
nodes = (
"234.119 0.01 LINE",
"234.119 570.06 LINE",
"5. 570.06 LINE",
"5. 699.99 LINE",
"603.36 699.99 LINE",
"603.36 570.06 LINE",
"374.231 570.06 LINE",
"374.231 0.01 LINE"
);
}
);
width = 608;
}
);
unicode = 0054;
},
{
glyphname = U;
layers = (
{
layerId = "9e608202-4e31-4786-af01-fb7a634e06d8";
paths = (
{
closed = 1;
nodes = (
"179.6 -4.685 OFFCURVE",
"78. 110.158 OFFCURVE",
"78. 336.658 CURVE",
"79.395 699.99 LINE",
"220.328 699.99 LINE",
"218.943 343.077 LINE",
"218.943 183.098 OFFCURVE",
"261.076 126.399 OFFCURVE",
"379.971 126.399 CURVE SMOOTH",
"498.672 126.399 OFFCURVE",
"540.743 183.138 OFFCURVE",
"540.743 343.218 CURVE",
"542.127 699.99 LINE",
"683.325 699.99 LINE",
"681.951 336.516 LINE",
"681.951 110.107 OFFCURVE",
"580.351 -4.685 OFFCURVE",
"379.971 -4.685 CURVE SMOOTH"
);
}
);
width = 761;
}
);
unicode = 0055;
},
{
glyphname = V;
layers = (
{
layerId = "9e608202-4e31-4786-af01-fb7a634e06d8";
paths = (
{
closed = 1;
nodes = (
"332.715 0.01 LINE",
"5 699.99 LINE",
"156.379 699.99 LINE",
"383.229 207.573 LINE",
"610.068 699.99 LINE",
"761.448 699.99 LINE",
"433.722 0.01 LINE"
);
}
);
width = 766;
}
);
unicode = 0056;
},
{
glyphname = W;
layers = (
{
layerId = "9e608202-4e31-4786-af01-fb7a634e06d8";
paths = (
{
closed = 1;
nodes = (
"657.57 0.01 LINE",
"507.687 438.212 LINE",
"357.794 0.01 LINE",
"242.278 0.01 LINE",
"5 699.99 LINE",
"155.89 699.99 LINE",
"301.297 244.311 LINE",
"458.197 699.99 LINE",
"557.157 699.99 LINE",
"714.067 244.311 LINE",
"859.474 699.99 LINE",
"1010.364 699.99 LINE",
"773.086 0.01 LINE"
);
}
);
width = 1015;
}
);
unicode = 0057;
},
{
glyphname = X;
layers = (
{
layerId = "9e608202-4e31-4786-af01-fb7a634e06d8";
paths = (
{
closed = 1;
nodes = (
"551.902 0.01 LINE",
"363.248 249.703 LINE",
"174.616 0.02 LINE",
"5 0.02 LINE",
"277.628 360.887 LINE",
"21.455 699.99 LINE",
"191.07 699.99 LINE",
"363.258 472.075 LINE",
"535.447 699.99 LINE",
"705.061 699.99 LINE",
"448.869 360.887 LINE",
"721.506 0.01 LINE"
);
}
);
width = 727;
}
);
unicode = 0058;
},
{
glyphname = Y;
layers = (
{
layerId = "9e608202-4e31-4786-af01-fb7a634e06d8";
paths = (
{
closed = 1;
nodes = (
"291.578 0.01 LINE",
"291.578 272.95 LINE",
"5 699.99 LINE",
"171.35 699.99 LINE",
"361.619 408.459 LINE",
"551.877 699.99 LINE",
"718.247 699.99 LINE",
"431.658 272.97 LINE",
"431.658 0.01 LINE"
);
}
);
width = 723;
}
);
unicode = 0059;
},
{
glyphname = Z;
layers = (
{
layerId = "9e608202-4e31-4786-af01-fb7a634e06d8";
paths = (
{
closed = 1;
nodes = (
"62 0.01 LINE",
"62 97.173 LINE",
"453.583 569.596 LINE",
"90.964 569.596 LINE",
"90.964 699.99 LINE",
"661.231 699.99 LINE",
"661.231 604.23 LINE",
"268.49 130.591 LINE",
"672.236 130.591 LINE",
"672.236 0.01 LINE"
);
}
);
width = 734;
}
);
unicode = 005A;
},
{
glyphname = a;
layers = (
{
layerId = "9e608202-4e31-4786-af01-fb7a634e06d8";
paths = (
{
closed = 1;
nodes = (
"150.519 -3.677 OFFCURVE",
"46.8 102.09 OFFCURVE",
"46.8 272.35 CURVE SMOOTH",
"46.8 442.61 OFFCURVE",
"150.519 548.377 OFFCURVE",
"317.481 548.377 CURVE SMOOTH",
"379.397 548.377 OFFCURVE",
"433.399 533.998 OFFCURVE",
"476.539 506.378 CURVE",
"484.202 544.736 LINE",
"591.311 544.736 LINE",
"591.311 -0.035 LINE",
"484.198 -0.035 LINE",
"476.539 38.322 LINE",
"433.399 10.702 OFFCURVE",
"379.397 -3.677 OFFCURVE",
"317.481 -3.677 CURVE SMOOTH"
);
},
{
closed = 1;
nodes = (
"224.003 424.724 OFFCURVE",
"175.96 374.882 OFFCURVE",
"175.96 272.35 CURVE SMOOTH",
"175.96 169.822 OFFCURVE",
"224.003 119.98 OFFCURVE",
"322.828 119.98 CURVE SMOOTH",
"421.651 119.98 OFFCURVE",
"469.69 169.822 OFFCURVE",
"469.69 272.35 CURVE SMOOTH",
"469.69 374.882 OFFCURVE",
"421.651 424.724 OFFCURVE",
"322.828 424.724 CURVE SMOOTH"
);
}
);
width = 669;
}
);
unicode = 0061;
},
{
glyphname = b;
layers = (
{
layerId = "9e608202-4e31-4786-af01-fb7a634e06d8";
paths = (
{
closed = 1;
nodes = (
"289.859 -3.885 OFFCURVE",
"235.875 10.491 OFFCURVE",
"192.75 38.104 CURVE",
"185.084 -0.244 LINE",
"78. -0.244 LINE",
"78. 741.443 LINE",
"204.432 741.443 LINE",
"204.432 513.063 LINE",
"245.486 536.092 OFFCURVE",
"295.352 548.038 OFFCURVE",
"351.766 548.038 CURVE SMOOTH",
"518.693 548.038 OFFCURVE",
"622.387 442.296 OFFCURVE",
"622.387 272.077 CURVE SMOOTH",
"622.387 101.857 OFFCURVE",
"518.693 -3.885 OFFCURVE",
"351.766 -3.885 CURVE SMOOTH"
);
},
{
closed = 1;
nodes = (
"247.624 424.414 OFFCURVE",
"199.593 374.585 OFFCURVE",
"199.593 272.077 CURVE SMOOTH",
"199.593 169.573 OFFCURVE",
"247.624 119.743 OFFCURVE",
"346.425 119.743 CURVE SMOOTH",
"445.225 119.743 OFFCURVE",
"493.257 169.573 OFFCURVE",
"493.257 272.077 CURVE SMOOTH",
"493.257 374.585 OFFCURVE",
"445.225 424.414 OFFCURVE",
"346.425 424.414 CURVE SMOOTH"
);
}
);
width = 669;
}
);
unicode = 0062;
},
{
glyphname = c;
layers = (
{
layerId = "9e608202-4e31-4786-af01-fb7a634e06d8";
paths = (
{
closed = 1;
nodes = (
"449.818 203.322 LINE",
"432.52 144.911 OFFCURVE",
"391.858 118.859 OFFCURVE",
"317.966 118.859 CURVE SMOOTH",
"221.587 118.859 OFFCURVE",
"174.735 168.922 OFFCURVE",
"174.735 271.908 CURVE SMOOTH",
"174.735 374.893 OFFCURVE",
"221.587 424.956 OFFCURVE",
"317.966 424.956 CURVE SMOOTH",
"391.858 424.956 OFFCURVE",
"432.52 398.904 OFFCURVE",
"449.818 340.493 CURVE",
"580.498 340.425 LINE",
"576.939 356.183 LINE",
"549.082 479.522 OFFCURVE",
"456.75 547.446 OFFCURVE",
"316.948 547.446 CURVE SMOOTH",
"150.313 547.446 OFFCURVE",
"46.8 441.865 OFFCURVE",
"46.8 271.908 CURVE SMOOTH",
"46.8 101.949 OFFCURVE",
"150.313 -3.631 OFFCURVE",
"316.948 -3.631 CURVE SMOOTH",
"456.75 -3.631 OFFCURVE",
"549.082 64.293 OFFCURVE",
"576.939 187.632 CURVE",
"580.498 203.39 LINE"
);
}
);
width = 627;
}
);
unicode = 0063;
},
{
glyphname = d;
layers = (
{
layerId = "9e608202-4e31-4786-af01-fb7a634e06d8";
paths = (
{
closed = 1;
nodes = (
"150.513 -4.026 OFFCURVE",
"46.8 101.736 OFFCURVE",
"46.8 271.989 CURVE SMOOTH",
"46.8 442.24 OFFCURVE",
"150.513 548.002 OFFCURVE",
"317.468 548.002 CURVE SMOOTH",
"373.892 548.002 OFFCURVE",
"423.767 536.053 OFFCURVE",
"464.828 513.02 CURVE",
"464.828 741.443 LINE",
"591.285 741.443 LINE",
"591.285 -0.384 LINE",
"484.176 -0.384 LINE",
"476.518 37.971 LINE",
"433.381 10.353 OFFCURVE",
"379.381 -4.026 OFFCURVE",
"317.468 -4.026 CURVE SMOOTH"
);
},
{
closed = 1;
nodes = (
"223.995 424.355 OFFCURVE",
"175.954 374.516 OFFCURVE",
"175.954 271.989 CURVE SMOOTH",
"175.954 169.465 OFFCURVE",
"223.995 119.626 OFFCURVE",
"322.813 119.626 CURVE SMOOTH",
"421.633 119.626 OFFCURVE",
"469.674 169.465 OFFCURVE",
"469.674 271.989 CURVE SMOOTH",
"469.674 374.516 OFFCURVE",
"421.633 424.355 OFFCURVE",
"322.813 424.355 CURVE SMOOTH"
);
}
);
width = 669;
}
);
unicode = 0064;
},
{
glyphname = e;
layers = (
{
layerId = "9e608202-4e31-4786-af01-fb7a634e06d8";
paths = (
{
closed = 1;
nodes = (
"548.886 89.87 LINE",
"499.483 28.662 OFFCURVE",
"419.158 -5.046 OFFCURVE",
"322.704 -5.046 CURVE SMOOTH",
"152.52 -5.046 OFFCURVE",
"46.8 100.674 OFFCURVE",
"46.8 270.858 CURVE SMOOTH",
"46.8 441.041 OFFCURVE",
"152.52 546.761 OFFCURVE",
"322.704 546.761 CURVE SMOOTH",
"410.577 546.761 OFFCURVE",
"481.476 518.688 OFFCURVE",
"527.735 465.573 CURVE SMOOTH",
"574.876 411.456 OFFCURVE",
"593.241 333.694 OFFCURVE",
"580.846 240.7 CURVE SMOOTH",
"577.246 213.665 LINE",
"180.053 213.665 LINE",
"180.053 152.399 OFFCURVE",
"247.471 112.614 OFFCURVE",
"328.713 112.614 CURVE SMOOTH",
"386.741 112.614 OFFCURVE",
"437.225 136.499 OFFCURVE",
"467.392 171.723 CURVE"
);
},
{
closed = 1;
nodes = (
"461.183 319.496 LINE",
"458.028 345.885 OFFCURVE",
"449.094 367.418 OFFCURVE",
"434.477 383.745 CURVE SMOOTH",
"410.84 410.153 OFFCURVE",
"369.91 425.302 OFFCURVE",
"314.319 424.115 CURVE SMOOTH",
"260.893 422.973 OFFCURVE",
"186.303 405.496 OFFCURVE",
"177.529 319.496 CURVE"
);
}
);
width = 631;
}
);
unicode = 0065;
},
{
glyphname = f;
layers = (
{
layerId = "9e608202-4e31-4786-af01-fb7a634e06d8";
paths = (
{
closed = 1;
nodes = (
"382.257 680.22 LINE",
"376.283 689.209 OFFCURVE",
"329.412 745.579 OFFCURVE",
"233.959 745.579 CURVE SMOOTH",
"149.295 745.579 OFFCURVE",
"92.612 688.048 OFFCURVE",
"80.561 599.115 CURVE",
"80.297 597.23 OFFCURVE",
"78. 579.256 OFFCURVE",
"78. 529.904 CURVE SMOOTH",
"78. 0.01 LINE",
"204.354 0.01 LINE",
"204.354 425.129 LINE",
"314.499 425.129 LINE",
"314.499 544.312 LINE",
"204.354 544.312 LINE",
"204.354 571.474 LINE",
"204.354 571.474 OFFCURVE",
"202.01 604.416 OFFCURVE",
"226.298 618.051 CURVE SMOOTH",
"268.627 640.805 OFFCURVE",
"313.087 597.853 OFFCURVE",
"313.087 597.853 CURVE"
);
}
);
width = 397;
}
);
unicode = 0066;
},
{
glyphname = g;
layers = (
{
layerId = "9e608202-4e31-4786-af01-fb7a634e06d8";
paths = (
{
closed = 1;
nodes = (
"581.164 174.05 OFFCURVE",
"598.617 246.313 OFFCURVE",
"598.617 304.937 CURVE SMOOTH",
"598.617 384.442 OFFCURVE",
"575.527 444.107 OFFCURVE",
"508.46 481.619 CURVE",
"561.887 505.492 OFFCURVE",
"585.758 557.951 OFFCURVE",
"585.758 557.951 CURVE",
"486.138 635.08 LINE",
"486.138 635.08 OFFCURVE",
"450.486 547.324 OFFCURVE",
"322.708 547.324 CURVE SMOOTH",
"189.325 547.324 OFFCURVE",
"46.8 483.648 OFFCURVE",
"46.8 304.937 CURVE SMOOTH",
"46.8 179.313 OFFCURVE",
"119.164 101.452 OFFCURVE",
"251.794 75.762 CURVE SMOOTH",
"286.794 68.982 OFFCURVE",
"368.88 54.438 OFFCURVE",
"387.858 49.658 CURVE",
"475.711 27.522 OFFCURVE",
"469.129 -14.489 OFFCURVE",
"467.537 -27.072 CURVE",
"461.853 -71.973 OFFCURVE",
"389.469 -86.875 OFFCURVE",
"323.17 -84.477 CURVE SMOOTH",
"268.226 -82.492 OFFCURVE",
"225.242 -66.922 OFFCURVE",
"203.088 -41.496 CURVE SMOOTH",
"189.034 -25.368 OFFCURVE",
"185.569 -8.817 OFFCURVE",
"183.919 -0.358 CURVE",
"57.71 -0.358 LINE",
"58.794 -49.213 OFFCURVE",
"76.126 -94.351 OFFCURVE",
"108.653 -129.161 CURVE SMOOTH",
"155.696 -179.515 OFFCURVE",
"231.717 -207.246 OFFCURVE",
"322.708 -207.246 CURVE SMOOTH",
"420.077 -207.246 OFFCURVE",
"498.785 -181.064 OFFCURVE",
"544.334 -133.512 CURVE SMOOTH",
"575.905 -100.558 OFFCURVE",
"591.605 -58.708 OFFCURVE",
"591.002 -9.129 CURVE SMOOTH",
"590.283 49.666 OFFCURVE",
"561.131 96.646 OFFCURVE",
"508.765 126.53 CURVE"
);
},
{
closed = 1;
nodes = (
"191.201 183.794 OFFCURVE",
"175.905 251.859 OFFCURVE",
"175.905 303.056 CURVE SMOOTH",
"175.905 354.253 OFFCURVE",
"191.201 422.319 OFFCURVE",
"323.425 422.319 CURVE SMOOTH",
"455.65 422.319 OFFCURVE",
"470.947 354.253 OFFCURVE",
"470.947 303.056 CURVE SMOOTH",
"470.947 251.859 OFFCURVE",
"455.65 183.794 OFFCURVE",
"323.425 183.794 CURVE SMOOTH"
);
}
);
width = 645;
}
);
unicode = 0067;
},
{
glyphname = h;
layers = (
{
layerId = "9e608202-4e31-4786-af01-fb7a634e06d8";
paths = (
{
closed = 1;
nodes = (
"455.031 -0.357 LINE",
"455.031 292.941 LINE SMOOTH",
"455.031 377.057 OFFCURVE",
"432.934 420.384 OFFCURVE",
"342.674 420.384 CURVE SMOOTH",
"308.184 420.384 OFFCURVE",
"274.895 410.74 OFFCURVE",
"248.951 393.225 CURVE SMOOTH",
"210.169 367.048 OFFCURVE",
"204.701 328.204 OFFCURVE",
"204.272 297.283 CURVE",
"204.272 -0.357 LINE",
"77.999 -0.357 LINE",
"77.999 741.075 LINE",
"204.272 741.075 LINE",
"204.272 510.653 LINE",
"238.716 530.08 OFFCURVE",
"287.965 547.614 OFFCURVE",
"353.528 547.614 CURVE SMOOTH",
"498.285 547.614 OFFCURVE",
"581.304 463.406 OFFCURVE",
"581.304 316.576 CURVE SMOOTH",
"581.304 -0.357 LINE"
);
}
);
width = 659;
}
);
unicode = 0068;
},
{
glyphname = i;
layers = (
{
layerId = "9e608202-4e31-4786-af01-fb7a634e06d8";
paths = (
{
closed = 1;
nodes = (
"91.023 0.01 LINE",
"91.023 544.234 LINE",
"217.347 544.234 LINE",
"217.347 0.01 LINE"
);
},
{
closed = 1;
nodes = (
"87.526 722.358 OFFCURVE",
"110.186 744.983 OFFCURVE",
"153.889 744.983 CURVE SMOOTH",
"195.972 744.983 OFFCURVE",
"220.251 722.358 OFFCURVE",
"220.777 678.095 CURVE SMOOTH",
"220.251 634.919 OFFCURVE",
"195.972 610.64 OFFCURVE",
"153.889 611.206 CURVE SMOOTH",
"111.805 610.64 OFFCURVE",
"87.526 634.919 OFFCURVE",
"87. 678.095 CURVE SMOOTH"
);
}
);
width = 308;
}
);
unicode = 0069;
},
{
glyphname = j;
layers = (
{
layerId = "9e608202-4e31-4786-af01-fb7a634e06d8";
paths = (
{
closed = 1;
nodes = (
"120.572 543.868 LINE",
"120.572 -33.587 LINE",
"120.572 -33.587 OFFCURVE",
"124.058 -69.817 OFFCURVE",
"99.604 -83.219 CURVE SMOOTH",
"68.685 -100.164 OFFCURVE",
"35.463 -78.356 OFFCURVE",
"20.501 -67.231 CURVE",
"-32.001 -167.857 LINE",
"-8.273 -186.433 OFFCURVE",
"39.917 -210.115 OFFCURVE",
"98.604 -210.115 CURVE SMOOTH",
"228.357 -205.371 OFFCURVE",
"247.072 -96.912 OFFCURVE",
"247.072 -18.281 CURVE SMOOTH",
"247.072 543.868 LINE"
);
},
{
closed = 1;
nodes = (
"116.853 634.676 OFFCURVE",
"141.132 610.397 OFFCURVE",
"183.216 610.963 CURVE SMOOTH",
"225.299 610.397 OFFCURVE",
"249.578 634.676 OFFCURVE",
"250.104 677.852 CURVE SMOOTH",
"249.578 722.115 OFFCURVE",
"225.299 744.741 OFFCURVE",
"183.216 744.741 CURVE SMOOTH",
"139.514 744.741 OFFCURVE",
"116.853 722.115 OFFCURVE",
"116.327 677.852 CURVE SMOOTH"
);
}
);
width = 329;
}
);
unicode = 006A;
},
{
glyphname = k;
layers = (
{
layerId = "9e608202-4e31-4786-af01-fb7a634e06d8";
paths = (
{
closed = 1;
nodes = (
"77.65 0.01 LINE",
"77.65 742.392 LINE",
"204.085 742.392 LINE",
"204.085 308.395 LINE",
"446.099 544.694 LINE",
"625.383 544.694 LINE",
"399.739 326.877 LINE",
"617.949 0.306 LINE",
"463.691 0.306 LINE",
"306.846 237.203 LINE",
"204.085 138.007 LINE",
"204.085 0.01 LINE"
);
}
);
width = 650;
}
);
unicode = 006B;
},
{
glyphname = l;
layers = (
{
layerId = "9e608202-4e31-4786-af01-fb7a634e06d8";
paths = (
{
closed = 1;
nodes = (
"92. 0.011 LINE",
"92. 741.269 LINE",
"218.354 741.269 LINE",
"218.354 0.011 LINE"
);
}
);
width = 310;
}
);
unicode = 006C;
},
{
glyphname = m;
layers = (
{
layerId = "9e608202-4e31-4786-af01-fb7a634e06d8";
paths = (
{
closed = 1;
nodes = (
"858.996 0.011 LINE",
"858.996 298.434 LINE SMOOTH",
"858.996 380.034 OFFCURVE",
"833.809 425.029 OFFCURVE",
"746.668 425.029 CURVE SMOOTH",
"723.457 425.029 OFFCURVE",
"683.306 420.317 OFFCURVE",
"647.5 397.873 CURVE SMOOTH",
"609.278 374.509 OFFCURVE",
"600.299 330.509 OFFCURVE",
"599.438 297.679 CURVE SMOOTH",
"599.447 0.011 LINE",
"468.459 0.011 LINE",
"468.459 298.434 LINE SMOOTH",
"468.459 380.034 OFFCURVE",
"443.272 425.029 OFFCURVE",
"356.131 425.029 CURVE SMOOTH",
"332.92 425.029 OFFCURVE",
"292.77 420.317 OFFCURVE",
"256.958 397.873 CURVE SMOOTH",
"219.486 374.969 OFFCURVE",
"210.199 331.001 OFFCURVE",
"208.987 297.92 CURVE",
"208.987 0. LINE",
"77.999 0. LINE",
"77.999 543.827 LINE",
"187.321 543.827 LINE",
"196.848 505.762 LINE",
"231.992 527.01 OFFCURVE",
"289.514 547.81 OFFCURVE",
"360.566 547.81 CURVE SMOOTH",
"443.094 547.81 OFFCURVE",
"507.411 524.089 OFFCURVE",
"549.298 478.719 CURVE",
"588.837 511.915 OFFCURVE",
"657.114 547.81 OFFCURVE",
"751.107 547.81 CURVE SMOOTH",
"906.076 547.81 OFFCURVE",
"994.952 463.629 OFFCURVE",
"994.952 316.845 CURVE SMOOTH",
"994.952 0.011 LINE"
);
}
);
width = 1073;
}
);
unicode = 006D;
},
{
glyphname = n;
layers = (
{
layerId = "9e608202-4e31-4786-af01-fb7a634e06d8";
paths = (
{
closed = 1;
nodes = (
"454.849 0.01 LINE",
"454.849 297.571 LINE SMOOTH",
"454.849 381.639 OFFCURVE",
"432.755 424.951 OFFCURVE",
"342.547 424.951 CURVE SMOOTH",
"308.071 424.951 OFFCURVE",
"274.804 415.312 OFFCURVE",
"248.867 397.8 CURVE SMOOTH",
"210.113 371.646 OFFCURVE",
"204.644 332.816 OFFCURVE",
"204.211 301.906 CURVE",
"204.211 -0.23 LINE",
"77.999 -0.23 LINE",
"77.999 543.728 LINE",
"184.097 543.728 LINE",
"193.284 504.196 LINE",
"227.789 525.931 OFFCURVE",
"280.544 547.71 OFFCURVE",
"353.396 547.71 CURVE SMOOTH",
"498.082 547.71 OFFCURVE",
"581.061 463.545 OFFCURVE",
"581.061 316.787 CURVE SMOOTH",
"581.061 0.01 LINE"
);
}
);
width = 659;
}
);
unicode = 006E;
},
{
glyphname = o;
layers = (
{
layerId = "9e608202-4e31-4786-af01-fb7a634e06d8";
paths = (
{
closed = 1;
nodes = (
"152.529 -3.933 OFFCURVE",
"46.8 101.8 OFFCURVE",
"46.8 272.006 CURVE SMOOTH",
"46.8 442.212 OFFCURVE",
"152.529 547.945 OFFCURVE",
"322.734 547.945 CURVE SMOOTH",
"492.94 547.945 OFFCURVE",
"598.673 442.212 OFFCURVE",
"598.673 272.006 CURVE SMOOTH",
"598.673 101.8 OFFCURVE",
"492.94 -3.933 OFFCURVE",
"322.734 -3.933 CURVE SMOOTH"
);
},
{
closed = 1;
nodes = (
"221.617 427.919 OFFCURVE",
"172.456 376.919 OFFCURVE",
"172.456 272.007 CURVE SMOOTH",
"172.456 167.093 OFFCURVE",
"221.617 116.093 OFFCURVE",
"322.738 116.093 CURVE SMOOTH",
"423.861 116.093 OFFCURVE",
"473.022 167.093 OFFCURVE",
"473.022 272.007 CURVE SMOOTH",
"473.022 376.919 OFFCURVE",
"423.861 427.919 OFFCURVE",
"322.738 427.919 CURVE SMOOTH"
);
}
);
width = 645;
}
);
unicode = 006F;
},
{
glyphname = p;
layers = (
{
layerId = "9e608202-4e31-4786-af01-fb7a634e06d8";
paths = (
{
closed = 1;
nodes = (
"78. -203.997 LINE",
"78. 543.594 LINE",
"185.135 543.594 LINE",
"192.804 505.227 LINE",
"235.95 532.853 OFFCURVE",
"289.963 547.236 OFFCURVE",
"351.894 547.236 CURVE SMOOTH",
"518.899 547.236 OFFCURVE",
"622.642 441.444 OFFCURVE",
"622.642 271.145 CURVE SMOOTH",
"622.642 100.846 OFFCURVE",
"518.899 -4.946 OFFCURVE",
"351.894 -4.946 CURVE SMOOTH",
"295.454 -4.946 OFFCURVE",
"245.566 7.006 OFFCURVE",
"204.492 30.046 CURVE",
"204.492 -203.997 LINE"
);
},
{
closed = 1;
nodes = (
"247.705 423.554 OFFCURVE",
"199.65 373.701 OFFCURVE",
"199.65 271.145 CURVE SMOOTH",
"199.65 168.593 OFFCURVE",
"247.705 118.74 OFFCURVE",
"346.551 118.74 CURVE SMOOTH",
"445.398 118.74 OFFCURVE",
"493.447 168.593 OFFCURVE",
"493.447 271.145 CURVE SMOOTH",
"493.447 373.701 OFFCURVE",
"445.398 423.554 OFFCURVE",
"346.551 423.554 CURVE SMOOTH"
);
}
);
width = 669;
}
);
unicode = 0070;
},
{
glyphname = q;
layers = (
{
layerId = "9e608202-4e31-4786-af01-fb7a634e06d8";
paths = (
{
closed = 1;
nodes = (
"462.675 33.33 LINE",
"421.824 10.415 OFFCURVE",
"372.206 -1.472 OFFCURVE",
"316.073 -1.472 CURVE SMOOTH",
"149.979 -1.472 OFFCURVE",
"46.8 103.745 OFFCURVE",
"46.8 273.12 CURVE SMOOTH",
"46.8 442.494 OFFCURVE",
"149.979 547.711 OFFCURVE",
"316.073 547.711 CURVE SMOOTH",
"377.667 547.711 OFFCURVE",
"431.388 533.406 OFFCURVE",
"474.303 505.93 CURVE",
"481.922 544.088 LINE",
"588.479 544.088 LINE",
"587.293 -124.492 LINE",
"461.489 -203.456 LINE"
);
},
{
closed = 1;
nodes = (
"223.081 424.701 OFFCURVE",
"175.288 375.119 OFFCURVE",
"175.288 273.12 CURVE SMOOTH",
"175.288 171.125 OFFCURVE",
"223.081 121.542 OFFCURVE",
"321.392 121.542 CURVE SMOOTH",
"419.701 121.542 OFFCURVE",
"467.494 171.125 OFFCURVE",
"467.494 273.12 CURVE SMOOTH",
"467.494 375.119 OFFCURVE",
"419.701 424.701 OFFCURVE",
"321.392 424.701 CURVE SMOOTH"
);
}
);
width = 666;
}
);
unicode = 0071;
},
{
glyphname = r;
layers = (
{
layerId = "9e608202-4e31-4786-af01-fb7a634e06d8";
paths = (
{
closed = 1;
nodes = (
"78. 0.01 LINE",
"78. 544.017 LINE",
"184.953 544.017 LINE",
"193.712 505.715 LINE",
"220.014 532.685 OFFCURVE",
"259.867 547.711 OFFCURVE",
"317.485 547.711 CURVE SMOOTH",
"355.43 547.711 OFFCURVE",
"382.785 538.08 OFFCURVE",
"382.785 538.08 CURVE",
"382.785 414.321 LINE",
"382.785 414.321 OFFCURVE",
"300.923 433.608 OFFCURVE",
"248.664 398.552 CURVE SMOOTH",
"212.025 373.975 OFFCURVE",
"204.671 337.616 OFFCURVE",
"204.278 291.479 CURVE",
"204.278 0.01 LINE"
);
}
);
width = 408;
}
);
unicode = 0072;
},
{
glyphname = s;
layers = (
{
layerId = "9e608202-4e31-4786-af01-fb7a634e06d8";
paths = (
{
closed = 1;
nodes = (
"212.585 344.587 OFFCURVE",
"176.897 349.608 OFFCURVE",
"177.895 386.582 CURVE SMOOTH",
"178.892 423.557 OFFCURVE",
"235.271 431.504 OFFCURVE",
"268.481 431.504 CURVE",
"296.537 431.504 OFFCURVE",
"332.247 427.816 OFFCURVE",
"352.145 405.263 CURVE",
"364.183 391.613 OFFCURVE",
"364.731 376.167 OFFCURVE",
"364.614 371.754 CURVE",
"488.661 371.781 LINE",
"485.743 477.344 OFFCURVE",
"398.616 546.81 OFFCURVE",
"272.679 548.685 CURVE",
"146.995 548.685 OFFCURVE",
"59.356 487.687 OFFCURVE",
"52.509 393.291 CURVE SMOOTH",
"41.963 248.074 OFFCURVE",
"210.733 224.282 OFFCURVE",
"266.194 216.467 CURVE SMOOTH",
"337.331 206.436 OFFCURVE",
"377.089 192.187 OFFCURVE",
"381.943 167.191 CURVE SMOOTH",
"389.063 130.521 OFFCURVE",
"346.532 113.526 OFFCURVE",
"279.251 113.455 CURVE",
"188.479 113.455 OFFCURVE",
"164.291 155.774 OFFCURVE",
"159.413 173.356 CURVE",
"35. 173.356 LINE",
"36.39 56.282 OFFCURVE",
"154.691 -0.385 OFFCURVE",
"276.404 -3.806 CURVE",
"433.257 -3.801 OFFCURVE",
"507.208 77.508 OFFCURVE",
"508.927 158.088 CURVE SMOOTH",
"511.647 286.14 OFFCURVE",
"390.591 319.6 OFFCURVE",
"284.821 334.445 CURVE SMOOTH"
);
}
);
width = 544;
}
);
unicode = 0073;
},
{
glyphname = t;
layers = (
{
layerId = "9e608202-4e31-4786-af01-fb7a634e06d8";
paths = (
{
closed = 1;
nodes = (
"382.831 61.71 LINE",
"376.846 52.704 OFFCURVE",
"329.887 -3.773 OFFCURVE",
"234.253 -3.773 CURVE SMOOTH",
"149.43 -3.773 OFFCURVE",
"92.64 53.868 OFFCURVE",
"80.566 142.968 CURVE",
"80.302 144.857 OFFCURVE",
"78. 162.865 OFFCURVE",
"78. 212.309 CURVE SMOOTH",
"78. 655.79 LINE",
"204.593 655.79 LINE",
"203.658 545.699 LINE",
"314.011 545.699 LINE",
"314.011 426.291 LINE",
"203.658 426.291 LINE",
"204.593 170.662 LINE",
"204.593 170.662 OFFCURVE",
"202.087 137.372 OFFCURVE",
"226.578 123.995 CURVE SMOOTH",
"268.832 100.915 OFFCURVE",
"313.53 144.233 OFFCURVE",
"313.53 144.233 CURVE"
);
}
);
width = 418;
}
);
unicode = 0074;
},
{
glyphname = u;
layers = (
{
layerId = "9e608202-4e31-4786-af01-fb7a634e06d8";
paths = (
{
closed = 1;
nodes = (
"154.568 -3.645 OFFCURVE",
"78 74.017 OFFCURVE",
"78 227.19 CURVE SMOOTH",
"78 543.845 LINE",
"204.163 543.845 LINE",
"204.163 246.395 LINE SMOOTH",
"204.163 162.367 OFFCURVE",
"226.262 119.063 OFFCURVE",
"316.427 119.063 CURVE",
"350.891 119.068 OFFCURVE",
"384.149 128.704 OFFCURVE",
"410.071 146.203 CURVE SMOOTH",
"448.801 172.348 OFFCURVE",
"454.272 211.167 OFFCURVE",
"454.71 242.07 CURVE",
"454.71 543.296 LINE",
"580.872 543.296 LINE",
"580.872 0.336 LINE",
"474.821 0.336 LINE",
"465.627 39.857 LINE",
"431.136 18.131 OFFCURVE",
"378.401 -3.645 OFFCURVE",
"305.581 -3.645 CURVE SMOOTH"
);
}
);
width = 659;
}
);
unicode = 0075;
},
{
glyphname = v;
layers = (
{
layerId = "9e608202-4e31-4786-af01-fb7a634e06d8";
paths = (
{
closed = 1;
nodes = (
"252.82 0.01 LINE",
"5 543.926 LINE",
"144.181 543.926 LINE",
"299.908 191.666 LINE",
"455.625 543.926 LINE",
"594.807 543.926 LINE",
"346.987 0.01 LINE"
);
}
);
width = 600;
}
);
unicode = 0076;
},
{
glyphname = w;
layers = (
{
layerId = "9e608202-4e31-4786-af01-fb7a634e06d8";
paths = (
{
closed = 1;
nodes = (
"582.47 0.01 LINE",
"458.595 318.462 LINE",
"334.72 0.01 LINE",
"230.804 0.01 LINE",
"5. 543.907 LINE",
"152.178 543.907 LINE",
"282.499 213.649 LINE",
"412.812 543.912 LINE",
"504.368 543.912 LINE",
"634.69 213.649 LINE",
"765.002 543.907 LINE",
"912.19 543.907 LINE",
"686.386 0.01 LINE"
);
}
);
width = 917;
}
);
unicode = 0077;
},
{
glyphname = x;
layers = (
{
layerId = "9e608202-4e31-4786-af01-fb7a634e06d8";
paths = (
{
closed = 1;
nodes = (
"453.166 0.01 LINE",
"307.207 185.179 LINE",
"161.259 0.014 LINE",
"5 0.014 LINE",
"225.845 280.188 LINE",
"17.971 543.912 LINE",
"174.229 543.912 LINE",
"307.216 375.192 LINE",
"440.195 543.912 LINE",
"596.462 543.912 LINE",
"388.579 280.188 LINE",
"609.423 0.01 LINE"
);
}
);
width = 614;
}
);
unicode = 0078;
},
{
glyphname = y;
layers = (
{
layerId = "9e608202-4e31-4786-af01-fb7a634e06d8";
paths = (
{
closed = 1;
nodes = (
"81.328 -203.128 LINE",
"239.386 98.632 LINE",
"5. 543.912 LINE",
"150.761 543.912 LINE",
"308.855 232.575 LINE",
"466.931 543.912 LINE",
"612.675 543.912 LINE",
"220.239 -203.128 LINE"
);
}
);
width = 618;
}
);
unicode = 0079;
},
{
glyphname = z;
layers = (
{
layerId = "9e608202-4e31-4786-af01-fb7a634e06d8";
paths = (
{
closed = 1;
nodes = (
"35. 0.01 LINE",
"35. 87.146 LINE",
"306.179 425.102 LINE",
"55.903 425.102 LINE",
"55.903 543.916 LINE",
"490.823 543.916 LINE",
"490.823 457.825 LINE",
"218.829 118.966 LINE",
"498.764 118.966 LINE",
"498.764 0.01 LINE"
);
}
);
width = 534;
}
);
unicode = 007A;
},
{
glyphname = zero;
layers = (
{
layerId = "9e608202-4e31-4786-af01-fb7a634e06d8";
paths = (
{
closed = 1;
nodes = (
"151.967 -4.975 OFFCURVE",
"46.8 124.334 OFFCURVE",
"46.8 349.806 CURVE SMOOTH",
"46.8 575.278 OFFCURVE",
"151.967 704.587 OFFCURVE",
"335.348 704.587 CURVE SMOOTH",
"518.727 704.587 OFFCURVE",
"623.9 575.278 OFFCURVE",
"623.9 349.806 CURVE SMOOTH",
"623.9 124.334 OFFCURVE",
"518.727 -4.975 OFFCURVE",
"335.348 -4.975 CURVE SMOOTH"
);
},
{
closed = 1;
nodes = (
"270.778 579.577 OFFCURVE",
"184.938 555.755 OFFCURVE",
"184.938 349.801 CURVE SMOOTH",
"184.938 143.857 OFFCURVE",
"270.778 120.04 OFFCURVE",
"335.348 120.04 CURVE SMOOTH",
"399.917 120.04 OFFCURVE",
"485.762 143.857 OFFCURVE",
"485.762 349.801 CURVE SMOOTH",
"485.762 555.755 OFFCURVE",
"399.917 579.577 OFFCURVE",
"335.348 579.577 CURVE SMOOTH"
);
}
);
width = 671;
}
);
unicode = 0030;
},
{
glyphname = one;
layers = (
{
layerId = "9e608202-4e31-4786-af01-fb7a634e06d8";
paths = (
{
closed = 1;
nodes = (
"120.855 -0.23 LINE",
"120.855 538.139 LINE",
"32 475.516 LINE",
"32 604.373 LINE",
"162.273 699.979 LINE",
"256.232 699.979 LINE",
"256.232 -0.23 LINE"
);
}
);
width = 334;
}
);
unicode = 0031;
},
{
glyphname = two;
layers = (
{
layerId = "9e608202-4e31-4786-af01-fb7a634e06d8";
paths = (
{
closed = 1;
nodes = (
"65 0.01 LINE",
"65 66.826 LINE SMOOTH",
"65 158.354 OFFCURVE",
"152.818 224.838 OFFCURVE",
"267.625 302.249 CURVE SMOOTH",
"385.816 381.94 OFFCURVE",
"407.265 419.268 OFFCURVE",
"418.088 448 CURVE",
"422.897 460.761 OFFCURVE",
"430.134 507.931 OFFCURVE",
"409.572 538.978 CURVE SMOOTH",
"389.874 568.721 OFFCURVE",
"354.875 574.838 OFFCURVE",
"321.906 574.838 CURVE",
"235.818 574.838 OFFCURVE",
"215.776 527.094 OFFCURVE",
"212.818 508.493 CURVE",
"81.637 508.493 LINE",
"81.627 542.603 OFFCURVE",
"95.479 592.578 OFFCURVE",
"134.692 634.049 CURVE SMOOTH",
"165.191 666.305 OFFCURVE",
"219.97 708.215 OFFCURVE",
"325.559 704.643 CURVE",
"398.599 702.803 OFFCURVE",
"460.036 680.114 OFFCURVE",
"500.274 637.202 CURVE SMOOTH",
"555.076 578.758 OFFCURVE",
"556.625 505.427 OFFCURVE",
"555.794 484.345 CURVE",
"553.036 413.5 OFFCURVE",
"530.303 334.228 OFFCURVE",
"383.865 234.803 CURVE SMOOTH",
"319.434 191.057 OFFCURVE",
"280.463 160.692 OFFCURVE",
"264.734 141.963 CURVE",
"256.535 132.18 LINE",
"569.622 132.18 LINE",
"569.622 0.01 LINE"
);
}
);
width = 635;
}
);
unicode = 0032;
},
{
glyphname = three;
layers = (
{
layerId = "9e608202-4e31-4786-af01-fb7a634e06d8";
paths = (
{
closed = 1;
nodes = (
"237.555 -4.913 OFFCURVE",
"172.373 19.055 OFFCURVE",
"127.224 66.334 CURVE SMOOTH",
"69.784 126.474 OFFCURVE",
"65.128 204.658 OFFCURVE",
"65. 226.155 CURVE",
"200.597 226.155 LINE",
"204.374 148.456 OFFCURVE",
"259.483 122.9 OFFCURVE",
"325.777 122.9 CURVE",
"375.777 122.9 OFFCURVE",
"460.65 134.386 OFFCURVE",
"467.32 211.301 CURVE SMOOTH",
"469.656 238.181 OFFCURVE",
"464.039 259.341 OFFCURVE",
"449.657 277.886 CURVE SMOOTH",
"421.371 314.346 OFFCURVE",
"363.207 315.399 OFFCURVE",
"356.666 315.399 CURVE",
"353.801 315.353 LINE",
"291.673 315.358 LINE",
"291.673 430.191 LINE",
"345.647 430.191 LINE SMOOTH",
"398.205 430.191 OFFCURVE",
"432.154 455.012 OFFCURVE",
"438.792 498.291 CURVE",
"439.531 503.112 OFFCURVE",
"442.315 528.204 OFFCURVE",
"424.59 548.84 CURVE SMOOTH",
"408.191 567.966 OFFCURVE",
"377.692 578.076 OFFCURVE",
"336.394 578.076 CURVE SMOOTH",
"265.872 578.076 OFFCURVE",
"241.36 550.914 OFFCURVE",
"233.407 527.213 CURVE",
"93.404 527.213 LINE",
"94.677 543.186 LINE",
"116.247 645.507 OFFCURVE",
"206.62 704.406 OFFCURVE",
"342.566 704.406 CURVE SMOOTH",
"475.628 704.406 OFFCURVE",
"563.412 634.695 OFFCURVE",
"571.664 522.469 CURVE SMOOTH",
"575.294 473.044 OFFCURVE",
"563.412 422.364 OFFCURVE",
"523.39 389.397 CURVE",
"612.007 329.297 OFFCURVE",
"603.066 236.712 OFFCURVE",
"601.515 209.556 CURVE SMOOTH",
"598.661 159.243 OFFCURVE",
"569.979 -4.913 OFFCURVE",
"320.966 -4.913 CURVE SMOOTH"
);
}
);
width = 680;
}
);
unicode = 0033;
},
{
glyphname = four;
layers = (
{
layerId = "9e608202-4e31-4786-af01-fb7a634e06d8";
paths = (
{
closed = 1;
nodes = (
"425.338 0 LINE",
"425.338 160.047 LINE",
"46.792 160.047 LINE",
"46.792 243.076 LINE",
"357.911 699.656 LINE",
"502.778 699.656 LINE",
"223.362 292.891 LINE",
"425.338 292.106 LINE",
"425.338 484.748 LINE",
"560.528 484.748 LINE",
"560.528 0. LINE"
);
}
);
width = 639;
}
);
unicode = 0034;
},
{
glyphname = five;
layers = (
{
layerId = "9e608202-4e31-4786-af01-fb7a634e06d8";
paths = (
{
closed = 1;
nodes = (
"223.765 -5.925 OFFCURVE",
"158.12 18.017 OFFCURVE",
"112.101 65.244 CURVE SMOOTH",
"53.013 125.881 OFFCURVE",
"47.222 203.994 OFFCURVE",
"46.8 225.545 CURVE",
"185.334 225.545 LINE",
"188.147 185.765 OFFCURVE",
"212.027 122.532 OFFCURVE",
"315.555 122.537 CURVE",
"349.057 122.537 OFFCURVE",
"436.559 130.211 OFFCURVE",
"446.239 227.355 CURVE",
"447.669 240.146 OFFCURVE",
"445.91 279.571 OFFCURVE",
"420.836 307.634 CURVE SMOOTH",
"400.498 330.388 OFFCURVE",
"367.967 341.924 OFFCURVE",
"324.144 341.924 CURVE",
"243.984 341.921 OFFCURVE",
"154.674 341.743 OFFCURVE",
"74.514 341.74 CURVE",
"107.216 699.989 LINE",
"534.603 699.989 LINE",
"534.603 567.386 LINE",
"231.501 567.386 LINE",
"220.967 469.469 LINE",
"291.438 469.469 LINE SMOOTH",
"399.342 469.469 OFFCURVE",
"433.061 458.272 OFFCURVE",
"465.588 442.307 CURVE",
"603.377 372.597 OFFCURVE",
"581.264 227.453 OFFCURVE",
"580.595 221.589 CURVE",
"572.998 153.176 OFFCURVE",
"531.156 -5.926 OFFCURVE",
"307.217 -5.925 CURVE SMOOTH"
);
}
);
width = 628;
}
);
unicode = 0035;
},
{
glyphname = six;
layers = (
{
layerId = "9e608202-4e31-4786-af01-fb7a634e06d8";
paths = (
{
closed = 1;
nodes = (
"216.489 -2.794 OFFCURVE",
"66.201 62.432 OFFCURVE",
"65.533 246.274 CURVE",
"64.105 270.841 OFFCURVE",
"56.035 488.354 OFFCURVE",
"207.822 609.634 CURVE",
"218.773 619.188 OFFCURVE",
"312.159 702.221 OFFCURVE",
"529.568 702.221 CURVE",
"529.568 571.983 LINE",
"454.609 579.06 OFFCURVE",
"352.045 559.7 OFFCURVE",
"290.978 509.784 CURVE SMOOTH",
"270.597 493.125 OFFCURVE",
"251.079 468.197 OFFCURVE",
"241.262 446.253 CURVE SMOOTH",
"232.359 426.357 LINE",
"250.15 438.951 LINE SMOOTH",
"275.123 456.638 OFFCURVE",
"328.757 469.978 OFFCURVE",
"374.91 469.978 CURVE SMOOTH",
"441.637 469.978 OFFCURVE",
"503.514 454.044 OFFCURVE",
"549.14 417.616 CURVE SMOOTH",
"601.874 375.513 OFFCURVE",
"629.749 309.422 OFFCURVE",
"629.749 234.295 CURVE SMOOTH",
"629.749 59.295 OFFCURVE",
"476.349 -2.794 OFFCURVE",
"344.986 -2.794 CURVE SMOOTH"
);
},
{
closed = 1;
nodes = (
"312.024 352.544 OFFCURVE",
"196.136 344.088 OFFCURVE",
"196.136 235.286 CURVE SMOOTH",
"196.136 126.489 OFFCURVE",
"312.024 118.033 OFFCURVE",
"347.544 118.033 CURVE SMOOTH",
"383.063 118.033 OFFCURVE",
"498.956 126.489 OFFCURVE",
"498.956 235.286 CURVE SMOOTH",
"498.956 344.088 OFFCURVE",
"383.063 352.544 OFFCURVE",
"347.544 352.544 CURVE SMOOTH"
);
}
);
width = 677;
}
);
unicode = 0036;
},
{
glyphname = seven;
layers = (
{
layerId = "9e608202-4e31-4786-af01-fb7a634e06d8";
paths = (
{
closed = 1;
nodes = (
"82.165 0 LINE",
"359.106 567.775 LINE",
"32. 567.775 LINE",
"32. 699.979 LINE",
"528.716 699.979 LINE",
"528.716 612.551 LINE",
"230.4 -0. LINE"
);
}
);
width = 576;
}
);
unicode = 0037;
},
{
glyphname = eight;
layers = (
{
layerId = "9e608202-4e31-4786-af01-fb7a634e06d8";
paths = (
{
closed = 1;
nodes = (
"260.089 -6.853 OFFCURVE",
"78. 40.159 OFFCURVE",
"78. 216.359 CURVE SMOOTH",
"78. 285.916 OFFCURVE",
"112.655 347.382 OFFCURVE",
"167.603 386.545 CURVE",
"132.392 423.637 OFFCURVE",
"117.895 462.319 OFFCURVE",
"117.895 513.49 CURVE SMOOTH",
"117.895 655.38 OFFCURVE",
"250.91 705.681 OFFCURVE",
"371.049 705.681 CURVE",
"398.5 705.681 OFFCURVE",
"455.148 702.438 OFFCURVE",
"505.729 680.68 CURVE SMOOTH",
"577.814 649.661 OFFCURVE",
"617.511 590.289 OFFCURVE",
"617.511 513.49 CURVE SMOOTH",
"617.511 462.381 OFFCURVE",
"603.161 423.54 OFFCURVE",
"568.031 386.41 CURVE",
"629.34 347.341 OFFCURVE",
"657.413 285.818 OFFCURVE",
"657.413 216.359 CURVE SMOOTH",
"657.413 124.666 OFFCURVE",
"608.787 56.975 OFFCURVE",
"516.796 20.603 CURVE SMOOTH",
"452.359 -4.878 OFFCURVE",
"386.37 -6.853 OFFCURVE",
"367.681 -6.853 CURVE"
);
},
{
closed = 1;
nodes = (
"265.535 324.527 OFFCURVE",
"213.728 290.243 OFFCURVE",
"213.728 222.634 CURVE SMOOTH",
"213.728 133.072 OFFCURVE",
"310.2 119.695 OFFCURVE",
"367.706 119.695 CURVE SMOOTH",
"425.212 119.695 OFFCURVE",
"521.684 133.072 OFFCURVE",
"521.684 222.634 CURVE SMOOTH",
"521.684 290.243 OFFCURVE",
"469.876 324.527 OFFCURVE",
"367.706 324.527 CURVE SMOOTH"
);
},
{
closed = 1;
nodes = (
"250.91 587.395 OFFCURVE",
"250.91 530.302 OFFCURVE",
"250.91 508.813 CURVE SMOOTH",
"250.91 459.589 OFFCURVE",
"290.206 434.629 OFFCURVE",
"367.706 434.629 CURVE SMOOTH",
"445.2 434.629 OFFCURVE",
"484.497 459.589 OFFCURVE",
"484.497 508.813 CURVE",
"484.497 528.249 OFFCURVE",
"484.497 587.395 OFFCURVE",
"367.706 587.395 CURVE SMOOTH"
);
}
);
width = 735;
}
);
unicode = 0038;
},
{
glyphname = nine;
layers = (
{
layerId = "9e608202-4e31-4786-af01-fb7a634e06d8";
paths = (
{
closed = 1;
nodes = (
"460.06 705.221 OFFCURVE",
"610.348 639.995 OFFCURVE",
"611.015 456.154 CURVE",
"612.443 431.586 OFFCURVE",
"620.514 214.073 OFFCURVE",
"468.727 92.794 CURVE",
"457.775 83.24 OFFCURVE",
"364.39 0.206 OFFCURVE",
"146.981 0.206 CURVE",
"146.981 130.445 LINE",
"221.94 123.368 OFFCURVE",
"324.504 142.727 OFFCURVE",
"385.571 192.643 CURVE SMOOTH",
"405.952 209.302 OFFCURVE",
"425.47 234.231 OFFCURVE",
"435.287 256.175 CURVE SMOOTH",
"444.19 276.071 LINE",
"426.399 263.477 LINE SMOOTH",
"401.426 245.789 OFFCURVE",
"347.792 232.449 OFFCURVE",
"301.639 232.449 CURVE SMOOTH",
"234.912 232.449 OFFCURVE",
"173.034 248.383 OFFCURVE",
"127.409 284.811 CURVE SMOOTH",
"74.675 326.914 OFFCURVE",
"46.8 393.006 OFFCURVE",
"46.8 468.133 CURVE SMOOTH",
"46.8 643.132 OFFCURVE",
"200.199 705.222 OFFCURVE",
"331.563 705.221 CURVE SMOOTH"
);
},
{
closed = 1;
nodes = (
"364.525 349.883 OFFCURVE",
"480.413 358.339 OFFCURVE",
"480.413 467.141 CURVE SMOOTH",
"480.413 575.939 OFFCURVE",
"364.525 584.395 OFFCURVE",
"329.005 584.395 CURVE SMOOTH",
"293.486 584.395 OFFCURVE",
"177.593 575.939 OFFCURVE",
"177.593 467.141 CURVE SMOOTH",
"177.593 358.339 OFFCURVE",
"293.486 349.883 OFFCURVE",
"329.005 349.883 CURVE SMOOTH"
);
}
);
width = 677;
}
);
unicode = 0039;
},
{
glyphname = period;
layers = (
{
layerId = "9e608202-4e31-4786-af01-fb7a634e06d8";
paths = (
{
closed = 1;
nodes = (
"78.179 -3.512 OFFCURVE",
"46.8 27.862 OFFCURVE",
"46.8 74.566 CURVE SMOOTH",
"46.8 121.271 OFFCURVE",
"78.179 152.649 OFFCURVE",
"124.883 152.649 CURVE SMOOTH",
"171.587 152.649 OFFCURVE",
"202.962 121.271 OFFCURVE",
"202.962 74.566 CURVE SMOOTH",
"202.962 27.862 OFFCURVE",
"171.587 -3.512 OFFCURVE",
"124.883 -3.512 CURVE SMOOTH"
);
}
);
width = 281;
}
);
unicode = 002E;
},
{
glyphname = comma;
layers = (
{
layerId = "9e608202-4e31-4786-af01-fb7a634e06d8";
paths = (
{
closed = 1;
nodes = (
"53.923 -150.428 LINE",
"79.407 11.185 LINE",
"59.464 22.581 OFFCURVE",
"46.8 50.608 OFFCURVE",
"46.8 74.449 CURVE SMOOTH",
"46.8 121.15 OFFCURVE",
"78.178 152.528 OFFCURVE",
"124.88 152.528 CURVE SMOOTH",
"171.583 152.528 OFFCURVE",
"202.956 121.15 OFFCURVE",
"202.956 74.449 CURVE",
"202.956 66.584 OFFCURVE",
"201.928 58.885 OFFCURVE",
"199.817 50.911 CURVE",
"144.458 -150.427 LINE"
);
}
);
width = 281;
}
);
unicode = 002C;
},
{
glyphname = hyphen;
layers = (
{
layerId = "9e608202-4e31-4786-af01-fb7a634e06d8";
paths = (
{
closed = 1;
nodes = (
"78. 211.902 LINE",
"78. 334.069 LINE",
"385.338 334.069 LINE",
"385.338 211.902 LINE"
);
}
);
width = 463;
}
);
unicode = 002D;
},
{
glyphname = plus;
layers = (
{
layerId = "9e608202-4e31-4786-af01-fb7a634e06d8";
paths = (
{
closed = 1;
nodes = (
"234.267 120.322 LINE",
"234.267 276.589 LINE",
"78. 276.589 LINE",
"78. 402.695 LINE",
"234.267 402.695 LINE",
"234.267 558.96 LINE",
"360.372 558.96 LINE",
"360.372 402.695 LINE",
"516.638 402.695 LINE",
"516.638 276.589 LINE",
"360.372 276.589 LINE",
"360.372 120.322 LINE"
);
}
);
width = 595;
}
);
unicode = 002B;
},
{
glyphname = asterisk;
layers = (
{
layerId = "9e608202-4e31-4786-af01-fb7a634e06d8";
paths = (
{
closed = 1;
nodes = (
"201.031 395.474 LINE",
"201.031 476.312 LINE",
"135.897 428.436 LINE",
"78. 507.189 LINE",
"167.38 572.884 LINE",
"78. 638.578 LINE",
"135.897 717.333 LINE",
"201.031 669.455 LINE",
"201.031 750.294 LINE",
"298.772 750.294 LINE",
"298.772 669.455 LINE",
"363.906 717.333 LINE",
"421.803 638.578 LINE",
"332.423 572.884 LINE",
"421.803 507.189 LINE",
"363.906 428.436 LINE",
"298.772 476.312 LINE",
"298.772 395.474 LINE"
);
}
);
width = 500;
}
);
unicode = 002A;
},
{
glyphname = asciicircum;
layers = (
{
layerId = "9e608202-4e31-4786-af01-fb7a634e06d8";
paths = (
{
closed = 1;
nodes = (
"440.435 120.281 LINE",
"323.45 393.463 LINE",
"210.29 120.281 LINE",
"78. 120.281 LINE",
"273.537 570.271 LINE",
"372.369 570.271 LINE",
"567.905 120.281 LINE"
);
}
);
width = 646;
}
);
unicode = 005E;
},
{
glyphname = tilde;
layers = (
{
components = (
{
name = space;
transform = "{1, 0, 0, 1, -59.652, 0}";
alignment = -1;
}
);
layerId = "9e608202-4e31-4786-af01-fb7a634e06d8";
paths = (
{
closed = 1;
nodes = (
"254.423 722.345 LINE",
"254.423 722.345 OFFCURVE",
"262.906 678.25 OFFCURVE",
"233.52 679.387 CURVE SMOOTH",
"202.369 680.592 OFFCURVE",
"176.997 724.798 OFFCURVE",
"121.191 724.798 CURVE SMOOTH",
"59.576 720.687 OFFCURVE",
"37.108 657.127 OFFCURVE",
"50.556 611.803 CURVE",
"120.511 611.803 LINE",
"120.511 611.803 OFFCURVE",
"116.795 644.394 OFFCURVE",
"141.413 645.498 CURVE SMOOTH",
"172.771 646.412 OFFCURVE",
"196.135 598.934 OFFCURVE",
"256.576 605.573 CURVE SMOOTH",
"321.605 612.717 OFFCURVE",
"337.822 679.64 OFFCURVE",
"324.378 722.345 CURVE"
);
}
);
width = 376;
}
);
unicode = 02DC;
},
{
glyphname = slash;
layers = (
{
layerId = "9e608202-4e31-4786-af01-fb7a634e06d8";
paths = (
{
closed = 1;
nodes = (
"32. -115.669 LINE",
"364.607 834.661 LINE",
"495.484 834.661 LINE",
"162.872 -115.669 LINE"
);
}
);
width = 527;
}
);
unicode = 002F;
},
{
glyphname = backslash;
layers = (
{
layerId = "9e608202-4e31-4786-af01-fb7a634e06d8";
paths = (
{
closed = 1;
nodes = (
"365. -116.752 LINE",
"32. 834.661 LINE",
"163.017 834.661 LINE",
"496.017 -116.752 LINE"
);
}
);
width = 528;
}
);
unicode = 005C;
},
{
glyphname = colon;
layers = (
{
layerId = "9e608202-4e31-4786-af01-fb7a634e06d8";
paths = (
{
closed = 1;
nodes = (
"78.179 387.091 OFFCURVE",
"46.8 418.465 OFFCURVE",
"46.8 465.169 CURVE SMOOTH",
"46.8 511.874 OFFCURVE",
"78.179 543.252 OFFCURVE",
"124.883 543.252 CURVE SMOOTH",
"171.587 543.252 OFFCURVE",
"202.962 511.874 OFFCURVE",
"202.962 465.169 CURVE SMOOTH",
"202.962 418.465 OFFCURVE",
"171.587 387.091 OFFCURVE",
"124.883 387.091 CURVE SMOOTH"
);
},
{
closed = 1;
nodes = (
"78.261 -4.545 OFFCURVE",
"46.882 26.829 OFFCURVE",
"46.882 73.533 CURVE SMOOTH",
"46.882 120.237 OFFCURVE",
"78.261 151.616 OFFCURVE",
"124.966 151.616 CURVE SMOOTH",
"171.669 151.616 OFFCURVE",
"203.044 120.237 OFFCURVE",
"203.044 73.533 CURVE SMOOTH",
"203.044 26.829 OFFCURVE",
"171.669 -4.545 OFFCURVE",
"124.966 -4.545 CURVE SMOOTH"
);
}
);
width = 281;
}
);
unicode = 003A;
},
{
glyphname = semicolon;
layers = (
{
layerId = "9e608202-4e31-4786-af01-fb7a634e06d8";
paths = (
{
closed = 1;
nodes = (
"78.179 387.091 OFFCURVE",
"46.8 418.465 OFFCURVE",
"46.8 465.169 CURVE SMOOTH",
"46.8 511.874 OFFCURVE",
"78.179 543.252 OFFCURVE",
"124.883 543.252 CURVE SMOOTH",
"171.587 543.252 OFFCURVE",
"202.962 511.874 OFFCURVE",
"202.962 465.169 CURVE SMOOTH",
"202.962 418.465 OFFCURVE",
"171.587 387.091 OFFCURVE",
"124.883 387.091 CURVE SMOOTH"
);
},
{
closed = 1;
nodes = (
"53.923 -150.428 LINE",
"79.407 11.185 LINE",
"59.464 22.581 OFFCURVE",
"46.8 50.608 OFFCURVE",
"46.8 74.449 CURVE SMOOTH",
"46.8 121.15 OFFCURVE",
"78.178 152.528 OFFCURVE",
"124.88 152.528 CURVE SMOOTH",
"171.583 152.528 OFFCURVE",
"202.956 121.15 OFFCURVE",
"202.956 74.449 CURVE",
"202.956 66.584 OFFCURVE",
"201.928 58.885 OFFCURVE",
"199.817 50.911 CURVE",
"144.458 -150.427 LINE"
);
}
);
width = 281;
}
);
unicode = 003B;
},
{
glyphname = less;
layers = (
{
layerId = "9e608202-4e31-4786-af01-fb7a634e06d8";
paths = (
{
closed = 1;
nodes = (
"78. 223.039 LINE",
"78. 322.632 LINE",
"528.286 519.705 LINE",
"528.286 386.376 LINE",
"254.922 272.334 LINE",
"528.286 154.444 LINE",
"528.286 25.967 LINE"
);
}
);
width = 606;
}
);
unicode = 003C;
},
{
glyphname = at;
layers = (
{
layerId = "9e608202-4e31-4786-af01-fb7a634e06d8";
paths = (
{
closed = 1;
nodes = (
"246.694 740.993 OFFCURVE",
"78. 572.309 OFFCURVE",
"78. 289.752 CURVE SMOOTH",
"78. 7.2 OFFCURVE",
"246.694 -161.484 OFFCURVE",
"529.241 -161.484 CURVE SMOOTH",
"608.48 -161.484 OFFCURVE",
"679.99 -147.939 OFFCURVE",
"741.807 -121.215 CURVE SMOOTH",
"765.933 -110.789 LINE",
"715.677 -18.041 LINE",
"695.663 -26.328 LINE SMOOTH",
"647.846 -46.146 OFFCURVE",
"591.844 -56.194 OFFCURVE",
"529.241 -56.194 CURVE SMOOTH",
"419.337 -56.194 OFFCURVE",
"330.479 -25.424 OFFCURVE",
"272.267 32.778 CURVE SMOOTH",
"214.055 90.98 OFFCURVE",
"183.297 179.842 OFFCURVE",
"183.297 289.752 CURVE SMOOTH",
"183.297 399.676 OFFCURVE",
"214.055 488.54 OFFCURVE",
"272.267 546.737 CURVE SMOOTH",
"330.458 604.932 OFFCURVE",
"419.326 635.698 OFFCURVE",
"529.241 635.698 CURVE SMOOTH",
"639.156 635.698 OFFCURVE",
"728.024 604.932 OFFCURVE",
"786.226 546.731 CURVE SMOOTH",
"844.428 488.529 OFFCURVE",
"875.187 399.667 OFFCURVE",
"875.187 289.752 CURVE SMOOTH",
"875.187 248.211 OFFCURVE",
"873.884 227.087 OFFCURVE",
"865.73 197.967 CURVE SMOOTH",
"843.206 117.517 OFFCURVE",
"786.525 123.42 OFFCURVE",
"786.525 123.42 CURVE",
"748.579 124.345 OFFCURVE",
"740.891 167.245 OFFCURVE",
"740.891 192.58 CURVE SMOOTH",
"740.891 516.439 LINE",
"652.301 516.439 LINE",
"645.962 484.714 LINE",
"610.283 507.559 OFFCURVE",
"565.617 519.451 OFFCURVE",
"514.407 519.451 CURVE SMOOTH",
"376.313 519.451 OFFCURVE",
"290.529 431.972 OFFCURVE",
"290.529 291.152 CURVE SMOOTH",
"290.529 150.33 OFFCURVE",
"376.313 62.851 OFFCURVE",
"514.407 62.851 CURVE SMOOTH",
"564.541 62.851 OFFCURVE",
"625.44 72.985 OFFCURVE",
"667.324 114.938 CURVE",
"678.651 75.635 OFFCURVE",
"702.746 40.806 OFFCURVE",
"750.417 29.071 CURVE SMOOTH",
"823.129 11.174 OFFCURVE",
"882.039 50.038 OFFCURVE",
"882.039 50.038 CURVE",
"971.727 110.608 OFFCURVE",
"980.482 240.436 OFFCURVE",
"980.482 289.752 CURVE SMOOTH",
"980.482 572.309 OFFCURVE",
"811.788 740.993 OFFCURVE",
"529.241 740.993 CURVE SMOOTH"
);
},
{
closed = 1;
nodes = (
"437.092 165.127 OFFCURVE",
"397.356 206.35 OFFCURVE",
"397.356 291.152 CURVE SMOOTH",
"397.356 375.954 OFFCURVE",
"437.092 417.178 OFFCURVE",
"518.829 417.178 CURVE SMOOTH",
"600.565 417.178 OFFCURVE",
"640.298 375.954 OFFCURVE",
"640.298 291.152 CURVE SMOOTH",
"640.298 206.35 OFFCURVE",
"600.565 165.127 OFFCURVE",
"518.829 165.127 CURVE SMOOTH"
);
}
);
width = 1058;
}
);
unicode = 0040;
},
{
glyphname = equal;
layers = (
{
layerId = "9e608202-4e31-4786-af01-fb7a634e06d8";
paths = (
{
closed = 1;
nodes = (
"77.847 102.803 LINE",
"77.847 222.451 LINE",
"527.354 222.451 LINE",
"527.354 102.803 LINE"
);
},
{
closed = 1;
nodes = (
"77.847 320.373 LINE",
"77.847 440.021 LINE",
"527.354 440.021 LINE",
"527.354 320.373 LINE"
);
}
);
width = 605;
}
);
unicode = 003D;
},
{
glyphname = greater;
layers = (
{
layerId = "9e608202-4e31-4786-af01-fb7a634e06d8";
paths = (
{
closed = 1;
nodes = (
"528.279 223.034 LINE",
"528.279 322.627 LINE",
"77.997 519.702 LINE",
"77.997 386.371 LINE",
"351.361 272.329 LINE",
"77.997 154.439 LINE",
"77.997 25.97 LINE"
);
}
);
width = 606;
}
);
unicode = 003E;
},
{
glyphname = exclam;
layers = (
{
layerId = "9e608202-4e31-4786-af01-fb7a634e06d8";
paths = (
{
closed = 1;
nodes = (
"90.808 208.608 LINE",
"80.492 699.04 LINE",
"229.474 699.04 LINE",
"219.159 208.608 LINE"
);
},
{
closed = 1;
nodes = (
"108.887 -7.499 OFFCURVE",
"78. 23.386 OFFCURVE",
"78. 69.352 CURVE SMOOTH",
"78. 115.328 OFFCURVE",
"108.887 146.213 OFFCURVE",
"154.858 146.213 CURVE SMOOTH",
"200.828 146.213 OFFCURVE",
"231.711 115.328 OFFCURVE",
"231.711 69.352 CURVE SMOOTH",
"231.711 23.386 OFFCURVE",
"200.828 -7.499 OFFCURVE",
"154.858 -7.499 CURVE SMOOTH"
);
}
);
width = 310;
}
);
unicode = 0021;
},
{
glyphname = question;
layers = (
{
layerId = "52995f45-4616-4878-aa87-42a34ae27e1a";
name = Regular;
paths = (
{
closed = 1;
nodes = (
"174.437 705.008 OFFCURVE",
"117.585 666.608 OFFCURVE",
"87.124 634.394 CURVE SMOOTH",
"46.167 591.08 OFFCURVE",
"33.044 539.594 OFFCURVE",
"34.32 504.91 CURVE",
"161.885 504.91 LINE",
"166.158 576.006 OFFCURVE",
"238.041 584.808 OFFCURVE",
"274.207 582.106 CURVE",
"325.411 581.959 OFFCURVE",
"352.658 561.016 OFFCURVE",
"362.498 536.324 CURVE",
"369.129 515.431 OFFCURVE",
"381.492 473.646 OFFCURVE",
"321.047 429.755 CURVE SMOOTH",
"275.269 388.347 OFFCURVE",
"197.721 336.991 OFFCURVE",
"197.721 246.714 CURVE SMOOTH",
"197.721 207.449 LINE",
"325.55 207.449 LINE",
"325.55 254.884 OFFCURVE",
"326.411 272.316 OFFCURVE",
"376.121 314.753 CURVE",
"446.321 367.534 OFFCURVE",
"496.402 408.119 OFFCURVE",
"505.67 495. CURVE",
"517.295 634.394 OFFCURVE",
"399.537 705.007 OFFCURVE",
"272.282 705.008 CURVE"
);
},
{
closed = 1;
nodes = (
"313.252 -7.499 OFFCURVE",
"344.135 23.386 OFFCURVE",
"344.135 69.352 CURVE SMOOTH",
"344.135 115.328 OFFCURVE",
"313.252 146.213 OFFCURVE",
"267.282 146.213 CURVE SMOOTH",
"221.311 146.213 OFFCURVE",
"190.424 115.328 OFFCURVE",
"190.424 69.352 CURVE SMOOTH",
"190.424 23.386 OFFCURVE",
"221.311 -7.499 OFFCURVE",
"267.282 -7.499 CURVE SMOOTH"
);
}
);
width = 544;
}
);
unicode = 003F;
},
{
glyphname = quotesingle;
layers = (
{
layerId = "9e608202-4e31-4786-af01-fb7a634e06d8";
paths = (
{
closed = 1;
nodes = (
"55.185 450.923 LINE",
"46.8 700. LINE",
"173.4 700. LINE",
"165.015 450.923 LINE"
);
}
);
width = 220;
}
);
unicode = 0027;
},
{
glyphname = quotedbl;
layers = (
{
layerId = "9e608202-4e31-4786-af01-fb7a634e06d8";
paths = (
{
closed = 1;
nodes = (
"55.185 450.918 LINE",
"46.8 699.991 LINE",
"173.399 699.991 LINE",
"165.014 450.918 LINE"
);
},
{
closed = 1;
nodes = (
"244.407 450.918 LINE",
"236.022 699.991 LINE",
"362.621 699.991 LINE",
"354.236 450.918 LINE"
);
}
);
width = 409;
}
);
unicode = 0022;
},
{
glyphname = numbersign;
layers = (
{
layerId = "9e608202-4e31-4786-af01-fb7a634e06d8";
paths = (
{
closed = 1;
nodes = (
"424.291 -0.04 LINE",
"444.994 169.588 LINE",
"319.81 169.588 LINE",
"299.111 -0.04 LINE",
"181.101 -0.04 LINE",
"201.799 169.588 LINE",
"78. 169.588 LINE",
"92.342 287.121 LINE",
"216.141 287.121 LINE",
"231.479 412.782 LINE",
"107.68 412.782 LINE",
"122.022 530.312 LINE",
"245.821 530.312 LINE",
"266.52 699.939 LINE",
"384.531 699.939 LINE",
"363.832 530.312 LINE",
"489.011 530.312 LINE",
"509.715 699.939 LINE",
"627.726 699.939 LINE",
"607.023 530.312 LINE",
"730.822 530.312 LINE",
"716.48 412.782 LINE",
"592.681 412.782 LINE",
"577.343 287.121 LINE",
"701.142 287.121 LINE",
"686.8 169.588 LINE",
"563.001 169.588 LINE",
"542.302 -0.04 LINE"
);
},
{
closed = 1;
nodes = (
"459.336 287.121 LINE",
"474.67 412.782 LINE",
"349.49 412.782 LINE",
"334.152 287.121 LINE"
);
}
);
width = 809;
}
);
unicode = 0023;
},
{
glyphname = dollar;
layers = (
{
layerId = "9e608202-4e31-4786-af01-fb7a634e06d8";
paths = (
{
closed = 1;
nodes = (
"678.834 306.366 OFFCURVE",
"603.5 371.896 OFFCURVE",
"433.486 401.835 CURVE",
"433.486 573.553 LINE",
"464.386 567.157 OFFCURVE",
"486.776 555.342 OFFCURVE",
"502.951 537.01 CURVE",
"515.126 523.214 OFFCURVE",
"520.561 508.402 OFFCURVE",
"522.957 497.087 CURVE",
"647.918 497.087 LINE",
"636.454 602.026 OFFCURVE",
"554.745 674.331 OFFCURVE",
"433.486 690.798 CURVE",
"433.486 816.226 LINE",
"317.684 816.226 LINE",
"317.684 690.491 LINE",
"193.03 674.136 OFFCURVE",
"113.747 606.447 OFFCURVE",
"106.442 505.568 CURVE SMOOTH",
"96.305 366.165 OFFCURVE",
"228.313 318.864 OFFCURVE",
"317.684 300.412 CURVE",
"317.684 118.32 LINE",
"249.504 134.243 OFFCURVE",
"223.051 172.127 OFFCURVE",
"213.455 193.463 CURVE",
"78. 193.463 LINE",
"85.077 144.819 OFFCURVE",
"110.121 100.503 OFFCURVE",
"149.006 68.084 CURVE SMOOTH",
"191.073 33.022 OFFCURVE",
"249.515 9.803 OFFCURVE",
"317.684 0.422 CURVE",
"317.684 -117. LINE",
"433.486 -117. LINE",
"433.486 -2.346 LINE",
"598.247 11.658 OFFCURVE",
"674.483 102.273 OFFCURVE",
"676.385 192.21 CURVE SMOOTH"
);
},
{
closed = 1;
nodes = (
"230.804 550.559 OFFCURVE",
"274.543 575.571 OFFCURVE",
"317.684 575.571 CURVE",
"317.684 422.801 LINE",
"237.857 444.965 OFFCURVE",
"226.261 477.452 OFFCURVE",
"226.797 505.341 CURVE"
);
},
{
closed = 1;
nodes = (
"505.233 125.886 OFFCURVE",
"475.743 116.329 OFFCURVE",
"433.486 112.65 CURVE",
"433.486 280.317 LINE",
"487.865 268.099 OFFCURVE",
"515.073 253.554 OFFCURVE",
"528.574 242.294 CURVE",
"543.829 229.565 OFFCURVE",
"551.902 211.608 OFFCURVE",
"551.299 191.737 CURVE",
"550.72 172.229 OFFCURVE",
"541.404 152.544 OFFCURVE",
"528.116 142.745 CURVE"
);
}
);
width = 754;
}
);
unicode = 0024;
},
{
glyphname = Euro;
layers = (
{
layerId = "9e608202-4e31-4786-af01-fb7a634e06d8";
paths = (
{
closed = 1;
nodes = (
"392.739 113.63 OFFCURVE",
"325.942 151.104 OFFCURVE",
"294.127 225.299 CURVE",
"493.611 225.299 LINE",
"493.611 315.119 LINE",
"273.86 315.119 LINE",
"270.323 338.579 OFFCURVE",
"270.323 360.213 OFFCURVE",
"273.86 381.922 CURVE",
"493.611 381.922 LINE",
"493.611 471.743 LINE",
"294.127 471.743 LINE",
"325.942 545.942 OFFCURVE",
"392.739 583.415 OFFCURVE",
"493.862 583.415 CURVE SMOOTH",
"599.132 583.415 OFFCURVE",
"664.622 544.292 OFFCURVE",
"693.936 463.852 CURVE",
"826.17 463.852 LINE",
"822.959 475.713 LINE",
"783.107 622.875 OFFCURVE",
"665.731 703.92 OFFCURVE",
"492.456 703.92 CURVE SMOOTH",
"318.484 703.92 OFFCURVE",
"200.583 619.156 OFFCURVE",
"160.082 471.743 CURVE",
"32. 471.743 LINE",
"32. 381.922 LINE",
"145.587 381.922 LINE",
"144.203 359.623 OFFCURVE",
"144.205 337.418 OFFCURVE",
"145.585 315.12 CURVE",
"32.001 315.12 LINE",
"32.001 225.3 LINE",
"160.079 225.3 LINE",
"200.579 77.887 OFFCURVE",
"318.483 -6.874 OFFCURVE",
"492.456 -6.874 CURVE SMOOTH",
"665.731 -6.874 OFFCURVE",
"783.107 74.171 OFFCURVE",
"822.959 221.333 CURVE",
"826.17 233.184 LINE",
"693.936 233.184 LINE",
"664.633 152.755 OFFCURVE",
"599.143 113.631 OFFCURVE",
"493.862 113.63 CURVE SMOOTH"
);
}
);
width = 904;
}
);
unicode = 20AC;
},
{
glyphname = percent;
layers = (
{
layerId = "9e608202-4e31-4786-af01-fb7a634e06d8";
paths = (
{
closed = 1;
nodes = (
"148.571 0.319 LINE",
"624.49 700. LINE",
"759.099 700.123 LINE",
"282.342 0.319 LINE"
);
},
{
closed = 1;
nodes = (
"138.519 348.18 OFFCURVE",
"78. 416.803 OFFCURVE",
"78. 527.268 CURVE SMOOTH",
"78. 637.732 OFFCURVE",
"138.519 706.355 OFFCURVE",
"235.939 706.355 CURVE SMOOTH",
"333.363 706.355 OFFCURVE",
"393.883 637.732 OFFCURVE",
"393.883 527.268 CURVE SMOOTH",
"393.883 416.803 OFFCURVE",
"333.363 348.18 OFFCURVE",
"235.939 348.18 CURVE SMOOTH"
);
},
{
closed = 1;
nodes = (
"219.969 609.761 OFFCURVE",
"177.531 609.761 OFFCURVE",
"177.531 527.268 CURVE SMOOTH",
"177.531 444.774 OFFCURVE",
"219.969 444.774 OFFCURVE",
"235.943 444.774 CURVE",
"251.917 444.774 OFFCURVE",
"294.351 444.774 OFFCURVE",
"294.351 527.268 CURVE SMOOTH",
"294.351 609.761 OFFCURVE",
"251.917 609.761 OFFCURVE",
"235.943 609.761 CURVE"
);
},
{
closed = 1;
nodes = (
"573.901 -4.925 OFFCURVE",
"513.382 63.698 OFFCURVE",
"513.382 174.163 CURVE SMOOTH",
"513.382 284.627 OFFCURVE",
"573.901 353.25 OFFCURVE",
"671.321 353.25 CURVE SMOOTH",
"768.745 353.25 OFFCURVE",
"829.264 284.627 OFFCURVE",
"829.264 174.163 CURVE SMOOTH",
"829.264 63.698 OFFCURVE",
"768.745 -4.925 OFFCURVE",
"671.321 -4.925 CURVE SMOOTH"
);
},
{
closed = 1;
nodes = (
"655.351 256.657 OFFCURVE",
"612.913 256.657 OFFCURVE",
"612.913 174.163 CURVE SMOOTH",
"612.913 91.669 OFFCURVE",
"655.351 91.669 OFFCURVE",
"671.325 91.669 CURVE",
"687.298 91.669 OFFCURVE",
"729.732 91.669 OFFCURVE",
"729.732 174.163 CURVE SMOOTH",
"729.732 256.657 OFFCURVE",
"687.298 256.657 OFFCURVE",
"671.325 256.657 CURVE"
);
}
);
width = 907;
}
);
unicode = 0025;
},
{
glyphname = ampersand;
layers = (
{
layerId = "9e608202-4e31-4786-af01-fb7a634e06d8";
paths = (
{
closed = 1;
nodes = (
"675.166 228.698 OFFCURVE",
"673.188 308.52 OFFCURVE",
"673.188 308.52 CURVE",
"552.53 308.392 LINE",
"552.53 308.392 OFFCURVE",
"550.306 274.102 OFFCURVE",
"534.91 252.518 CURVE",
"470.151 315.673 OFFCURVE",
"332.984 454.732 OFFCURVE",
"286.964 528.363 CURVE SMOOTH",
"264.263 564.686 OFFCURVE",
"307.376 586.114 OFFCURVE",
"346.857 586.114 CURVE SMOOTH",
"437.365 586.114 OFFCURVE",
"412.393 527.228 OFFCURVE",
"412.393 527.228 CURVE",
"534.209 527.228 LINE",
"546.099 572.976 OFFCURVE",
"539.369 615.354 OFFCURVE",
"515.248 646.564 CURVE SMOOTH",
"484.469 686.386 OFFCURVE",
"428.397 706.574 OFFCURVE",
"348.579 706.574 CURVE SMOOTH",
"268.307 706.574 OFFCURVE",
"211.474 684.87 OFFCURVE",
"179.661 642.068 CURVE SMOOTH",
"153.076 606.302 OFFCURVE",
"146.835 558.466 OFFCURVE",
"162.06 507.307 CURVE",
"163.909 500.278 OFFCURVE",
"172.925 470.887 OFFCURVE",
"203.288 429.471 CURVE",
"88.098 358.293 OFFCURVE",
"77.025 252.518 OFFCURVE",
"78.061 207.539 CURVE",
"78.88 172.204 OFFCURVE",
"95.556 -4.067 OFFCURVE",
"344.247 -4.067 CURVE",
"418.638 -4.067 OFFCURVE",
"492.655 14.976 OFFCURVE",
"552.278 61.763 CURVE",
"606.889 9.917 OFFCURVE",
"643.048 0.342 OFFCURVE",
"666.313 0.342 CURVE",
"701.657 0.365 LINE",
"701.657 125.973 LINE",
"701.657 125.973 OFFCURVE",
"667.788 122. OFFCURVE",
"628.89 156.884 CURVE"
);
},
{
closed = 1;
nodes = (
"296.376 123.262 OFFCURVE",
"206.607 135.537 OFFCURVE",
"204.561 217.751 CURVE SMOOTH",
"203.155 274.345 OFFCURVE",
"251.522 315.463 OFFCURVE",
"288.487 335.701 CURVE",
"463.544 153.715 LINE",
"440.203 132.783 OFFCURVE",
"396.502 123.262 OFFCURVE",
"349.705 123.262 CURVE SMOOTH"
);
}
);
width = 780;
}
);
unicode = 0026;
},
{
glyphname = parenleft;
layers = (
{
layerId = "9e608202-4e31-4786-af01-fb7a634e06d8";
paths = (
{
closed = 1;
nodes = (
"179.344 730.135 LINE",
"-81.848 257.845 OFFCURVE",
"182.221 -149.188 OFFCURVE",
"182.221 -149.188 CURVE",
"299.735 -149.188 LINE",
"51.315 290.473 OFFCURVE",
"270.6 681.671 OFFCURVE",
"296.803 730.135 CURVE"
);
}
);
width = 378;
}
);
unicode = 0028;
},
{
glyphname = parenright;
layers = (
{
layerId = "9e608202-4e31-4786-af01-fb7a634e06d8";
paths = (
{
closed = 1;
nodes = (
"198.392 730.136 LINE",
"459.584 257.845 OFFCURVE",
"195.515 -149.188 OFFCURVE",
"195.515 -149.188 CURVE",
"78. -149.188 LINE",
"326.42 290.474 OFFCURVE",
"107.136 681.671 OFFCURVE",
"80.933 730.136 CURVE"
);
}
);
width = 378;
}
);
unicode = 0029;
},
{
glyphname = braceleft;
layers = (
{
layerId = "9e608202-4e31-4786-af01-fb7a634e06d8";
paths = (
{
closed = 1;
nodes = (
"275.481 -148.376 LINE SMOOTH",
"228.022 -148.376 OFFCURVE",
"190.496 -134.098 OFFCURVE",
"163.94 -105.931 CURVE SMOOTH",
"125.287 -64.933 OFFCURVE",
"125.571 -8.995 OFFCURVE",
"125.886 0.014 CURVE",
"125.886 202.078 LINE SMOOTH",
"125.886 221.662 OFFCURVE",
"117.678 235.474 OFFCURVE",
"98.183 235.474 CURVE",
"64 235.466 LINE",
"64 346.206 LINE",
"99.029 346.18 LINE",
"120.855 346.18 OFFCURVE",
"125.886 353.478 OFFCURVE",
"125.886 379.594 CURVE SMOOTH",
"125.886 581.656 LINE",
"125.571 590.665 OFFCURVE",
"125.288 646.604 OFFCURVE",
"163.94 687.601 CURVE SMOOTH",
"190.497 715.769 OFFCURVE",
"228.022 730.047 OFFCURVE",
"275.481 730.047 CURVE SMOOTH",
"337.588 730.047 LINE",
"337.588 618.97 LINE",
"281.853 619.064 LINE",
"247.498 619.051 OFFCURVE",
"247.498 588.723 OFFCURVE",
"247.498 578.757 CURVE",
"247.498 376.881 LINE SMOOTH",
"247.498 342.361 OFFCURVE",
"238.378 315.363 OFFCURVE",
"208.544 290.835 CURVE",
"239.965 272.483 OFFCURVE",
"247.498 240.72 OFFCURVE",
"247.498 204.789 CURVE SMOOTH",
"247.498 2.914 LINE",
"247.498 -7.051 OFFCURVE",
"247.498 -37.38 OFFCURVE",
"281.426 -37.38 CURVE",
"337.588 -37.298 LINE",
"337.588 -148.376 LINE"
);
}
);
width = 416;
}
);
unicode = 007B;
},
{
glyphname = braceright;
layers = (
{
layerId = "9e608202-4e31-4786-af01-fb7a634e06d8";
paths = (
{
closed = 1;
nodes = (
"140.107 -148.376 LINE SMOOTH",
"187.566 -148.376 OFFCURVE",
"225.092 -134.098 OFFCURVE",
"251.648 -105.931 CURVE SMOOTH",
"290.301 -64.933 OFFCURVE",
"290.017 -8.995 OFFCURVE",
"289.702 0.014 CURVE",
"289.702 202.078 LINE SMOOTH",
"289.702 221.662 OFFCURVE",
"297.91 235.474 OFFCURVE",
"317.405 235.474 CURVE",
"351.588 235.466 LINE",
"351.588 346.206 LINE",
"316.559 346.18 LINE",
"294.733 346.18 OFFCURVE",
"289.702 353.478 OFFCURVE",
"289.702 379.594 CURVE SMOOTH",
"289.702 581.656 LINE",
"290.017 590.665 OFFCURVE",
"290.3 646.604 OFFCURVE",
"251.648 687.601 CURVE SMOOTH",
"225.091 715.769 OFFCURVE",
"187.566 730.047 OFFCURVE",
"140.107 730.047 CURVE SMOOTH",
"78 730.047 LINE",
"78 618.97 LINE",
"133.735 619.064 LINE",
"168.09 619.051 OFFCURVE",
"168.09 588.723 OFFCURVE",
"168.09 578.758 CURVE",
"168.09 376.882 LINE SMOOTH",
"168.09 342.361 OFFCURVE",
"177.21 315.363 OFFCURVE",
"207.044 290.835 CURVE",
"175.623 272.483 OFFCURVE",
"168.09 240.72 OFFCURVE",
"168.09 204.789 CURVE SMOOTH",
"168.09 2.914 LINE",
"168.09 -7.051 OFFCURVE",
"168.09 -37.38 OFFCURVE",
"134.162 -37.38 CURVE",
"78 -37.298 LINE",
"78 -148.376 LINE"
);
}
);
width = 416;
}
);
unicode = 007D;
},
{
glyphname = bar;
layers = (
{
layerId = "9e608202-4e31-4786-af01-fb7a634e06d8";
paths = (
{
closed = 1;
nodes = (
"92 -149.242 LINE",
"92 729.098 LINE",
"209.192 729.098 LINE",
"209.192 -149.242 LINE"
);
}
);
width = 301;
}
);
unicode = 007C;
},
{
glyphname = bracketleft;
layers = (
{
layerId = "9e608202-4e31-4786-af01-fb7a634e06d8";
paths = (
{
closed = 1;
nodes = (
"92 -149.179 LINE",
"92 730.126 LINE",
"311.784 730.126 LINE",
"311.784 620.122 LINE",
"213.533 620.122 LINE",
"213.533 -39.18 LINE",
"311.784 -39.18 LINE",
"311.784 -149.179 LINE"
);
}
);
width = 376;
}
);
unicode = 005B;
},
{
glyphname = bracketright;
layers = (
{
layerId = "9e608202-4e31-4786-af01-fb7a634e06d8";
paths = (
{
closed = 1;
nodes = (
"283.785 -149.179 LINE",
"283.785 730.126 LINE",
"64. 730.126 LINE",
"64. 620.122 LINE",
"162.252 620.122 LINE",
"162.252 -39.18 LINE",
"64. -39.18 LINE",
"64. -149.179 LINE"
);
}
);
width = 376;
}
);
unicode = 005D;
},
{
glyphname = quoteleft;
layers = (
{
layerId = "9e608202-4e31-4786-af01-fb7a634e06d8";
paths = (
{
closed = 1;
nodes = (
"227.034 729.938 LINE",
"201.55 568.325 LINE",
"221.494 556.93 OFFCURVE",
"234.158 528.911 OFFCURVE",
"234.158 505.066 CURVE SMOOTH",
"234.158 458.369 OFFCURVE",
"202.779 426.983 OFFCURVE",
"156.077 426.983 CURVE SMOOTH",
"109.374 426.983 OFFCURVE",
"78. 458.369 OFFCURVE",
"78. 505.066 CURVE",
"78. 512.929 OFFCURVE",
"79.033 520.625 OFFCURVE",
"81.141 528.601 CURVE",
"136.498 729.938 LINE"
);
}
);
width = 299;
}
);
unicode = 2018;
},
{
glyphname = quoteright;
layers = (
{
layerId = "9e608202-4e31-4786-af01-fb7a634e06d8";
paths = (
{
closed = 1;
nodes = (
"53.923 426.98 LINE",
"79.408 588.593 LINE",
"59.464 599.988 OFFCURVE",
"46.8 628.007 OFFCURVE",
"46.8 651.852 CURVE SMOOTH",
"46.8 698.549 OFFCURVE",
"78.178 729.935 OFFCURVE",
"124.881 729.935 CURVE SMOOTH",
"171.583 729.935 OFFCURVE",
"202.958 698.549 OFFCURVE",
"202.958 651.852 CURVE",
"202.958 643.989 OFFCURVE",
"201.924 636.293 OFFCURVE",
"199.817 628.317 CURVE",
"144.46 426.98 LINE"
);
}
);
width = 281;
}
);
unicode = 2019;
},
{
glyphname = quotedblleft;
layers = (
{
layerId = "9e608202-4e31-4786-af01-fb7a634e06d8";
paths = (
{
closed = 1;
nodes = (
"226.034 729.936 LINE",
"200.55 568.323 LINE",
"220.494 556.928 OFFCURVE",
"233.158 528.909 OFFCURVE",
"233.158 505.065 CURVE SMOOTH",
"233.158 458.367 OFFCURVE",
"201.779 426.981 OFFCURVE",
"155.077 426.981 CURVE SMOOTH",
"108.374 426.981 OFFCURVE",
"78. 458.367 OFFCURVE",
"78. 505.065 CURVE",
"78. 512.927 OFFCURVE",
"78.033 520.623 OFFCURVE",
"80.141 528.599 CURVE",
"135.498 729.936 LINE"
);
},
{
closed = 1;
nodes = (
"423.452 729.936 LINE",
"397.968 568.323 LINE",
"417.911 556.928 OFFCURVE",
"430.576 528.909 OFFCURVE",
"430.576 505.065 CURVE SMOOTH",
"430.576 458.367 OFFCURVE",
"399.197 426.981 OFFCURVE",
"352.495 426.981 CURVE SMOOTH",
"305.792 426.981 OFFCURVE",
"275.418 458.367 OFFCURVE",
"275.418 505.065 CURVE",
"275.418 512.927 OFFCURVE",
"275.451 520.623 OFFCURVE",
"277.559 528.599 CURVE",
"332.916 729.936 LINE"
);
}
);
width = 477;
}
);
unicode = 201C;
},
{
glyphname = quotedblright;
layers = (
{
layerId = "9e608202-4e31-4786-af01-fb7a634e06d8";
paths = (
{
closed = 1;
nodes = (
"251.333 426.98 LINE",
"276.818 588.593 LINE",
"256.874 599.988 OFFCURVE",
"244.21 628.007 OFFCURVE",
"244.21 651.852 CURVE SMOOTH",
"244.21 698.549 OFFCURVE",
"275.588 729.935 OFFCURVE",
"322.291 729.935 CURVE SMOOTH",
"368.993 729.935 OFFCURVE",
"399.365 698.549 OFFCURVE",
"399.365 651.852 CURVE",
"399.365 643.989 OFFCURVE",
"399.334 636.293 OFFCURVE",
"397.227 628.317 CURVE",
"341.87 426.98 LINE"
);
},
{
closed = 1;
nodes = (
"53.923 426.98 LINE",
"79.408 588.593 LINE",
"59.464 599.988 OFFCURVE",
"46.8 628.007 OFFCURVE",
"46.8 651.852 CURVE SMOOTH",
"46.8 698.549 OFFCURVE",
"78.178 729.935 OFFCURVE",
"124.881 729.935 CURVE SMOOTH",
"171.583 729.935 OFFCURVE",
"201.955 698.549 OFFCURVE",
"201.955 651.852 CURVE",
"201.955 643.989 OFFCURVE",
"201.924 636.293 OFFCURVE",
"199.817 628.317 CURVE",
"144.46 426.98 LINE"
);
}
);
width = 477;
}
);
unicode = 201D;
},
{
glyphname = quotesinglbase;
layers = (
{
layerId = "9e608202-4e31-4786-af01-fb7a634e06d8";
paths = (
{
closed = 1;
nodes = (
"53.925 -150.416 LINE",
"79.409 11.197 LINE",
"59.465 22.592 OFFCURVE",
"46.801 50.611 OFFCURVE",
"46.801 74.456 CURVE SMOOTH",
"46.801 121.153 OFFCURVE",
"78.179 152.539 OFFCURVE",
"124.882 152.539 CURVE SMOOTH",
"171.585 152.539 OFFCURVE",
"202.959 121.153 OFFCURVE",
"202.959 74.456 CURVE",
"202.959 66.593 OFFCURVE",
"201.926 58.897 OFFCURVE",
"199.818 50.921 CURVE",
"144.461 -150.416 LINE"
);
}
);
width = 281;
}
);
unicode = 201A;
},
{
glyphname = quotedblbase;
layers = (
{
layerId = "9e608202-4e31-4786-af01-fb7a634e06d8";
paths = (
{
closed = 1;
nodes = (
"251.333 -149.514 LINE",
"276.818 12.098 LINE",
"256.874 23.494 OFFCURVE",
"244.21 51.512 OFFCURVE",
"244.21 75.357 CURVE SMOOTH",
"244.21 122.054 OFFCURVE",
"275.588 153.441 OFFCURVE",
"322.291 153.441 CURVE SMOOTH",
"368.993 153.441 OFFCURVE",
"399.365 122.054 OFFCURVE",
"399.365 75.357 CURVE",
"399.365 67.495 OFFCURVE",
"399.334 59.798 OFFCURVE",
"397.227 51.822 CURVE",
"341.87 -149.514 LINE"
);
},
{
closed = 1;
nodes = (
"53.923 -149.514 LINE",
"79.408 12.098 LINE",
"59.464 23.494 OFFCURVE",
"46.8 51.512 OFFCURVE",
"46.8 75.357 CURVE SMOOTH",
"46.8 122.054 OFFCURVE",
"78.178 153.441 OFFCURVE",
"124.881 153.441 CURVE SMOOTH",
"171.583 153.441 OFFCURVE",
"201.955 122.054 OFFCURVE",
"201.955 75.357 CURVE",
"201.955 67.495 OFFCURVE",
"201.924 59.798 OFFCURVE",
"199.817 51.822 CURVE",
"144.46 -149.514 LINE"
);
}
);
width = 477;
}
);
unicode = 201E;
},
{
glyphname = bullet;
layers = (
{
layerId = "9e608202-4e31-4786-af01-fb7a634e06d8";
paths = (
{
closed = 1;
nodes = (
"122.407 176.994 OFFCURVE",
"78. 221.391 OFFCURVE",
"78. 290.109 CURVE SMOOTH",
"78. 358.838 OFFCURVE",
"122.407 403.235 OFFCURVE",
"191.126 403.235 CURVE SMOOTH",
"259.844 403.235 OFFCURVE",
"304.247 358.838 OFFCURVE",
"304.247 290.109 CURVE SMOOTH",
"304.247 221.391 OFFCURVE",
"259.844 176.994 OFFCURVE",
"191.126 176.994 CURVE SMOOTH"
);
}
);
width = 382;
}
);
unicode = 2022;
},
{
glyphname = underscore;
layers = (
{
layerId = "9e608202-4e31-4786-af01-fb7a634e06d8";
paths = (
{
closed = 1;
nodes = (
"64. -108.617 LINE",
"64. 0.392 LINE",
"583.835 0.392 LINE",
"583.835 -108.617 LINE"
);
}
);
width = 648;
}
);
unicode = 005F;
},
{
glyphname = endash;
layers = (
{
layerId = "9e608202-4e31-4786-af01-fb7a634e06d8";
paths = (
{
closed = 1;
nodes = (
"64. 224.363 LINE",
"64.193 354.943 LINE",
"582.777 355.081 LINE",
"582.777 224.362 LINE"
);
}
);
width = 647;
}
);
unicode = 2013;
},
{
glyphname = emdash;
layers = (
{
layerId = "9e608202-4e31-4786-af01-fb7a634e06d8";
paths = (
{
closed = 1;
nodes = (
"64.005 224.359 LINE",
"64.201 354.941 LINE",
"1091.489 355.085 LINE",
"1091.489 224.359 LINE"
);
}
);
width = 1155;
}
);
unicode = 2014;
},
{
glyphname = macron;
layers = (
{
components = (
{
name = space;
transform = "{1, 0, 0, 1, -3.399, 0}";
alignment = -1;
}
);
layerId = "9e608202-4e31-4786-af01-fb7a634e06d8";
paths = (
{
closed = 1;
nodes = (
"64. 581.104 LINE",
"64. 689.95 LINE",
"382.891 689.95 LINE",
"382.891 581.104 LINE"
);
}
);
width = 447;
}
);
unicode = 00AF;
},
{
glyphname = logicalnot;
layers = (
{
layerId = "9e608202-4e31-4786-af01-fb7a634e06d8";
paths = (
{
closed = 1;
nodes = (
"394.224 64.179 LINE",
"394.224 214.162 LINE",
"64. 214.162 LINE",
"64. 329.719 LINE",
"513.526 329.719 LINE",
"513.526 64.179 LINE"
);
}
);
width = 578;
}
);
unicode = 00AC;
},
{
glyphname = trademark;
layers = (
{
layerId = "9e608202-4e31-4786-af01-fb7a634e06d8";
paths = (
{
closed = 1;
nodes = (
"198.49 289.138 LINE",
"198.49 623.75 LINE",
"64. 623.75 LINE",
"64. 700.017 LINE",
"415.23 700.017 LINE",
"415.23 623.75 LINE",
"280.733 623.75 LINE",
"280.733 289.138 LINE"
);
},
{
closed = 1;
nodes = (
"825.215 289.046 LINE",
"825.215 506.254 LINE",
"709.647 289.046 LINE",
"664.877 289.046 LINE",
"549.309 506.254 LINE",
"549.309 289.046 LINE",
"467.074 289.046 LINE",
"467.074 700.014 LINE",
"544.207 700.014 LINE",
"687.262 419.863 LINE",
"830.319 700.014 LINE",
"907.447 700.014 LINE",
"907.447 289.046 LINE"
);
}
);
width = 971;
}
);
unicode = 2122;
},
{
glyphname = registered;
layers = (
{
layerId = "9e608202-4e31-4786-af01-fb7a634e06d8";
paths = (
{
closed = 1;
nodes = (
"196.636 -4.975 OFFCURVE",
"64. 127.665 OFFCURVE",
"64. 349.84 CURVE SMOOTH",
"64. 572.009 OFFCURVE",
"196.636 704.645 OFFCURVE",
"418.811 704.645 CURVE SMOOTH",
"640.985 704.645 OFFCURVE",
"773.622 572.009 OFFCURVE",
"773.622 349.84 CURVE SMOOTH",
"773.622 127.665 OFFCURVE",
"640.985 -4.975 OFFCURVE",
"418.811 -4.975 CURVE SMOOTH"
);
},
{
closed = 1;
nodes = (
"242.154 619.867 OFFCURVE",
"148.778 526.492 OFFCURVE",
"148.778 349.84 CURVE SMOOTH",
"148.778 173.188 OFFCURVE",
"242.154 79.812 OFFCURVE",
"418.811 79.812 CURVE SMOOTH",
"595.468 79.812 OFFCURVE",
"688.844 173.188 OFFCURVE",
"688.844 349.84 CURVE SMOOTH",
"688.844 526.492 OFFCURVE",
"595.468 619.867 OFFCURVE",
"418.811 619.867 CURVE SMOOTH"
);
},
{
closed = 1;
nodes = (
"509.024 170.483 LINE",
"421.492 293.517 LINE",
"355.869 293.517 LINE",
"355.869 170.562 LINE",
"272.146 170.562 LINE",
"272.146 543.034 LINE",
"430.797 543.064 LINE",
"557.793 543.064 OFFCURVE",
"576.757 464.753 OFFCURVE",
"576.757 418.074 CURVE SMOOTH",
"576.757 364.792 OFFCURVE",
"553.866 326.75 OFFCURVE",
"510.466 307.711 CURVE",
"608.003 170.483 LINE"
);
},
{
closed = 1;
nodes = (
"428.767 371.853 LINE SMOOTH",
"482.044 371.853 OFFCURVE",
"492.469 388.802 OFFCURVE",
"492.469 418.074 CURVE SMOOTH",
"492.469 447.35 OFFCURVE",
"482.044 464.299 OFFCURVE",
"428.767 464.299 CURVE SMOOTH",
"355.869 464.299 LINE",
"355.869 371.853 LINE"
);
}
);
width = 838;
}
);
unicode = 00AE;
},
{
glyphname = copyright;
layers = (
{
layerId = "9e608202-4e31-4786-af01-fb7a634e06d8";
paths = (
{
closed = 1;
nodes = (
"196.336 -3.653 OFFCURVE",
"64. 128.687 OFFCURVE",
"64. 350.357 CURVE SMOOTH",
"64. 572.023 OFFCURVE",
"196.336 704.359 OFFCURVE",
"418.006 704.359 CURVE SMOOTH",
"639.677 704.359 OFFCURVE",
"772.013 572.023 OFFCURVE",
"772.013 350.357 CURVE SMOOTH",
"772.013 128.687 OFFCURVE",
"639.677 -3.653 OFFCURVE",
"418.006 -3.653 CURVE SMOOTH"
);
},
{
closed = 1;
nodes = (
"241.75 619.773 OFFCURVE",
"148.586 526.609 OFFCURVE",
"148.586 350.357 CURVE SMOOTH",
"148.586 174.106 OFFCURVE",
"241.75 80.942 OFFCURVE",
"418.006 80.942 CURVE SMOOTH",
"594.263 80.942 OFFCURVE",
"687.427 174.106 OFFCURVE",
"687.427 350.357 CURVE SMOOTH",
"687.427 526.609 OFFCURVE",
"594.263 619.773 OFFCURVE",
"418.006 619.773 CURVE SMOOTH"
);
},
{
closed = 1;
nodes = (
"617.93 299.019 LINE",
"615.263 287.214 LINE",
"594.392 194.809 OFFCURVE",
"525.217 143.92 OFFCURVE",
"420.478 143.92 CURVE SMOOTH",
"295.635 143.92 OFFCURVE",
"218.084 223.02 OFFCURVE",
"218.084 350.353 CURVE SMOOTH",
"218.084 477.685 OFFCURVE",
"295.635 556.786 OFFCURVE",
"420.478 556.786 CURVE SMOOTH",
"525.217 556.786 OFFCURVE",
"594.392 505.897 OFFCURVE",
"615.263 413.492 CURVE",
"617.93 401.686 LINE",
"520.038 401.686 LINE",
"520.024 401.737 LINE",
"507.064 445.499 OFFCURVE",
"476.601 465.017 OFFCURVE",
"421.241 465.017 CURVE SMOOTH",
"349.034 465.017 OFFCURVE",
"313.932 427.51 OFFCURVE",
"313.932 350.353 CURVE SMOOTH",
"313.932 273.196 OFFCURVE",
"349.034 235.69 OFFCURVE",
"421.241 235.69 CURVE SMOOTH",
"476.601 235.69 OFFCURVE",
"507.064 255.208 OFFCURVE",
"520.024 298.969 CURVE",
"520.038 299.019 LINE"
);
}
);
width = 836;
}
);
unicode = 00A9;
},
{
glyphname = currency;
layers = (
{
layerId = "9e608202-4e31-4786-af01-fb7a634e06d8";
paths = (
{
closed = 1;
nodes = (
"78. 27.21 LINE",
"172.952 122.163 LINE",
"149.155 163.809 OFFCURVE",
"137.12 214.179 OFFCURVE",
"137.12 272.309 CURVE SMOOTH",
"137.12 330.434 OFFCURVE",
"149.155 380.803 OFFCURVE",
"172.952 422.455 CURVE",
"78. 517.408 LINE",
"162.426 601.838 LINE",
"257.378 506.885 LINE",
"299.03 530.678 OFFCURVE",
"349.394 542.713 OFFCURVE",
"407.525 542.713 CURVE SMOOTH",
"465.655 542.713 OFFCURVE",
"516.027 530.674 OFFCURVE",
"557.671 506.885 CURVE",
"652.624 601.838 LINE",
"737.058 517.408 LINE",
"642.105 422.455 LINE",
"665.894 380.817 OFFCURVE",
"677.928 330.443 OFFCURVE",
"677.928 272.309 CURVE SMOOTH",
"677.928 214.17 OFFCURVE",
"665.894 163.802 OFFCURVE",
"642.105 122.163 CURVE",
"737.058 27.21 LINE",
"652.624 -57.22 LINE",
"557.671 37.732 LINE",
"516.027 13.944 OFFCURVE",
"465.655 1.905 OFFCURVE",
"407.525 1.905 CURVE SMOOTH",
"349.394 1.905 OFFCURVE",
"299.03 13.939 OFFCURVE",
"257.378 37.732 CURVE",
"162.426 -57.22 LINE"
);
},
{
closed = 1;
nodes = (
"303.175 428.751 OFFCURVE",
"252.438 377.576 OFFCURVE",
"252.438 272.309 CURVE SMOOTH",
"252.438 167.037 OFFCURVE",
"303.175 115.862 OFFCURVE",
"407.534 115.862 CURVE SMOOTH",
"511.892 115.862 OFFCURVE",
"562.619 167.037 OFFCURVE",
"562.619 272.309 CURVE SMOOTH",
"562.619 377.576 OFFCURVE",
"511.892 428.751 OFFCURVE",
"407.534 428.751 CURVE SMOOTH"
);
}
);
width = 815;
}
);
unicode = 00A4;
},
{
glyphname = cent;
layers = (
{
layerId = "9e608202-4e31-4786-af01-fb7a634e06d8";
paths = (
{
closed = 1;
nodes = (
"405.048 433.526 LINE",
"451.535 422.928 OFFCURVE",
"480.256 396.266 OFFCURVE",
"495.527 350.798 CURVE",
"613.666 350.798 LINE",
"589.47 457.933 OFFCURVE",
"515.389 528.685 OFFCURVE",
"405.048 544.501 CURVE",
"405.048 656.023 LINE",
"286.541 656.023 LINE",
"286.541 542.676 LINE",
"156.366 518.632 OFFCURVE",
"78. 418.878 OFFCURVE",
"78. 270.316 CURVE SMOOTH",
"78. 121.754 OFFCURVE",
"156.366 22.005 OFFCURVE",
"286.541 -2.038 CURVE",
"286.541 -111.99 LINE",
"405.048 -111.99 LINE",
"405.048 -3.863 LINE",
"515.389 11.953 OFFCURVE",
"595.773 83.333 OFFCURVE",
"613.666 189.841 CURVE",
"495.527 189.841 LINE",
"480.293 144.362 OFFCURVE",
"451.576 117.696 OFFCURVE",
"405.048 107.105 CURVE"
);
},
{
closed = 1;
nodes = (
"193.133 357.563 OFFCURVE",
"223.909 410.185 OFFCURVE",
"286.541 429.892 CURVE",
"286.541 110.747 LINE",
"223.909 130.452 OFFCURVE",
"193.133 183.07 OFFCURVE",
"193.133 270.316 CURVE SMOOTH"
);
}
);
width = 692;
}
);
unicode = 00A2;
},
{
glyphname = sterling;
layers = (
{
layerId = "9e608202-4e31-4786-af01-fb7a634e06d8";
paths = (
{
closed = 1;
nodes = (
"271.096 124.195 LINE",
"281.342 133.905 OFFCURVE",
"280.678 152.295 OFFCURVE",
"280.631 160.025 CURVE",
"280.585 301.176 LINE",
"546.252 301.176 LINE",
"546.252 416.73 LINE",
"279.636 416.73 LINE",
"279.636 470.36 LINE",
"279.636 470.36 OFFCURVE",
"269.388 582.227 OFFCURVE",
"392.355 585.643 CURVE",
"392.355 585.643 OFFCURVE",
"502.484 595.037 OFFCURVE",
"511.892 513.057 CURVE",
"636.199 513.057 LINE",
"636.199 513.057 OFFCURVE",
"633.168 705.194 OFFCURVE",
"391.8 705.513 CURVE SMOOTH",
"151.534 705.829 OFFCURVE",
"153.251 488.293 OFFCURVE",
"153.251 477.191 CURVE",
"153.251 416.73 LINE",
"77.999 416.73 LINE",
"77.999 301.176 LINE",
"153.618 301.176 LINE",
"153.618 171.594 LINE",
"153.618 161.017 OFFCURVE",
"150.43 142.116 OFFCURVE",
"141.638 133.404 CURVE",
"139.343 131.135 OFFCURVE",
"132.369 124.222 OFFCURVE",
"110.185 124.195 CURVE SMOOTH",
"78.229 124.158 LINE",
"78.229 0.001 LINE",
"654.426 0.001 LINE",
"654.426 124.195 LINE"
);
}
);
width = 718;
}
);
unicode = 00A3;
},
{
glyphname = yen;
layers = (
{
layerId = "9e608202-4e31-4786-af01-fb7a634e06d8";
paths = (
{
closed = 1;
nodes = (
"318.298 0.01 LINE",
"318.298 92.981 LINE",
"155.651 92.981 LINE",
"155.651 194.648 LINE",
"318.298 194.648 LINE",
"318.298 253.913 LINE",
"155.651 253.913 LINE",
"155.651 355.576 LINE",
"263.128 355.576 LINE",
"32. 699.99 LINE",
"188.664 699.99 LINE",
"384.344 400.172 LINE",
"580.016 699.99 LINE",
"736.689 699.99 LINE",
"505.548 355.576 LINE",
"613.033 355.576 LINE",
"613.033 253.913 LINE",
"450.391 253.913 LINE",
"450.391 194.648 LINE",
"613.033 194.648 LINE",
"613.033 92.981 LINE",
"450.391 92.981 LINE",
"450.391 0.01 LINE"
);
}
);
width = 769;
}
);
unicode = 00A5;
},
{
glyphname = minus;
layers = (
{
layerId = "9e608202-4e31-4786-af01-fb7a634e06d8";
paths = (
{
closed = 1;
nodes = (
"78. 223.985 LINE",
"78. 355.35 LINE",
"531.598 355.35 LINE",
"531.598 223.985 LINE"
);
}
);
width = 610;
}
);
unicode = 2212;
},
{
glyphname = plusminus;
layers = (
{
layerId = "9e608202-4e31-4786-af01-fb7a634e06d8";
paths = (
{
closed = 1;
nodes = (
"237.498 180.318 LINE",
"237.498 339.816 LINE",
"78. 339.816 LINE",
"78. 457.164 LINE",
"237.498 457.164 LINE",
"237.498 616.662 LINE",
"354.846 616.662 LINE",
"354.846 457.164 LINE",
"514.343 457.164 LINE",
"514.343 339.816 LINE",
"354.846 339.816 LINE",
"354.846 180.318 LINE"
);
},
{
closed = 1;
nodes = (
"78. 0.01 LINE",
"78. 117.357 LINE",
"514.343 117.357 LINE",
"514.343 0.01 LINE"
);
}
);
width = 592;
}
);
unicode = 00B1;
},
{
glyphname = multiply;
layers = (
{
layerId = "9e608202-4e31-4786-af01-fb7a634e06d8";
paths = (
{
closed = 1;
nodes = (
"257.953 212.485 LINE",
"155.45 109.983 LINE",
"78. 187.434 LINE",
"180.502 289.936 LINE",
"78. 392.438 LINE",
"155.45 469.889 LINE",
"257.953 367.387 LINE",
"360.455 469.889 LINE",
"437.906 392.438 LINE",
"335.403 289.936 LINE",
"437.906 187.434 LINE",
"360.455 109.983 LINE"
);
}
);
width = 516;
}
);
unicode = 00D7;
},
{
glyphname = divide;
layers = (
{
layerId = "9e608202-4e31-4786-af01-fb7a634e06d8";
paths = (
{
closed = 1;
nodes = (
"80. 237.862 LINE",
"80. 341.719 LINE",
"531.815 341.719 LINE",
"531.815 237.862 LINE"
);
},
{
closed = 1;
nodes = (
"262.595 43.831 OFFCURVE",
"234.697 71.728 OFFCURVE",
"234.697 113.257 CURVE SMOOTH",
"234.697 154.787 OFFCURVE",
"262.595 182.685 OFFCURVE",
"304.123 182.685 CURVE SMOOTH",
"345.654 182.685 OFFCURVE",
"373.551 154.787 OFFCURVE",
"373.551 113.257 CURVE SMOOTH",
"373.551 71.728 OFFCURVE",
"345.654 43.831 OFFCURVE",
"304.123 43.831 CURVE SMOOTH"
);
},
{
closed = 1;
nodes = (
"264.378 398.024 OFFCURVE",
"236.481 425.922 OFFCURVE",
"236.481 467.451 CURVE SMOOTH",
"236.481 508.981 OFFCURVE",
"264.378 536.878 OFFCURVE",
"305.907 536.878 CURVE SMOOTH",
"347.437 536.878 OFFCURVE",
"375.334 508.981 OFFCURVE",
"375.334 467.451 CURVE SMOOTH",
"375.334 425.922 OFFCURVE",
"347.437 398.024 OFFCURVE",
"305.907 398.024 CURVE SMOOTH"
);
}
);
width = 612;
}
);
unicode = 00F7;
},
{
glyphname = brokenbar;
layers = (
{
layerId = "9e608202-4e31-4786-af01-fb7a634e06d8";
paths = (
{
closed = 1;
nodes = (
"92. 403.44 LINE",
"92. 734.991 LINE",
"208.616 734.991 LINE",
"208.616 403.44 LINE"
);
},
{
closed = 1;
nodes = (
"92. -148.601 LINE",
"92. 182.949 LINE",
"208.616 182.949 LINE",
"208.616 -148.601 LINE"
);
}
);
width = 301;
}
);
unicode = 00A6;
},
{
glyphname = ellipsis;
layers = (
{
layerId = "9e608202-4e31-4786-af01-fb7a634e06d8";
paths = (
{
closed = 1;
nodes = (
"295.611 135.213 OFFCURVE",
"269.821 109.421 OFFCURVE",
"269.821 65.609 CURVE SMOOTH",
"269.821 21.795 OFFCURVE",
"295.611 -3.996 OFFCURVE",
"339.425 -3.996 CURVE SMOOTH",
"383.237 -3.996 OFFCURVE",
"409.027 21.795 OFFCURVE",
"409.027 65.609 CURVE SMOOTH",
"409.027 109.421 OFFCURVE",
"383.237 135.213 OFFCURVE",
"339.425 135.213 CURVE SMOOTH"
);
},
{
closed = 1;
nodes = (
"103.791 135.248 OFFCURVE",
"78. 109.457 OFFCURVE",
"78. 65.644 CURVE SMOOTH",
"78. 21.831 OFFCURVE",
"103.791 -3.961 OFFCURVE",
"147.605 -3.961 CURVE SMOOTH",
"191.418 -3.961 OFFCURVE",
"217.207 21.831 OFFCURVE",
"217.207 65.644 CURVE SMOOTH",
"217.207 109.457 OFFCURVE",
"191.418 135.248 OFFCURVE",
"147.605 135.248 CURVE SMOOTH"
);
},
{
closed = 1;
nodes = (
"486.71 135.248 OFFCURVE",
"460.919 109.457 OFFCURVE",
"460.919 65.644 CURVE SMOOTH",
"460.919 21.831 OFFCURVE",
"486.71 -3.961 OFFCURVE",
"530.522 -3.961 CURVE SMOOTH",
"574.336 -3.961 OFFCURVE",
"600.126 21.831 OFFCURVE",
"600.126 65.644 CURVE SMOOTH",
"600.126 109.457 OFFCURVE",
"574.336 135.248 OFFCURVE",
"530.522 135.248 CURVE SMOOTH"
);
}
);
width = 678;
}
);
unicode = 2026;
},
{
glyphname = periodcentered;
layers = (
{
layerId = "9e608202-4e31-4786-af01-fb7a634e06d8";
paths = (
{
closed = 1;
nodes = (
"78.179 195.903 OFFCURVE",
"46.8 227.28 OFFCURVE",
"46.8 273.979 CURVE SMOOTH",
"46.8 320.688 OFFCURVE",
"78.179 352.065 OFFCURVE",
"124.883 352.065 CURVE SMOOTH",
"171.586 352.065 OFFCURVE",
"202.961 320.688 OFFCURVE",
"202.961 273.979 CURVE SMOOTH",
"202.961 227.28 OFFCURVE",
"171.586 195.903 OFFCURVE",
"124.883 195.903 CURVE SMOOTH"
);
}
);
width = 281;
}
);
unicode = 00B7;
},
{
glyphname = exclamdown;
layers = (
{
layerId = "9e608202-4e31-4786-af01-fb7a634e06d8";
paths = (
{
closed = 1;
nodes = (
"90.804 309.147 LINE",
"80.489 -181.287 LINE",
"229.466 -181.287 LINE",
"219.152 309.147 LINE"
);
},
{
closed = 1;
nodes = (
"201.568 369.066 OFFCURVE",
"232.944 400.44 OFFCURVE",
"232.944 447.144 CURVE SMOOTH",
"232.944 493.848 OFFCURVE",
"201.568 525.226 OFFCURVE",
"154.865 525.226 CURVE SMOOTH",
"108.161 525.226 OFFCURVE",
"76.782 493.848 OFFCURVE",
"76.782 447.144 CURVE SMOOTH",
"76.782 400.44 OFFCURVE",
"108.161 369.066 OFFCURVE",
"154.865 369.066 CURVE SMOOTH"
);
}
);
width = 310;
}
);
unicode = 00A1;
},
{
glyphname = questiondown;
layers = (
{
layerId = "9e608202-4e31-4786-af01-fb7a634e06d8";
paths = (
{
closed = 1;
nodes = (
"90.804 309.148 LINE",
"80.489 -181.286 LINE",
"229.466 -181.286 LINE",
"219.152 309.148 LINE"
);
},
{
closed = 1;
nodes = (
"201.565 369.053 OFFCURVE",
"232.94 400.43 OFFCURVE",
"232.94 447.129 CURVE SMOOTH",
"232.94 493.838 OFFCURVE",
"201.565 525.215 OFFCURVE",
"154.862 525.215 CURVE SMOOTH",
"108.158 525.215 OFFCURVE",
"76.779 493.838 OFFCURVE",
"76.779 447.129 CURVE SMOOTH",
"76.779 400.43 OFFCURVE",
"108.158 369.053 OFFCURVE",
"154.862 369.053 CURVE SMOOTH"
);
},
{
closed = 1;
nodes = (
"90.804 309.148 LINE",
"80.489 -181.286 LINE",
"229.466 -181.286 LINE",
"219.152 309.148 LINE"
);
},
{
closed = 1;
nodes = (
"201.565 369.053 OFFCURVE",
"232.94 400.43 OFFCURVE",
"232.94 447.129 CURVE SMOOTH",
"232.94 493.838 OFFCURVE",
"201.565 525.215 OFFCURVE",
"154.862 525.215 CURVE SMOOTH",
"108.158 525.215 OFFCURVE",
"76.779 493.838 OFFCURVE",
"76.779 447.129 CURVE SMOOTH",
"76.779 400.43 OFFCURVE",
"108.158 369.053 OFFCURVE",
"154.862 369.053 CURVE SMOOTH"
);
},
{
closed = 1;
nodes = (
"90.804 309.148 LINE",
"80.489 -181.286 LINE",
"229.466 -181.286 LINE",
"219.152 309.148 LINE"
);
},
{
closed = 1;
nodes = (
"201.565 369.053 OFFCURVE",
"232.94 400.43 OFFCURVE",
"232.94 447.129 CURVE SMOOTH",
"232.94 493.838 OFFCURVE",
"201.565 525.215 OFFCURVE",
"154.862 525.215 CURVE SMOOTH",
"108.158 525.215 OFFCURVE",
"76.779 493.838 OFFCURVE",
"76.779 447.129 CURVE SMOOTH",
"76.779 400.43 OFFCURVE",
"108.158 369.053 OFFCURVE",
"154.862 369.053 CURVE SMOOTH"
);
}
);
width = 434;
},
{
layerId = "52995f45-4616-4878-aa87-42a34ae27e1a";
name = Regular;
paths = (
{
closed = 1;
nodes = (
"366.267 -189.554 OFFCURVE",
"423.11 -151.156 OFFCURVE",
"453.572 -118.948 CURVE SMOOTH",
"494.532 -75.632 OFFCURVE",
"507.655 -24.142 OFFCURVE",
"506.384 10.536 CURVE",
"378.811 10.536 LINE",
"374.544 -60.556 OFFCURVE",
"302.657 -69.36 OFFCURVE",
"266.491 -66.652 CURVE",
"215.29 -66.508 OFFCURVE",
"188.042 -45.562 OFFCURVE",
"178.205 -20.877 CURVE SMOOTH",
"171.571 0.017 OFFCURVE",
"159.212 41.804 OFFCURVE",
"219.651 85.699 CURVE SMOOTH",
"265.426 127.104 OFFCURVE",
"342.976 178.459 OFFCURVE",
"342.976 268.74 CURVE SMOOTH",
"342.976 308.005 LINE",
"215.145 308.005 LINE",
"215.145 260.566 OFFCURVE",
"214.288 243.134 OFFCURVE",
"164.575 200.696 CURVE SMOOTH",
"94.382 147.915 OFFCURVE",
"44.298 107.337 OFFCURVE",
"35.029 20.446 CURVE SMOOTH",
"23.405 -118.948 OFFCURVE",
"141.16 -189.554 OFFCURVE",
"268.413 -189.554 CURVE"
);
},
{
closed = 1;
nodes = (
"320.158 369.066 OFFCURVE",
"351.533 400.44 OFFCURVE",
"351.533 447.144 CURVE SMOOTH",
"351.533 493.848 OFFCURVE",
"320.158 525.226 OFFCURVE",
"273.455 525.226 CURVE SMOOTH",
"226.75 525.226 OFFCURVE",
"195.371 493.848 OFFCURVE",
"195.371 447.144 CURVE SMOOTH",
"195.371 400.44 OFFCURVE",
"226.75 369.066 OFFCURVE",
"273.455 369.066 CURVE SMOOTH"
);
}
);
width = 544;
}
);
unicode = 00BF;
},
{
glyphname = degree;
layers = (
{
layerId = "9e608202-4e31-4786-af01-fb7a634e06d8";
paths = (
{
closed = 1;
nodes = (
"122.818 397.015 OFFCURVE",
"64 455.834 OFFCURVE",
"64 550.522 CURVE SMOOTH",
"64 645.206 OFFCURVE",
"122.818 704.024 OFFCURVE",
"217.506 704.024 CURVE SMOOTH",
"312.191 704.024 OFFCURVE",
"371.009 645.206 OFFCURVE",
"371.009 550.522 CURVE SMOOTH",
"371.009 455.834 OFFCURVE",
"312.191 397.015 OFFCURVE",
"217.506 397.015 CURVE SMOOTH"
);
},
{
closed = 1;
nodes = (
"169.699 619.649 OFFCURVE",
"148.379 598.329 OFFCURVE",
"148.379 550.522 CURVE SMOOTH",
"148.379 502.714 OFFCURVE",
"169.699 481.394 OFFCURVE",
"217.506 481.394 CURVE SMOOTH",
"265.315 481.394 OFFCURVE",
"286.634 502.714 OFFCURVE",
"286.634 550.522 CURVE SMOOTH",
"286.634 598.329 OFFCURVE",
"265.315 619.649 OFFCURVE",
"217.506 619.649 CURVE SMOOTH"
);
}
);
width = 435;
}
);
unicode = 00B0;
},
{
glyphname = ordfeminine;
layers = (
{
layerId = "9e608202-4e31-4786-af01-fb7a634e06d8";
paths = (
{
closed = 1;
nodes = (
"96.551 436.655 OFFCURVE",
"46.8 487.388 OFFCURVE",
"46.8 569.057 CURVE SMOOTH",
"46.8 650.724 OFFCURVE",
"96.551 701.457 OFFCURVE",
"176.638 701.457 CURVE SMOOTH",
"206.336 701.457 OFFCURVE",
"232.24 694.561 OFFCURVE",
"252.933 681.312 CURVE",
"256.608 699.711 LINE",
"307.985 699.711 LINE",
"307.985 438.402 LINE",
"256.606 438.402 LINE",
"252.933 456.8 LINE",
"232.24 443.552 OFFCURVE",
"206.336 436.655 OFFCURVE",
"176.638 436.655 CURVE SMOOTH"
);
},
{
closed = 1;
nodes = (
"133.817 639.035 OFFCURVE",
"111.753 616.144 OFFCURVE",
"111.753 569.057 CURVE SMOOTH",
"111.753 521.97 OFFCURVE",
"133.817 499.08 OFFCURVE",
"179.202 499.08 CURVE SMOOTH",
"224.587 499.08 OFFCURVE",
"246.649 521.97 OFFCURVE",
"246.649 569.057 CURVE SMOOTH",
"246.649 616.144 OFFCURVE",
"224.587 639.035 OFFCURVE",
"179.202 639.035 CURVE SMOOTH"
);
}
);
width = 386;
}
);
unicode = 00AA;
},
{
glyphname = ordmasculine;
layers = (
{
layerId = "9e608202-4e31-4786-af01-fb7a634e06d8";
paths = (
{
closed = 1;
nodes = (
"122.17 405.279 OFFCURVE",
"64 467.169 OFFCURVE",
"64 555.792 CURVE SMOOTH",
"64 644.416 OFFCURVE",
"122.17 706.306 OFFCURVE",
"217.965 706.306 CURVE SMOOTH",
"313.76 706.306 OFFCURVE",
"371.93 644.416 OFFCURVE",
"371.93 555.792 CURVE SMOOTH",
"371.93 467.169 OFFCURVE",
"313.76 405.279 OFFCURVE",
"217.965 405.279 CURVE SMOOTH"
);
},
{
closed = 1;
nodes = (
"198.926 622.608 OFFCURVE",
"148.009 617.789 OFFCURVE",
"148.009 555.792 CURVE SMOOTH",
"148.009 493.796 OFFCURVE",
"198.926 488.976 OFFCURVE",
"217.965 488.976 CURVE SMOOTH",
"237.004 488.976 OFFCURVE",
"287.92 493.796 OFFCURVE",
"287.92 555.792 CURVE SMOOTH",
"287.92 617.789 OFFCURVE",
"237.004 622.608 OFFCURVE",
"217.965 622.608 CURVE SMOOTH"
);
}
);
width = 436;
}
);
unicode = 00BA;
},
{
glyphname = onesuperior;
layers = (
{
layerId = "9e608202-4e31-4786-af01-fb7a634e06d8";
paths = (
{
closed = 1;
nodes = (
"95.435 299.582 LINE",
"95.435 586.429 LINE",
"46.8 552.155 LINE",
"46.8 643.173 LINE",
"123.769 699.657 LINE",
"186.362 699.657 LINE",
"186.362 299.582 LINE"
);
}
);
width = 264;
}
);
unicode = 00B9;
},
{
glyphname = twosuperior;
layers = (
{
layerId = "9e608202-4e31-4786-af01-fb7a634e06d8";
paths = (
{
closed = 1;
nodes = (
"46.8 303.399 LINE",
"46.8 346.153 LINE SMOOTH",
"46.8 399.699 OFFCURVE",
"96.555 437.498 OFFCURVE",
"161.601 481.354 CURVE SMOOTH",
"225.694 524.568 OFFCURVE",
"237.126 544.286 OFFCURVE",
"242.807 559.374 CURVE",
"244.873 564.853 OFFCURVE",
"248.939 589.101 OFFCURVE",
"238.677 604.6 CURVE",
"229.009 619.194 OFFCURVE",
"208.781 623.896 OFFCURVE",
"192.667 623.896 CURVE",
"164.681 623.896 OFFCURVE",
"143.915 613.887 OFFCURVE",
"139.334 585.138 CURVE",
"56.018 585.138 LINE",
"56.018 615.617 OFFCURVE",
"65.606 641.776 OFFCURVE",
"86.985 664.384 CURVE SMOOTH",
"104.658 683.073 OFFCURVE",
"137.526 705.355 OFFCURVE",
"193.784 705.355 CURVE",
"232.547 705.355 OFFCURVE",
"270.619 695.204 OFFCURVE",
"297.898 666.113 CURVE SMOOTH",
"329.785 632.109 OFFCURVE",
"330.693 589.511 OFFCURVE",
"330.21 577.263 CURVE",
"328.623 536.515 OFFCURVE",
"315.688 491.003 OFFCURVE",
"232.437 434.479 CURVE SMOOTH",
"202.013 413.822 OFFCURVE",
"181.501 398.265 OFFCURVE",
"171.314 388.103 CURVE",
"337.877 388.103 LINE",
"337.877 303.399 LINE"
);
}
);
width = 416;
}
);
unicode = 00B2;
},
{
glyphname = threesuperior;
layers = (
{
layerId = "9e608202-4e31-4786-af01-fb7a634e06d8";
paths = (
{
closed = 1;
nodes = (
"145.626 299.335 OFFCURVE",
"108.055 313.232 OFFCURVE",
"81.88 340.646 CURVE SMOOTH",
"56.063 367.685 OFFCURVE",
"45.948 402.669 OFFCURVE",
"45.732 439.048 CURVE",
"132.233 439.048 LINE",
"134.321 396.31 OFFCURVE",
"156.503 381.754 OFFCURVE",
"196.211 381.754 CURVE",
"221.985 381.754 OFFCURVE",
"265.709 387.442 OFFCURVE",
"269.013 425.548 CURVE",
"270.178 438.924 OFFCURVE",
"267.444 449.389 OFFCURVE",
"260.397 458.476 CURVE",
"246.144 476.847 OFFCURVE",
"214.683 477.06 OFFCURVE",
"213.349 477.06 CURVE",
"171.538 477.035 LINE",
"171.538 552.255 LINE",
"207.236 552.255 LINE SMOOTH",
"233.643 552.255 OFFCURVE",
"249.978 563.944 OFFCURVE",
"253.228 585.163 CURVE",
"253.576 587.403 OFFCURVE",
"254.878 599.042 OFFCURVE",
"246.674 608.584 CURVE",
"238.697 617.894 OFFCURVE",
"223.283 622.808 OFFCURVE",
"202.103 622.808 CURVE SMOOTH",
"178.798 622.808 OFFCURVE",
"157.284 618.939 OFFCURVE",
"149.093 594.587 CURVE",
"61.051 594.587 LINE",
"62.25 609.654 LINE",
"74.953 670.135 OFFCURVE",
"127.135 704.406 OFFCURVE",
"205.527 704.406 CURVE SMOOTH",
"282.654 704.406 OFFCURVE",
"333.557 663.683 OFFCURVE",
"338.377 598.125 CURVE SMOOTH",
"340.448 569.968 OFFCURVE",
"332.358 545.255 OFFCURVE",
"314.324 524.634 CURVE",
"355.456 491.825 OFFCURVE",
"355.832 439.286 OFFCURVE",
"354.946 423.759 CURVE",
"353.291 394.571 OFFCURVE",
"336.752 299.335 OFFCURVE",
"193.541 299.335 CURVE SMOOTH"
);
}
);
width = 426;
}
);
unicode = 00B3;
},
{
glyphname = uni2074;
layers = (
{
layerId = "9e608202-4e31-4786-af01-fb7a634e06d8";
paths = (
{
closed = 1;
nodes = (
"269.591 301.069 LINE",
"269.591 381.034 LINE",
"46.8 381.034 LINE",
"46.8 441.505 LINE",
"223.048 699.985 LINE",
"321.543 700.379 LINE",
"164.44 471.49 LINE",
"269.591 471.086 LINE",
"269.591 569.086 LINE",
"356.385 569.086 LINE",
"356.385 301.069 LINE"
);
}
);
width = 434;
}
);
unicode = 2074;
},
{
glyphname = fraction;
layers = (
{
layerId = "9e608202-4e31-4786-af01-fb7a634e06d8";
paths = (
{
closed = 1;
nodes = (
"32. 0. LINE",
"507.55 700.38 LINE",
"633.157 700.38 LINE",
"157.608 0. LINE"
);
}
);
width = 665;
}
);
unicode = 2044;
},
{
glyphname = onequarter;
layers = (
{
layerId = "9e608202-4e31-4786-af01-fb7a634e06d8";
paths = (
{
closed = 1;
nodes = (
"131.805 0.491 LINE",
"606.755 699.99 LINE",
"732.204 699.99 LINE",
"257.253 0.491 LINE"
);
},
{
closed = 1;
nodes = (
"126.308 302.318 LINE",
"126.308 587.24 LINE",
"78. 553.196 LINE",
"78. 643.603 LINE",
"154.452 699.708 LINE",
"216.625 699.708 LINE",
"216.625 302.318 LINE"
);
},
{
closed = 1;
nodes = (
"735.685 0.01 LINE",
"735.685 79.559 LINE",
"508.055 79.559 LINE",
"508.055 139.713 LINE",
"683.385 396.845 LINE",
"787.366 397.237 LINE",
"631.082 169.542 LINE",
"735.685 169.139 LINE",
"735.685 266.629 LINE",
"822.026 266.629 LINE",
"822.026 0.01 LINE"
);
}
);
width = 900;
}
);
unicode = 00BC;
},
{
glyphname = onehalf;
layers = (
{
layerId = "9e608202-4e31-4786-af01-fb7a634e06d8";
paths = (
{
closed = 1;
nodes = (
"131.841 -0.04 LINE",
"607.118 699.939 LINE",
"732.653 699.939 LINE",
"257.376 -0.04 LINE"
);
},
{
closed = 1;
nodes = (
"126.341 301.994 LINE",
"126.341 587.112 LINE",
"78. 553.045 LINE",
"78. 643.514 LINE",
"154.503 699.657 LINE",
"216.72 699.657 LINE",
"216.72 301.994 LINE"
);
},
{
closed = 1;
nodes = (
"580.274 -0.04 LINE",
"580.274 42.714 LINE SMOOTH",
"580.274 96.26 OFFCURVE",
"630.029 134.059 OFFCURVE",
"695.075 177.915 CURVE SMOOTH",
"759.168 221.129 OFFCURVE",
"770.6 240.847 OFFCURVE",
"776.281 255.935 CURVE",
"778.347 261.414 OFFCURVE",
"782.413 285.662 OFFCURVE",
"772.151 301.161 CURVE",
"762.483 315.755 OFFCURVE",
"742.255 320.457 OFFCURVE",
"726.141 320.457 CURVE",
"698.155 320.457 OFFCURVE",
"677.389 310.448 OFFCURVE",
"672.808 281.699 CURVE",
"589.492 281.699 LINE",
"589.492 312.178 OFFCURVE",
"599.08 338.337 OFFCURVE",
"620.459 360.945 CURVE SMOOTH",
"638.132 379.634 OFFCURVE",
"671. 401.916 OFFCURVE",
"727.258 401.916 CURVE",
"766.021 401.916 OFFCURVE",
"804.093 391.765 OFFCURVE",
"831.372 362.674 CURVE SMOOTH",
"863.259 328.67 OFFCURVE",
"864.167 286.072 OFFCURVE",
"863.684 273.825 CURVE",
"862.097 233.076 OFFCURVE",
"849.162 187.564 OFFCURVE",
"765.911 131.04 CURVE SMOOTH",
"735.487 110.383 OFFCURVE",
"714.975 94.826 OFFCURVE",
"704.788 84.664 CURVE",
"871.351 84.664 LINE",
"871.351 -0.04 LINE"
);
}
);
width = 949;
}
);
unicode = 00BD;
},
{
glyphname = threequarters;
layers = (
{
layerId = "9e608202-4e31-4786-af01-fb7a634e06d8";
paths = (
{
closed = 1;
nodes = (
"228.387 0.491 LINE",
"703.041 699.553 LINE",
"828.411 699.553 LINE",
"353.757 0.491 LINE"
);
},
{
closed = 1;
nodes = (
"833.594 0.01 LINE",
"833.594 79.509 LINE",
"602.102 79.509 LINE",
"602.102 139.626 LINE",
"777.322 396.597 LINE",
"885.243 396.989 LINE",
"729.056 169.436 LINE",
"833.594 169.034 LINE",
"833.594 266.463 LINE",
"919.881 266.463 LINE",
"919.881 0.01 LINE"
);
},
{
closed = 1;
nodes = (
"145.626 299.335 OFFCURVE",
"108.055 313.232 OFFCURVE",
"81.88 340.646 CURVE SMOOTH",
"56.062 367.685 OFFCURVE",
"45.948 402.669 OFFCURVE",
"45.732 439.048 CURVE",
"132.233 439.048 LINE",
"134.321 396.31 OFFCURVE",
"156.503 381.754 OFFCURVE",
"196.211 381.754 CURVE",
"221.985 381.754 OFFCURVE",
"265.709 387.442 OFFCURVE",
"269.014 425.548 CURVE",
"270.178 438.924 OFFCURVE",
"267.444 449.389 OFFCURVE",
"260.397 458.476 CURVE",
"246.144 476.847 OFFCURVE",
"214.683 477.06 OFFCURVE",
"213.349 477.06 CURVE",
"171.537 477.035 LINE",
"171.537 552.255 LINE",
"207.236 552.255 LINE SMOOTH",
"233.643 552.255 OFFCURVE",
"249.978 563.943 OFFCURVE",
"253.228 585.163 CURVE",
"253.576 587.403 OFFCURVE",
"254.878 599.042 OFFCURVE",
"246.674 608.584 CURVE",
"238.697 617.894 OFFCURVE",
"223.283 622.808 OFFCURVE",
"202.103 622.808 CURVE SMOOTH",
"178.798 622.808 OFFCURVE",
"157.284 618.939 OFFCURVE",
"149.093 594.587 CURVE",
"61.051 594.587 LINE",
"62.25 609.654 LINE",
"74.953 670.135 OFFCURVE",
"127.135 704.406 OFFCURVE",
"205.526 704.406 CURVE SMOOTH",
"282.653 704.406 OFFCURVE",
"333.557 663.683 OFFCURVE",
"338.377 598.125 CURVE SMOOTH",
"340.448 569.968 OFFCURVE",
"332.358 545.255 OFFCURVE",
"314.324 524.634 CURVE",
"355.456 491.825 OFFCURVE",
"355.832 439.286 OFFCURVE",
"354.946 423.759 CURVE",
"353.291 394.571 OFFCURVE",
"336.752 299.335 OFFCURVE",
"193.541 299.335 CURVE SMOOTH"
);
}
);
width = 1012;
}
);
unicode = 00BE;
},
{
glyphname = Agrave;
layers = (
{
layerId = "9e608202-4e31-4786-af01-fb7a634e06d8";
paths = (
{
closed = 1;
nodes = (
"335.278 760.477 LINE",
"136.167 889.071 LINE",
"331.99 889.071 LINE",
"440.004 760.477 LINE"
);
},
{
closed = 1;
nodes = (
"613.662 0.44 LINE",
"543.562 152.643 LINE",
"217.527 152.643 LINE",
"147.417 0.44 LINE",
"5. 0.44 LINE",
"332.508 700. LINE",
"428.571 700. LINE",
"756.08 0.44 LINE"
);
},
{
closed = 1;
nodes = (
"487.481 274.346 LINE",
"380.539 506.493 LINE",
"273.598 274.346 LINE"
);
}
);
width = 761;
}
);
unicode = 00C0;
},
{
glyphname = Aacute;
layers = (
{
layerId = "9e608202-4e31-4786-af01-fb7a634e06d8";
paths = (
{
closed = 1;
nodes = (
"613.912 -0.099 LINE",
"543.771 152.192 LINE",
"217.548 152.192 LINE",
"147.397 -0.099 LINE",
"4.897 -0.099 LINE",
"332.596 699.866 LINE",
"428.713 699.866 LINE",
"756.412 -0.099 LINE"
);
},
{
closed = 1;
nodes = (
"487.658 273.966 LINE",
"380.654 506.247 LINE",
"273.651 273.966 LINE"
);
},
{
closed = 1;
nodes = (
"323.565 760.459 LINE",
"431.544 889.011 LINE",
"627.304 889.011 LINE",
"428.257 760.459 LINE"
);
}
);
width = 762;
}
);
unicode = 00C1;
},
{
glyphname = Acircumflex;
layers = (
{
layerId = "9e608202-4e31-4786-af01-fb7a634e06d8";
paths = (
{
closed = 1;
nodes = (
"614.812 0.011 LINE",
"544.579 152.5 LINE",
"217.928 152.5 LINE",
"147.686 0.011 LINE",
"5. 0.011 LINE",
"333.127 700.892 LINE",
"429.371 700.892 LINE",
"757.498 0.011 LINE"
);
},
{
closed = 1;
nodes = (
"488.392 274.434 LINE",
"381.248 507.019 LINE",
"274.106 274.434 LINE"
);
},
{
closed = 1;
nodes = (
"427.262 759.673 LINE",
"381.248 805.301 LINE",
"335.235 759.673 LINE",
"223.394 759.673 LINE",
"355.28 888.37 LINE",
"407.218 888.37 LINE",
"539.104 759.673 LINE"
);
}
);
width = 762;
}
);
unicode = 00C2;
},
{
glyphname = Atilde;
layers = (
{
components = (
{
name = space;
transform = "{1, 0, 0, 1, -63.689, 0}";
alignment = -1;
}
);
layerId = "9e608202-4e31-4786-af01-fb7a634e06d8";
paths = (
{
closed = 1;
nodes = (
"600.001 0.01 LINE",
"531.458 148.789 LINE",
"212.748 148.789 LINE",
"144.206 0.01 LINE",
"5. 0.01 LINE",
"325.162 683.836 LINE",
"419.045 683.836 LINE",
"739.207 0.01 LINE"
);
},
{
closed = 1;
nodes = (
"476.639 267.756 LINE",
"372.103 494.681 LINE",
"267.567 267.756 LINE"
);
},
{
closed = 1;
nodes = (
"504.44 863.711 LINE",
"518.67 818.511 OFFCURVE",
"501.506 747.575 OFFCURVE",
"432.679 740.014 CURVE SMOOTH",
"368.709 732.987 OFFCURVE",
"343.98 783.239 OFFCURVE",
"310.791 782.271 CURVE SMOOTH",
"284.736 781.103 OFFCURVE",
"288.668 746.609 OFFCURVE",
"288.668 746.609 CURVE",
"214.629 746.609 LINE",
"200.395 794.579 OFFCURVE",
"224.175 851.757 OFFCURVE",
"289.39 866.201 CURVE SMOOTH",
"349.598 872.428 OFFCURVE",
"375.577 821.477 OFFCURVE",
"408.277 817.08 CURVE SMOOTH",
"439.343 819.009 OFFCURVE",
"430.4 863.501 OFFCURVE",
"430.4 863.501 CURVE"
);
}
);
width = 744;
}
);
unicode = 00C3;
},
{
glyphname = Adieresis;
layers = (
{
layerId = "9e608202-4e31-4786-af01-fb7a634e06d8";
paths = (
{
closed = 1;
nodes = (
"241.344 753.206 OFFCURVE",
"213.368 781.182 OFFCURVE",
"213.368 822.821 CURVE SMOOTH",
"213.368 864.464 OFFCURVE",
"241.344 892.44 OFFCURVE",
"282.987 892.44 CURVE SMOOTH",
"324.626 892.44 OFFCURVE",
"352.602 864.464 OFFCURVE",
"352.602 822.821 CURVE SMOOTH",
"352.602 781.182 OFFCURVE",
"324.626 753.206 OFFCURVE",
"282.987 753.206 CURVE SMOOTH"
);
},
{
closed = 1;
nodes = (
"433.036 753.206 OFFCURVE",
"405.06 781.182 OFFCURVE",
"405.06 822.821 CURVE SMOOTH",
"405.06 864.464 OFFCURVE",
"433.036 892.44 OFFCURVE",
"474.679 892.44 CURVE SMOOTH",
"516.318 892.44 OFFCURVE",
"544.294 864.464 OFFCURVE",
"544.294 822.821 CURVE SMOOTH",
"544.294 781.182 OFFCURVE",
"516.318 753.206 OFFCURVE",
"474.679 753.206 CURVE SMOOTH"
);
},
{
closed = 1;
nodes = (
"613.657 0.01 LINE",
"543.557 152.211 LINE",
"217.525 152.211 LINE",
"147.417 0.01 LINE",
"5. 0.01 LINE",
"332.505 699.564 LINE",
"428.567 699.564 LINE",
"756.073 0.01 LINE"
);
},
{
closed = 1;
nodes = (
"487.477 273.914 LINE",
"380.537 506.058 LINE",
"273.596 273.914 LINE"
);
}
);
width = 761;
}
);
unicode = 00C4;
},
{
glyphname = Aring;
layers = (
{
layerId = "9e608202-4e31-4786-af01-fb7a634e06d8";
paths = (
{
closed = 1;
nodes = (
"315.547 749.264 OFFCURVE",
"275.01 789.802 OFFCURVE",
"275.01 855.06 CURVE SMOOTH",
"275.01 920.314 OFFCURVE",
"315.547 960.852 OFFCURVE",
"380.804 960.852 CURVE SMOOTH",
"446.059 960.852 OFFCURVE",
"486.596 920.314 OFFCURVE",
"486.596 855.06 CURVE SMOOTH",
"486.596 789.802 OFFCURVE",
"446.059 749.264 OFFCURVE",
"380.804 749.264 CURVE SMOOTH"
);
},
{
closed = 1;
nodes = (
"347.855 902.702 OFFCURVE",
"333.163 888.008 OFFCURVE",
"333.163 855.06 CURVE SMOOTH",
"333.163 822.111 OFFCURVE",
"347.855 807.418 OFFCURVE",
"380.804 807.418 CURVE SMOOTH",
"413.752 807.418 OFFCURVE",
"428.446 822.111 OFFCURVE",
"428.446 855.06 CURVE SMOOTH",
"428.446 888.008 OFFCURVE",
"413.752 902.702 OFFCURVE",
"380.804 902.702 CURVE SMOOTH"
);
},
{
closed = 1;
nodes = (
"614.089 -0.04 LINE",
"543.939 152.269 LINE",
"217.675 152.269 LINE",
"147.517 -0.04 LINE",
"5. -0.04 LINE",
"332.738 700.01 LINE",
"428.867 700.01 LINE",
"756.606 -0.04 LINE"
);
},
{
closed = 1;
nodes = (
"487.819 274.058 LINE",
"380.803 506.367 LINE",
"273.786 274.058 LINE"
);
}
);
width = 762;
}
);
unicode = 00C5;
},
{
glyphname = AE;
layers = (
{
layerId = "9e608202-4e31-4786-af01-fb7a634e06d8";
paths = (
{
closed = 1;
nodes = (
"664.305 131.368 LINE",
"664.305 285.533 LINE",
"1021.884 285.533 LINE",
"1021.884 415.902 LINE",
"664.305 415.902 LINE",
"664.305 570.066 LINE",
"1034.977 570.066 LINE",
"1034.977 700.434 LINE",
"544.392 700.434 LINE",
"5.002 0.455 LINE",
"165.136 0.455 LINE",
"257.589 120.906 LINE",
"523.789 120.906 LINE",
"523.789 0. LINE",
"1048.067 0. LINE",
"1048.067 131.368 LINE"
);
},
{
closed = 1;
nodes = (
"357.107 250.566 LINE",
"523.789 467.728 LINE",
"523.789 250.566 LINE"
);
}
);
width = 1079;
}
);
unicode = 00C6;
},
{
glyphname = Ccedilla;
layers = (
{
layerId = "9e608202-4e31-4786-af01-fb7a634e06d8";
paths = (
{
closed = 1;
nodes = (
"255.325 125.319 OFFCURVE",
"184.171 200.936 OFFCURVE",
"184.171 350.06 CURVE SMOOTH",
"184.171 499.196 OFFCURVE",
"255.325 574.813 OFFCURVE",
"395.65 574.813 CURVE SMOOTH",
"497.872 574.813 OFFCURVE",
"560.792 536.407 OFFCURVE",
"587.933 457.433 CURVE",
"729.521 457.433 LINE",
"724.37 476.457 LINE",
"684.489 623.721 OFFCURVE",
"567.257 704.821 OFFCURVE",
"394.264 704.821 CURVE SMOOTH",
"176.692 704.821 OFFCURVE",
"46.8 572.204 OFFCURVE",
"46.8 350.06 CURVE SMOOTH",
"46.8 138.806 OFFCURVE",
"164.34 8.608 OFFCURVE",
"362.988 -3.65 CURVE",
"336.032 -105.923 LINE",
"358.088 -103.547 LINE",
"358.141 -103.547 OFFCURVE",
"363.008 -103.029 OFFCURVE",
"370.082 -103.029 CURVE",
"414.845 -103.029 OFFCURVE",
"421.525 -119.712 OFFCURVE",
"421.525 -129.663 CURVE",
"421.525 -152.297 OFFCURVE",
"395.444 -155.682 OFFCURVE",
"379.901 -155.682 CURVE",
"361.026 -155.682 OFFCURVE",
"340.232 -150.308 OFFCURVE",
"325.609 -141.655 CURVE",
"310.88 -132.941 LINE",
"282.757 -195.816 LINE",
"295.522 -202.461 LINE",
"297.151 -203.311 OFFCURVE",
"336.023 -223.256 OFFCURVE",
"384.38 -223.256 CURVE",
"384.388 -223.256 OFFCURVE",
"384.388 -223.256 OFFCURVE",
"384.388 -223.256 CURVE",
"401.502 -223.256 OFFCURVE",
"417.886 -220.74 OFFCURVE",
"433.097 -215.76 CURVE",
"459.651 -207.081 OFFCURVE",
"482.155 -188.259 OFFCURVE",
"493.297 -165.413 CURVE SMOOTH",
"503.747 -143.988 OFFCURVE",
"504.387 -119.16 OFFCURVE",
"495.34 -94.21 CURVE",
"494.761 -92.377 OFFCURVE",
"481.559 -52.936 OFFCURVE",
"422.479 -44.888 CURVE",
"433.288 -3.075 LINE",
"584.819 8.419 OFFCURVE",
"687.583 87.796 OFFCURVE",
"724.379 223.669 CURVE",
"729.53 242.688 LINE",
"587.941 242.688 LINE",
"560.811 163.719 OFFCURVE",
"497.886 125.319 OFFCURVE",
"395.65 125.319 CURVE SMOOTH"
);
}
);
width = 776;
}
);
unicode = 00C7;
},
{
glyphname = Egrave;
layers = (
{
layerId = "9e608202-4e31-4786-af01-fb7a634e06d8";
paths = (
{
closed = 1;
nodes = (
"78. 0.01 LINE",
"78. 700.328 LINE",
"589.654 700.328 LINE",
"589.654 570.335 LINE",
"218.164 570.335 LINE",
"218.164 415.165 LINE",
"576.535 415.165 LINE",
"576.535 285.178 LINE",
"218.164 285.178 LINE",
"218.164 130.002 LINE",
"602.777 130.002 LINE",
"602.777 0.01 LINE"
);
},
{
closed = 1;
nodes = (
"320.734 759.768 LINE",
"119.777 887.591 LINE",
"317.416 887.591 LINE",
"426.43 759.768 LINE"
);
}
);
width = 634;
}
);
unicode = 00C8;
},
{
glyphname = Eacute;
layers = (
{
layerId = "9e608202-4e31-4786-af01-fb7a634e06d8";
paths = (
{
closed = 1;
nodes = (
"78. 0.016 LINE",
"78. 700.334 LINE",
"589.649 700.334 LINE",
"589.649 570.338 LINE",
"218.168 570.338 LINE",
"218.168 415.173 LINE",
"576.539 415.173 LINE",
"576.539 285.177 LINE",
"218.168 285.177 LINE",
"218.168 130.002 LINE",
"602.78 130.002 LINE",
"602.78 0.016 LINE"
);
},
{
closed = 1;
nodes = (
"333.613 760.111 LINE",
"292.392 760.111 OFFCURVE",
"269.14 760.111 OFFCURVE",
"227.919 760.111 CURVE",
"336.938 887.93 LINE",
"534.569 887.93 LINE"
);
}
);
width = 634;
}
);
unicode = 00C9;
},
{
glyphname = Ecircumflex;
layers = (
{
layerId = "9e608202-4e31-4786-af01-fb7a634e06d8";
paths = (
{
closed = 1;
nodes = (
"78.041 0.083 LINE",
"78.041 700.074 LINE",
"589.457 700.074 LINE",
"589.457 570.141 LINE",
"218.14 570.141 LINE",
"218.14 415.044 LINE",
"576.344 415.044 LINE",
"576.344 285.117 LINE",
"218.14 285.117 LINE",
"218.14 130.014 LINE",
"602.574 130.014 LINE",
"602.574 0.083 LINE"
);
},
{
closed = 1;
nodes = (
"386.509 758.634 LINE",
"340.262 804.494 LINE",
"294.015 758.634 LINE",
"181.604 758.634 LINE",
"314.161 887.985 LINE",
"366.363 887.985 LINE",
"498.92 758.634 LINE"
);
}
);
width = 634;
}
);
unicode = 00CA;
},
{
glyphname = Edieresis;
layers = (
{
layerId = "9e608202-4e31-4786-af01-fb7a634e06d8";
paths = (
{
closed = 1;
nodes = (
"174.786 869.386 OFFCURVE",
"198.162 892.725 OFFCURVE",
"243.244 892.725 CURVE SMOOTH",
"286.656 892.725 OFFCURVE",
"311.702 869.386 OFFCURVE",
"312.244 823.725 CURVE SMOOTH",
"311.702 779.186 OFFCURVE",
"286.656 754.14 OFFCURVE",
"243.244 754.725 CURVE SMOOTH",
"199.832 754.14 OFFCURVE",
"174.786 779.186 OFFCURVE",
"174.244 823.725 CURVE SMOOTH"
);
},
{
closed = 1;
nodes = (
"369.749 869.743 OFFCURVE",
"393.125 893.083 OFFCURVE",
"438.207 893.083 CURVE SMOOTH",
"481.619 893.083 OFFCURVE",
"506.665 869.743 OFFCURVE",
"507.207 824.082 CURVE SMOOTH",
"506.665 779.543 OFFCURVE",
"481.619 754.497 OFFCURVE",
"438.207 755.082 CURVE SMOOTH",
"394.795 754.497 OFFCURVE",
"369.749 779.543 OFFCURVE",
"369.207 824.082 CURVE SMOOTH"
);
},
{
closed = 1;
nodes = (
"78. 0.01 LINE",
"78. 700.045 LINE",
"589.447 700.045 LINE",
"589.447 570.104 LINE",
"218.108 570.104 LINE",
"218.108 414.997 LINE",
"576.334 414.997 LINE",
"576.334 285.062 LINE",
"218.108 285.062 LINE",
"218.108 129.95 LINE",
"602.566 129.95 LINE",
"602.566 0.01 LINE"
);
}
);
width = 634;
}
);
unicode = 00CB;
},
{
glyphname = Igrave;
layers = (
{
layerId = "9e608202-4e31-4786-af01-fb7a634e06d8";
paths = (
{
closed = 1;
nodes = (
"135.328 759.333 LINE",
"-64. 888.071 LINE",
"132.036 888.071 LINE",
"240.168 759.333 LINE"
);
},
{
closed = 1;
nodes = (
"116.944 0.01 LINE",
"116.944 699.828 LINE",
"257.008 699.828 LINE",
"257.008 0.01 LINE"
);
}
);
width = 366;
}
);
unicode = 00CC;
},
{
glyphname = Iacute;
layers = (
{
layerId = "9e608202-4e31-4786-af01-fb7a634e06d8";
paths = (
{
closed = 1;
nodes = (
"230.68 759.34 LINE",
"430.007 888.076 LINE",
"233.971 888.076 LINE",
"125.839 759.34 LINE"
);
},
{
closed = 1;
nodes = (
"249.063 0.012 LINE",
"249.063 699.831 LINE",
"109. 699.831 LINE",
"109. 0.012 LINE"
);
}
);
width = 366;
}
);
unicode = 00CD;
},
{
glyphname = Icircumflex;
layers = (
{
layerId = "9e608202-4e31-4786-af01-fb7a634e06d8";
paths = (
{
closed = 1;
nodes = (
"197.537 759.193 LINE",
"151.598 804.747 LINE",
"105.66 759.193 LINE",
"-6. 759.193 LINE",
"125.672 887.681 LINE",
"177.524 887.681 LINE",
"309.197 759.193 LINE"
);
},
{
closed = 1;
nodes = (
"81.624 -0. LINE",
"81.624 699.239 LINE",
"221.572 699.239 LINE",
"221.572 -0. LINE"
);
}
);
width = 303;
}
);
unicode = 00CE;
},
{
glyphname = Idieresis;
layers = (
{
layerId = "9e608202-4e31-4786-af01-fb7a634e06d8";
paths = (
{
closed = 1;
nodes = (
"31.547 869.918 OFFCURVE",
"55.163 893.498 OFFCURVE",
"100.709 893.498 CURVE SMOOTH",
"144.569 893.498 OFFCURVE",
"169.872 869.918 OFFCURVE",
"170.421 823.786 CURVE SMOOTH",
"169.872 778.788 OFFCURVE",
"144.569 753.485 OFFCURVE",
"100.709 754.075 CURVE SMOOTH",
"56.85 753.485 OFFCURVE",
"31.547 778.788 OFFCURVE",
"30.998 823.786 CURVE SMOOTH"
);
},
{
closed = 1;
nodes = (
"126.638 0.01 LINE",
"126.638 700.023 LINE",
"266.742 700.023 LINE",
"266.742 0.01 LINE"
);
},
{
closed = 1;
nodes = (
"223.504 869.797 OFFCURVE",
"247.121 893.377 OFFCURVE",
"292.667 893.377 CURVE SMOOTH",
"336.527 893.377 OFFCURVE",
"361.83 869.797 OFFCURVE",
"362.378 823.665 CURVE SMOOTH",
"361.83 778.667 OFFCURVE",
"336.527 753.364 OFFCURVE",
"292.667 753.954 CURVE SMOOTH",
"248.808 753.364 OFFCURVE",
"223.504 778.667 OFFCURVE",
"222.956 823.665 CURVE SMOOTH"
);
}
);
width = 393;
}
);
unicode = 00CF;
},
{
glyphname = Eth;
layers = (
{
layerId = "9e608202-4e31-4786-af01-fb7a634e06d8";
paths = (
{
closed = 1;
nodes = (
"139.496 699.99 LINE",
"139.496 404.637 LINE",
"32. 404.637 LINE",
"32. 295.363 LINE",
"139.496 295.363 LINE",
"139.496 0.01 LINE",
"434.836 0.01 LINE SMOOTH",
"649.49 0.01 OFFCURVE",
"777.639 130.846 OFFCURVE",
"777.639 350. CURVE SMOOTH",
"777.639 569.155 OFFCURVE",
"649.49 699.99 OFFCURVE",
"434.836 699.99 CURVE SMOOTH"
);
},
{
closed = 1;
nodes = (
"279.597 129.742 LINE",
"279.597 295.364 LINE",
"434.947 295.364 LINE",
"434.947 404.638 LINE",
"279.597 404.638 LINE",
"279.597 570.066 LINE",
"435.73 570.071 LINE",
"572.16 570.071 OFFCURVE",
"641.341 496.028 OFFCURVE",
"641.341 350.001 CURVE SMOOTH",
"641.341 203.851 OFFCURVE",
"571.402 129.742 OFFCURVE",
"433.472 129.742 CURVE SMOOTH"
);
}
);
width = 824;
}
);
unicode = 00D0;
},
{
glyphname = Ntilde;
layers = (
{
components = (
{
name = space;
transform = "{1, 0, 0, 1, -15.549, 0}";
alignment = -1;
}
);
layerId = "9e608202-4e31-4786-af01-fb7a634e06d8";
paths = (
{
closed = 1;
nodes = (
"592.211 0.01 LINE",
"227.054 447.245 LINE",
"227.054 0.01 LINE",
"87. 0.01 LINE",
"87. 699.901 LINE",
"194.356 699.901 LINE",
"559.519 252.667 LINE",
"559.519 699.901 LINE",
"699.573 699.901 LINE",
"699.573 0.01 LINE"
);
},
{
closed = 1;
nodes = (
"543.239 877.802 LINE",
"558.094 830.618 OFFCURVE",
"540.176 756.566 OFFCURVE",
"468.326 748.673 CURVE SMOOTH",
"401.547 741.337 OFFCURVE",
"375.724 794.034 OFFCURVE",
"341.085 792.785 CURVE SMOOTH",
"313.876 791.804 OFFCURVE",
"317.991 755.557 OFFCURVE",
"317.991 755.557 CURVE",
"240.7 755.557 LINE",
"225.841 805.634 OFFCURVE",
"249.943 869.063 OFFCURVE",
"318.744 880.402 CURVE SMOOTH",
"381.091 890.678 OFFCURVE",
"408.435 830.456 OFFCURVE",
"442.853 829.124 CURVE SMOOTH",
"475.321 827.868 OFFCURVE",
"465.947 877.583 OFFCURVE",
"465.947 877.583 CURVE"
);
}
);
width = 787;
}
);
unicode = 00D1;
},
{
glyphname = Ograve;
layers = (
{
layerId = "9e608202-4e31-4786-af01-fb7a634e06d8";
paths = (
{
closed = 1;
nodes = (
"376.072 759.24 LINE",
"176.889 887.881 LINE",
"372.783 887.881 LINE",
"480.835 759.24 LINE"
);
},
{
closed = 1;
nodes = (
"182.751 -4.99 OFFCURVE",
"46.8 130.961 OFFCURVE",
"46.8 349.81 CURVE SMOOTH",
"46.8 568.657 OFFCURVE",
"182.751 704.608 OFFCURVE",
"401.6 704.608 CURVE SMOOTH",
"620.447 704.608 OFFCURVE",
"756.398 568.657 OFFCURVE",
"756.398 349.81 CURVE SMOOTH",
"756.398 130.961 OFFCURVE",
"620.447 -4.99 OFFCURVE",
"401.6 -4.99 CURVE SMOOTH"
);
},
{
closed = 1;
nodes = (
"259.779 574.715 OFFCURVE",
"187.866 499.041 OFFCURVE",
"187.866 349.81 CURVE SMOOTH",
"187.866 200.577 OFFCURVE",
"259.779 124.909 OFFCURVE",
"401.6 124.909 CURVE SMOOTH",
"543.419 124.909 OFFCURVE",
"615.323 200.577 OFFCURVE",
"615.323 349.81 CURVE SMOOTH",
"615.323 499.041 OFFCURVE",
"543.419 574.715 OFFCURVE",
"401.6 574.715 CURVE SMOOTH"
);
}
);
width = 803;
}
);
unicode = 00D2;
},
{
glyphname = Oacute;
layers = (
{
layerId = "9e608202-4e31-4786-af01-fb7a634e06d8";
paths = (
{
closed = 1;
nodes = (
"427.126 759.24 LINE",
"626.309 887.881 LINE",
"430.415 887.881 LINE",
"322.363 759.24 LINE"
);
},
{
closed = 1;
nodes = (
"620.447 -4.99 OFFCURVE",
"756.398 130.961 OFFCURVE",
"756.398 349.81 CURVE SMOOTH",
"756.398 568.657 OFFCURVE",
"620.447 704.608 OFFCURVE",
"401.599 704.608 CURVE SMOOTH",
"182.751 704.608 OFFCURVE",
"46.8 568.657 OFFCURVE",
"46.8 349.81 CURVE SMOOTH",
"46.8 130.961 OFFCURVE",
"182.751 -4.99 OFFCURVE",
"401.599 -4.99 CURVE SMOOTH"
);
},
{
closed = 1;
nodes = (
"543.419 574.716 OFFCURVE",
"615.332 499.041 OFFCURVE",
"615.332 349.81 CURVE SMOOTH",
"615.332 200.577 OFFCURVE",
"543.419 124.909 OFFCURVE",
"401.599 124.909 CURVE SMOOTH",
"259.779 124.909 OFFCURVE",
"187.876 200.577 OFFCURVE",
"187.876 349.81 CURVE SMOOTH",
"187.876 499.041 OFFCURVE",
"259.779 574.716 OFFCURVE",
"401.599 574.716 CURVE SMOOTH"
);
}
);
width = 803;
}
);
unicode = 00D3;
},
{
glyphname = Ocircumflex;
layers = (
{
layerId = "9e608202-4e31-4786-af01-fb7a634e06d8";
paths = (
{
closed = 1;
nodes = (
"447.312 760.279 LINE",
"401.396 805.811 LINE",
"355.479 760.279 LINE",
"243.872 760.279 LINE",
"375.481 888.705 LINE",
"427.31 888.705 LINE",
"558.919 760.279 LINE"
);
},
{
closed = 1;
nodes = (
"182.673 -4.007 OFFCURVE",
"46.8 131.866 OFFCURVE",
"46.8 350.589 CURVE SMOOTH",
"46.8 569.311 OFFCURVE",
"182.673 705.184 OFFCURVE",
"401.396 705.184 CURVE SMOOTH",
"620.117 705.184 OFFCURVE",
"755.99 569.311 OFFCURVE",
"755.99 350.589 CURVE SMOOTH",
"755.99 131.866 OFFCURVE",
"620.117 -4.007 OFFCURVE",
"401.396 -4.007 CURVE SMOOTH"
);
},
{
closed = 1;
nodes = (
"259.657 575.365 OFFCURVE",
"187.785 499.735 OFFCURVE",
"187.785 350.589 CURVE SMOOTH",
"187.785 201.442 OFFCURVE",
"259.657 125.818 OFFCURVE",
"401.396 125.818 CURVE SMOOTH",
"543.133 125.818 OFFCURVE",
"614.996 201.442 OFFCURVE",
"614.996 350.589 CURVE SMOOTH",
"614.996 499.735 OFFCURVE",
"543.133 575.365 OFFCURVE",
"401.396 575.365 CURVE SMOOTH"
);
}
);
width = 803;
}
);
unicode = 00D4;
},
{
glyphname = Otilde;
layers = (
{
layerId = "9e608202-4e31-4786-af01-fb7a634e06d8";
paths = (
{
closed = 1;
nodes = (
"474.064 875.608 LINE",
"474.064 875.608 OFFCURVE",
"484.199 837.486 OFFCURVE",
"451.428 834.248 CURVE SMOOTH",
"424.527 831.591 OFFCURVE",
"395.584 885.784 OFFCURVE",
"330.804 879.393 CURVE SMOOTH",
"259.877 872.396 OFFCURVE",
"238.719 805.085 OFFCURVE",
"253.284 756.002 CURVE",
"329.042 756.002 LINE",
"329.042 756.002 OFFCURVE",
"319.945 791.175 OFFCURVE",
"351.678 792.491 CURVE SMOOTH",
"378.691 793.612 OFFCURVE",
"407.521 744.228 OFFCURVE",
"472.302 752.324 CURVE SMOOTH",
"543.024 761.162 OFFCURVE",
"564.384 829.573 OFFCURVE",
"549.823 875.822 CURVE"
);
},
{
closed = 1;
nodes = (
"182.729 -4.771 OFFCURVE",
"46.799 131.159 OFFCURVE",
"46.799 349.973 CURVE SMOOTH",
"46.799 568.787 OFFCURVE",
"182.729 704.717 OFFCURVE",
"401.543 704.717 CURVE SMOOTH",
"620.357 704.717 OFFCURVE",
"756.287 568.787 OFFCURVE",
"756.287 349.973 CURVE SMOOTH",
"756.287 131.159 OFFCURVE",
"620.357 -4.771 OFFCURVE",
"401.543 -4.771 CURVE SMOOTH"
);
},
{
closed = 1;
nodes = (
"259.746 574.844 OFFCURVE",
"187.843 499.182 OFFCURVE",
"187.843 349.973 CURVE SMOOTH",
"187.843 200.764 OFFCURVE",
"259.746 125.108 OFFCURVE",
"401.543 125.108 CURVE SMOOTH",
"543.341 125.108 OFFCURVE",
"615.232 200.764 OFFCURVE",
"615.232 349.973 CURVE SMOOTH",
"615.232 499.182 OFFCURVE",
"543.341 574.844 OFFCURVE",
"401.543 574.844 CURVE SMOOTH"
);
}
);
width = 803;
}
);
unicode = 00D5;
},
{
glyphname = Odieresis;
layers = (
{
layerId = "9e608202-4e31-4786-af01-fb7a634e06d8";
paths = (
{
closed = 1;
nodes = (
"237.126 870.036 OFFCURVE",
"260.597 893.471 OFFCURVE",
"305.863 893.471 CURVE SMOOTH",
"349.452 893.471 OFFCURVE",
"374.599 870.036 OFFCURVE",
"375.144 824.189 CURVE SMOOTH",
"374.599 779.469 OFFCURVE",
"349.452 754.321 OFFCURVE",
"305.863 754.908 CURVE SMOOTH",
"262.274 754.321 OFFCURVE",
"237.126 779.469 OFFCURVE",
"236.582 824.189 CURVE SMOOTH"
);
},
{
closed = 1;
nodes = (
"182.665 -5.657 OFFCURVE",
"46.8 130.209 OFFCURVE",
"46.8 348.919 CURVE SMOOTH",
"46.8 567.629 OFFCURVE",
"182.665 703.495 OFFCURVE",
"401.376 703.495 CURVE SMOOTH",
"620.087 703.495 OFFCURVE",
"755.951 567.629 OFFCURVE",
"755.951 348.919 CURVE SMOOTH",
"755.951 130.209 OFFCURVE",
"620.087 -5.657 OFFCURVE",
"401.376 -5.657 CURVE SMOOTH"
);
},
{
closed = 1;
nodes = (
"259.645 573.683 OFFCURVE",
"187.777 498.057 OFFCURVE",
"187.777 348.919 CURVE SMOOTH",
"187.777 199.78 OFFCURVE",
"259.645 124.16 OFFCURVE",
"401.376 124.16 CURVE SMOOTH",
"543.106 124.16 OFFCURVE",
"614.965 199.78 OFFCURVE",
"614.965 348.919 CURVE SMOOTH",
"614.965 498.057 OFFCURVE",
"543.106 573.683 OFFCURVE",
"401.376 573.683 CURVE SMOOTH"
);
},
{
closed = 1;
nodes = (
"428.77 867.934 OFFCURVE",
"452.241 891.368 OFFCURVE",
"497.507 891.368 CURVE SMOOTH",
"541.096 891.368 OFFCURVE",
"566.243 867.934 OFFCURVE",
"566.788 822.087 CURVE SMOOTH",
"566.243 777.366 OFFCURVE",
"541.096 752.219 OFFCURVE",
"497.507 752.805 CURVE SMOOTH",
"453.918 752.219 OFFCURVE",
"428.77 777.366 OFFCURVE",
"428.225 822.087 CURVE SMOOTH"
);
}
);
width = 803;
}
);
unicode = 00D6;
},
{
glyphname = Oslash;
layers = (
{
layerId = "9e608202-4e31-4786-af01-fb7a634e06d8";
paths = (
{
closed = 1;
nodes = (
"785.383 778.801 LINE",
"659.078 778.801 LINE",
"581.227 671.986 LINE",
"531.966 694.683 OFFCURVE",
"474.037 706.818 OFFCURVE",
"408.692 706.818 CURVE SMOOTH",
"188.481 706.818 OFFCURVE",
"51.684 570.019 OFFCURVE",
"51.684 349.809 CURVE SMOOTH",
"51.684 236.788 OFFCURVE",
"87.798 145.817 OFFCURVE",
"152.649 83.958 CURVE",
"32. -81.578 LINE",
"158.305 -81.578 LINE",
"237.462 27.028 LINE",
"286.44 4.718 OFFCURVE",
"343.922 -7.201 OFFCURVE",
"408.692 -7.201 CURVE SMOOTH",
"628.902 -7.201 OFFCURVE",
"765.7 129.596 OFFCURVE",
"765.7 349.808 CURVE SMOOTH",
"765.7 462.232 OFFCURVE",
"729.973 552.843 OFFCURVE",
"665.766 614.683 CURVE"
);
},
{
closed = 1;
nodes = (
"193.627 499.971 OFFCURVE",
"265.988 576.115 OFFCURVE",
"408.692 576.115 CURVE SMOOTH",
"443.834 576.115 OFFCURVE",
"474.663 571.447 OFFCURVE",
"501.241 562.243 CURVE",
"234.473 196.225 LINE",
"207.324 233.347 OFFCURVE",
"193.627 284.572 OFFCURVE",
"193.627 349.809 CURVE SMOOTH"
);
},
{
closed = 1;
nodes = (
"374.161 123.508 OFFCURVE",
"343.841 128.065 OFFCURVE",
"317.577 136.952 CURVE",
"583.73 502.125 LINE",
"610.294 465.102 OFFCURVE",
"623.746 414.337 OFFCURVE",
"623.746 349.809 CURVE SMOOTH",
"623.746 199.647 OFFCURVE",
"551.394 123.508 OFFCURVE",
"408.692 123.508 CURVE SMOOTH"
);
}
);
width = 817;
}
);
unicode = 00D8;
},
{
glyphname = Ugrave;
layers = (
{
layerId = "9e608202-4e31-4786-af01-fb7a634e06d8";
paths = (
{
closed = 1;
nodes = (
"355.475 761.186 LINE",
"156.497 889.691 LINE",
"352.19 889.691 LINE",
"460.131 761.186 LINE"
);
},
{
closed = 1;
nodes = (
"179.6 -4.685 OFFCURVE",
"78. 110.158 OFFCURVE",
"78. 336.658 CURVE",
"79.395 699.99 LINE",
"220.328 699.99 LINE",
"218.943 343.077 LINE",
"218.943 183.098 OFFCURVE",
"261.076 126.399 OFFCURVE",
"379.971 126.399 CURVE SMOOTH",
"498.672 126.399 OFFCURVE",
"540.743 183.138 OFFCURVE",
"540.743 343.218 CURVE",
"542.127 699.99 LINE",
"683.325 699.99 LINE",
"681.951 336.516 LINE",
"681.951 110.107 OFFCURVE",
"580.351 -4.685 OFFCURVE",
"379.971 -4.685 CURVE SMOOTH"
);
}
);
width = 762;
}
);
unicode = 00D9;
},
{
glyphname = Uacute;
layers = (
{
layerId = "9e608202-4e31-4786-af01-fb7a634e06d8";
paths = (
{
closed = 1;
nodes = (
"355.503 761.189 LINE",
"156.526 889.699 LINE",
"352.222 889.699 LINE",
"460.157 761.189 LINE"
);
},
{
closed = 1;
nodes = (
"180.975 -4.69 OFFCURVE",
"79.376 110.095 OFFCURVE",
"79.376 336.506 CURVE",
"78. 699.977 LINE",
"219.198 699.977 LINE",
"220.584 343.208 LINE",
"220.584 183.133 OFFCURVE",
"262.654 126.387 OFFCURVE",
"381.358 126.387 CURVE SMOOTH",
"500.25 126.387 OFFCURVE",
"542.382 183.091 OFFCURVE",
"542.382 343.062 CURVE",
"540.995 699.977 LINE",
"681.933 699.977 LINE",
"683.33 336.652 LINE",
"683.33 110.147 OFFCURVE",
"581.731 -4.69 OFFCURVE",
"381.358 -4.69 CURVE SMOOTH"
);
}
);
width = 761;
}
);
unicode = 00DA;
},
{
glyphname = Ucircumflex;
layers = (
{
layerId = "9e608202-4e31-4786-af01-fb7a634e06d8";
paths = (
{
closed = 1;
nodes = (
"426.674 760.59 LINE",
"380.671 806.208 LINE",
"334.668 760.59 LINE",
"222.851 760.59 LINE",
"354.708 889.259 LINE",
"406.634 889.259 LINE",
"538.492 760.59 LINE"
);
},
{
closed = 1;
nodes = (
"180.975 -4.69 OFFCURVE",
"79.376 110.095 OFFCURVE",
"79.376 336.506 CURVE",
"78. 699.977 LINE",
"219.198 699.977 LINE",
"220.584 343.208 LINE",
"220.584 183.133 OFFCURVE",
"262.654 126.387 OFFCURVE",
"381.358 126.387 CURVE SMOOTH",
"500.25 126.387 OFFCURVE",
"542.382 183.091 OFFCURVE",
"542.382 343.062 CURVE",
"540.995 699.977 LINE",
"681.933 699.977 LINE",
"683.33 336.652 LINE",
"683.33 110.147 OFFCURVE",
"581.731 -4.69 OFFCURVE",
"381.358 -4.69 CURVE SMOOTH"
);
}
);
width = 761;
}
);
unicode = 00DB;
},
{
glyphname = Udieresis;
layers = (
{
layerId = "9e608202-4e31-4786-af01-fb7a634e06d8";
paths = (
{
closed = 1;
nodes = (
"581.731 -4.69 OFFCURVE",
"683.33 110.147 OFFCURVE",
"683.33 336.652 CURVE",
"681.933 699.977 LINE",
"540.995 699.977 LINE",
"542.382 343.062 LINE",
"542.382 183.091 OFFCURVE",
"500.25 126.387 OFFCURVE",
"381.358 126.387 CURVE SMOOTH",
"262.654 126.387 OFFCURVE",
"220.584 183.133 OFFCURVE",
"220.584 343.208 CURVE",
"219.198 699.977 LINE",
"78. 699.977 LINE",
"79.376 336.506 LINE",
"79.376 110.095 OFFCURVE",
"180.975 -4.69 OFFCURVE",
"381.358 -4.69 CURVE SMOOTH"
);
},
{
closed = 1;
nodes = (
"405.95 779.543 OFFCURVE",
"430.996 754.497 OFFCURVE",
"474.408 755.082 CURVE SMOOTH",
"517.82 754.497 OFFCURVE",
"542.866 779.543 OFFCURVE",
"543.409 824.082 CURVE SMOOTH",
"542.866 869.743 OFFCURVE",
"517.82 893.083 OFFCURVE",
"474.408 893.083 CURVE SMOOTH",
"429.326 893.083 OFFCURVE",
"405.95 869.743 OFFCURVE",
"405.408 824.082 CURVE SMOOTH"
);
},
{
closed = 1;
nodes = (
"210.988 779.186 OFFCURVE",
"236.033 754.14 OFFCURVE",
"279.445 754.725 CURVE SMOOTH",
"322.857 754.14 OFFCURVE",
"347.903 779.186 OFFCURVE",
"348.446 823.725 CURVE SMOOTH",
"347.903 869.386 OFFCURVE",
"322.857 892.725 OFFCURVE",
"279.445 892.725 CURVE SMOOTH",
"234.363 892.725 OFFCURVE",
"210.988 869.386 OFFCURVE",
"210.445 823.725 CURVE SMOOTH"
);
}
);
width = 761;
}
);
unicode = 00DC;
},
{
glyphname = Yacute;
layers = (
{
layerId = "9e608202-4e31-4786-af01-fb7a634e06d8";
paths = (
{
closed = 1;
nodes = (
"397.486 759.436 LINE",
"596.37 887.879 LINE",
"400.77 887.879 LINE",
"292.879 759.436 LINE"
);
},
{
closed = 1;
nodes = (
"431.681 0.027 LINE",
"431.681 272.988 LINE",
"718.272 700.011 LINE",
"551.901 700.011 LINE",
"361.641 408.478 LINE",
"171.371 700.011 LINE",
"5.02 700.011 LINE",
"291.6 272.969 LINE",
"291.6 0.027 LINE"
);
}
);
width = 723;
}
);
unicode = 00DD;
},
{
glyphname = Thorn;
layers = (
{
layerId = "9e608202-4e31-4786-af01-fb7a634e06d8";
paths = (
{
closed = 1;
nodes = (
"78 0.01 LINE",
"78 699.99 LINE",
"222.787 699.99 LINE",
"222.787 581.835 LINE",
"366.731 581.835 LINE SMOOTH",
"468.522 581.835 OFFCURVE",
"639.277 551.664 OFFCURVE",
"639.277 349.597 CURVE SMOOTH",
"639.277 148.229 OFFCURVE",
"468.522 118.164 OFFCURVE",
"366.731 118.164 CURVE SMOOTH",
"222.787 118.164 LINE",
"222.787 0.01 LINE"
);
},
{
closed = 1;
nodes = (
"362.824 245.482 LINE SMOOTH",
"471.21 245.482 OFFCURVE",
"493.416 287.101 OFFCURVE",
"493.416 349.597 CURVE SMOOTH",
"493.416 412.093 OFFCURVE",
"471.21 453.712 OFFCURVE",
"362.824 453.712 CURVE SMOOTH",
"222.787 453.712 LINE",
"222.787 245.482 LINE"
);
}
);
width = 686;
}
);
unicode = 00DE;
},
{
glyphname = germandbls;
layers = (
{
layerId = "9e608202-4e31-4786-af01-fb7a634e06d8";
paths = (
{
closed = 1;
nodes = (
"314.099 -3.78 OFFCURVE",
"294.678 -2.219 OFFCURVE",
"276.052 0.882 CURVE",
"303.568 129.763 LINE",
"314.507 127.682 OFFCURVE",
"322.642 127.355 OFFCURVE",
"322.724 127.355 CURVE",
"323.851 127.315 LINE",
"324.876 127.212 LINE",
"325.289 127.181 OFFCURVE",
"330.062 126.773 OFFCURVE",
"337.555 126.773 CURVE",
"438.007 126.773 OFFCURVE",
"463.318 177.448 OFFCURVE",
"466.859 219.964 CURVE SMOOTH",
"469.499 251.655 OFFCURVE",
"463.139 275.385 OFFCURVE",
"447.412 292.478 CURVE SMOOTH",
"417.977 324.468 OFFCURVE",
"362.341 330.336 OFFCURVE",
"356.094 330.336 CURVE",
"302.956 330.305 LINE",
"302.956 448.2 LINE",
"345.067 448.2 LINE SMOOTH",
"414.093 448.2 OFFCURVE",
"433.846 488.874 OFFCURVE",
"438.262 518.832 CURVE",
"439.053 524.187 OFFCURVE",
"442.02 552.033 OFFCURVE",
"422.764 574.342 CURVE SMOOTH",
"401.826 598.598 OFFCURVE",
"363.912 603.689 OFFCURVE",
"335.795 603.689 CURVE SMOOTH",
"247.431 603.689 OFFCURVE",
"228.233 553.901 OFFCURVE",
"226.336 548.219 CURVE",
"225.622 545.241 LINE",
"224.699 544.241 LINE",
"224.311 542.875 LINE",
"222.74 538.447 OFFCURVE",
"214.636 512.763 OFFCURVE",
"214.636 461.436 CURVE SMOOTH",
"214.636 -0.21 LINE",
"78.161 -0.21 LINE",
"78.161 455.07 LINE",
"77.943 461.455 OFFCURVE",
"76.727 516.967 OFFCURVE",
"86.638 565.07 CURVE SMOOTH",
"108.251 669.973 OFFCURVE",
"203.319 732.681 OFFCURVE",
"341.977 732.681 CURVE SMOOTH",
"475.321 732.681 OFFCURVE",
"563.253 660.484 OFFCURVE",
"571.457 544.241 CURVE SMOOTH",
"575.116 492.404 OFFCURVE",
"559.85 447.267 OFFCURVE",
"526.082 410.087 CURVE",
"521.726 405.293 LINE",
"526.888 401.386 LINE",
"563.9 373.376 OFFCURVE",
"606.855 318.917 OFFCURVE",
"601.36 218.536 CURVE SMOOTH",
"597.701 151.693 OFFCURVE",
"564.317 -3.78 OFFCURVE",
"333.872 -3.78 CURVE"
);
}
);
width = 649;
}
);
unicode = 00DF;
},
{
glyphname = agrave;
layers = (
{
layerId = "9e608202-4e31-4786-af01-fb7a634e06d8";
paths = (
{
closed = 1;
nodes = (
"150.359 -4.026 OFFCURVE",
"46.8 101.578 OFFCURVE",
"46.8 271.577 CURVE SMOOTH",
"46.8 441.574 OFFCURVE",
"150.359 547.178 OFFCURVE",
"317.064 547.178 CURVE SMOOTH",
"378.885 547.178 OFFCURVE",
"432.804 532.821 OFFCURVE",
"475.877 505.244 CURVE",
"483.529 543.542 LINE",
"590.473 543.542 LINE",
"590.473 -0.389 LINE",
"483.525 -0.389 LINE",
"475.877 37.908 LINE",
"432.804 10.331 OFFCURVE",
"378.885 -4.026 OFFCURVE",
"317.064 -4.026 CURVE SMOOTH"
);
},
{
closed = 1;
nodes = (
"223.73 423.715 OFFCURVE",
"175.761 373.951 OFFCURVE",
"175.761 271.577 CURVE SMOOTH",
"175.761 169.206 OFFCURVE",
"223.73 119.441 OFFCURVE",
"322.402 119.441 CURVE SMOOTH",
"421.074 119.441 OFFCURVE",
"469.039 169.206 OFFCURVE",
"469.039 271.577 CURVE SMOOTH",
"469.039 373.951 OFFCURVE",
"421.074 423.715 OFFCURVE",
"322.402 423.715 CURVE SMOOTH"
);
},
{
closed = 1;
nodes = (
"314.36 607.301 LINE",
"115.475 735.744 LINE",
"311.077 735.744 LINE",
"418.967 607.301 LINE"
);
}
);
width = 668;
}
);
unicode = 00E0;
},
{
glyphname = aacute;
layers = (
{
layerId = "9e608202-4e31-4786-af01-fb7a634e06d8";
paths = (
{
closed = 1;
nodes = (
"150.547 -4.055 OFFCURVE",
"46.8 101.742 OFFCURVE",
"46.8 272.05 CURVE SMOOTH",
"46.8 442.356 OFFCURVE",
"150.547 548.153 OFFCURVE",
"317.556 548.153 CURVE SMOOTH",
"379.49 548.153 OFFCURVE",
"433.506 533.77 OFFCURVE",
"476.658 506.142 CURVE",
"484.324 544.511 LINE",
"591.463 544.511 LINE",
"591.463 -0.411 LINE",
"484.319 -0.411 LINE",
"476.658 37.956 LINE",
"433.506 10.328 OFFCURVE",
"379.49 -4.055 OFFCURVE",
"317.556 -4.055 CURVE SMOOTH"
);
},
{
closed = 1;
nodes = (
"224.052 424.466 OFFCURVE",
"175.996 374.61 OFFCURVE",
"175.996 272.05 CURVE SMOOTH",
"175.996 169.493 OFFCURVE",
"224.052 119.637 OFFCURVE",
"322.903 119.637 CURVE SMOOTH",
"421.755 119.637 OFFCURVE",
"469.807 169.493 OFFCURVE",
"469.807 272.05 CURVE SMOOTH",
"469.807 374.61 OFFCURVE",
"421.755 424.466 OFFCURVE",
"322.903 424.466 CURVE SMOOTH"
);
},
{
closed = 1;
nodes = (
"241.449 608.378 LINE",
"349.535 737.063 LINE",
"545.493 737.063 LINE",
"346.245 608.378 LINE"
);
}
);
width = 669;
}
);
unicode = 00E1;
},
{
glyphname = acircumflex;
layers = (
{
layerId = "9e608202-4e31-4786-af01-fb7a634e06d8";
paths = (
{
closed = 1;
nodes = (
"150.498 -3.99 OFFCURVE",
"46.8 101.757 OFFCURVE",
"46.8 271.985 CURVE SMOOTH",
"46.8 442.211 OFFCURVE",
"150.498 547.958 OFFCURVE",
"317.429 547.958 CURVE SMOOTH",
"379.332 547.958 OFFCURVE",
"433.324 533.582 OFFCURVE",
"476.455 505.967 CURVE",
"484.117 544.317 LINE",
"591.205 544.317 LINE",
"591.205 -0.348 LINE",
"484.113 -0.348 LINE",
"476.455 38.001 LINE",
"433.324 10.387 OFFCURVE",
"379.332 -3.99 OFFCURVE",
"317.429 -3.99 CURVE SMOOTH"
);
},
{
closed = 1;
nodes = (
"223.968 424.329 OFFCURVE",
"175.935 374.497 OFFCURVE",
"175.935 271.985 CURVE SMOOTH",
"175.935 169.476 OFFCURVE",
"223.968 119.644 OFFCURVE",
"322.774 119.644 CURVE SMOOTH",
"421.578 119.644 OFFCURVE",
"469.608 169.476 OFFCURVE",
"469.608 271.985 CURVE SMOOTH",
"469.608 374.497 OFFCURVE",
"421.578 424.329 OFFCURVE",
"322.774 424.329 CURVE SMOOTH"
);
},
{
closed = 1;
nodes = (
"364.939 608.651 LINE",
"319.003 654.204 LINE",
"273.067 608.651 LINE",
"161.412 608.651 LINE",
"293.078 737.133 LINE",
"344.928 737.133 LINE",
"476.593 608.651 LINE"
);
}
);
width = 669;
}
);
unicode = 00E2;
},
{
glyphname = atilde;
layers = (
{
layerId = "9e608202-4e31-4786-af01-fb7a634e06d8";
paths = (
{
closed = 1;
nodes = (
"408.098 726.532 LINE",
"408.098 726.532 OFFCURVE",
"418.219 688.461 OFFCURVE",
"385.492 685.228 CURVE SMOOTH",
"358.626 682.575 OFFCURVE",
"329.721 736.695 OFFCURVE",
"265.027 730.312 CURVE SMOOTH",
"194.194 723.324 OFFCURVE",
"173.065 656.103 OFFCURVE",
"187.61 607.085 CURVE",
"263.268 607.085 LINE",
"263.268 607.085 OFFCURVE",
"254.183 642.211 OFFCURVE",
"285.875 643.525 CURVE SMOOTH",
"312.852 644.645 OFFCURVE",
"341.643 595.326 OFFCURVE",
"406.338 603.412 CURVE SMOOTH",
"476.966 612.238 OFFCURVE",
"498.298 680.558 OFFCURVE",
"483.756 726.747 CURVE"
);
},
{
closed = 1;
nodes = (
"150.361 -3.697 OFFCURVE",
"46.8 101.909 OFFCURVE",
"46.8 271.909 CURVE SMOOTH",
"46.8 441.909 OFFCURVE",
"150.361 547.515 OFFCURVE",
"317.068 547.515 CURVE SMOOTH",
"378.89 547.515 OFFCURVE",
"432.81 533.158 OFFCURVE",
"475.883 505.58 CURVE",
"483.535 543.879 LINE",
"590.481 543.879 LINE",
"590.481 -0.06 LINE",
"483.531 -0.06 LINE",
"475.883 38.238 LINE",
"432.81 10.66 OFFCURVE",
"378.89 -3.697 OFFCURVE",
"317.068 -3.697 CURVE SMOOTH"
);
},
{
closed = 1;
nodes = (
"223.733 424.05 OFFCURVE",
"175.763 374.285 OFFCURVE",
"175.763 271.909 CURVE SMOOTH",
"175.763 169.537 OFFCURVE",
"223.733 119.771 OFFCURVE",
"322.407 119.771 CURVE SMOOTH",
"421.079 119.771 OFFCURVE",
"469.045 169.537 OFFCURVE",
"469.045 271.909 CURVE SMOOTH",
"469.045 374.285 OFFCURVE",
"421.079 424.05 OFFCURVE",
"322.407 424.05 CURVE SMOOTH"
);
}
);
width = 668;
}
);
unicode = 00E3;
},
{
glyphname = adieresis;
layers = (
{
layerId = "9e608202-4e31-4786-af01-fb7a634e06d8";
paths = (
{
closed = 1;
nodes = (
"153.454 718.972 OFFCURVE",
"177.102 742.584 OFFCURVE",
"222.711 742.584 CURVE SMOOTH",
"266.63 742.584 OFFCURVE",
"291.968 718.972 OFFCURVE",
"292.517 672.778 CURVE SMOOTH",
"291.968 627.718 OFFCURVE",
"266.63 602.38 OFFCURVE",
"222.711 602.972 CURVE SMOOTH",
"178.792 602.38 OFFCURVE",
"153.454 627.718 OFFCURVE",
"152.905 672.778 CURVE SMOOTH"
);
},
{
closed = 1;
nodes = (
"150.393 -3.636 OFFCURVE",
"46.8 102.004 OFFCURVE",
"46.8 272.059 CURVE SMOOTH",
"46.8 442.113 OFFCURVE",
"150.393 547.753 OFFCURVE",
"317.155 547.753 CURVE SMOOTH",
"378.997 547.753 OFFCURVE",
"432.933 533.391 OFFCURVE",
"476.021 505.805 CURVE",
"483.676 544.116 LINE",
"590.656 544.116 LINE",
"590.656 0.002 LINE",
"483.671 0.002 LINE",
"476.021 38.312 LINE",
"432.933 10.726 OFFCURVE",
"378.997 -3.636 OFFCURVE",
"317.155 -3.636 CURVE SMOOTH"
);
},
{
closed = 1;
nodes = (
"223.79 424.249 OFFCURVE",
"174.805 374.467 OFFCURVE",
"174.805 272.059 CURVE SMOOTH",
"174.805 169.654 OFFCURVE",
"223.79 119.872 OFFCURVE",
"322.494 119.872 CURVE SMOOTH",
"421.2 119.872 OFFCURVE",
"469.18 169.654 OFFCURVE",
"469.18 272.059 CURVE SMOOTH",
"469.18 374.467 OFFCURVE",
"421.2 424.249 OFFCURVE",
"322.494 424.249 CURVE SMOOTH"
);
},
{
closed = 1;
nodes = (
"344.996 718.071 OFFCURVE",
"368.645 741.683 OFFCURVE",
"414.253 741.683 CURVE SMOOTH",
"458.172 741.683 OFFCURVE",
"483.51 718.071 OFFCURVE",
"484.059 671.877 CURVE SMOOTH",
"483.51 626.817 OFFCURVE",
"458.172 601.479 OFFCURVE",
"414.253 602.071 CURVE SMOOTH",
"370.334 601.479 OFFCURVE",
"344.996 626.817 OFFCURVE",
"344.447 671.877 CURVE SMOOTH"
);
}
);
width = 669;
}
);
unicode = 00E4;
},
{
glyphname = aring;
layers = (
{
layerId = "9e608202-4e31-4786-af01-fb7a634e06d8";
paths = (
{
closed = 1;
nodes = (
"253.762 599.928 OFFCURVE",
"213.248 640.442 OFFCURVE",
"213.248 705.663 CURVE SMOOTH",
"213.248 770.881 OFFCURVE",
"253.762 811.395 OFFCURVE",
"318.983 811.395 CURVE SMOOTH",
"384.201 811.395 OFFCURVE",
"424.716 770.881 OFFCURVE",
"424.716 705.663 CURVE SMOOTH",
"424.716 640.442 OFFCURVE",
"384.201 599.928 OFFCURVE",
"318.983 599.928 CURVE SMOOTH"
);
},
{
closed = 1;
nodes = (
"286.053 753.278 OFFCURVE",
"271.369 738.593 OFFCURVE",
"271.369 705.663 CURVE SMOOTH",
"271.369 672.733 OFFCURVE",
"286.053 658.048 OFFCURVE",
"318.983 658.048 CURVE SMOOTH",
"351.914 658.048 OFFCURVE",
"366.598 672.733 OFFCURVE",
"366.598 705.663 CURVE SMOOTH",
"366.598 738.593 OFFCURVE",
"351.914 753.278 OFFCURVE",
"318.983 753.278 CURVE SMOOTH"
);
},
{
closed = 1;
nodes = (
"150.49 -3.738 OFFCURVE",
"46.8 102.001 OFFCURVE",
"46.8 272.215 CURVE SMOOTH",
"46.8 442.429 OFFCURVE",
"150.49 548.168 OFFCURVE",
"317.408 548.168 CURVE SMOOTH",
"379.307 548.168 OFFCURVE",
"433.294 533.793 OFFCURVE",
"476.423 506.18 CURVE",
"484.084 544.528 LINE",
"591.164 544.528 LINE",
"591.164 -0.097 LINE",
"484.08 -0.097 LINE",
"476.423 38.25 LINE",
"433.294 10.637 OFFCURVE",
"379.307 -3.738 OFFCURVE",
"317.408 -3.738 CURVE SMOOTH"
);
},
{
closed = 1;
nodes = (
"223.956 424.548 OFFCURVE",
"175.925 374.72 OFFCURVE",
"175.925 272.215 CURVE SMOOTH",
"175.925 169.714 OFFCURVE",
"223.956 119.886 OFFCURVE",
"322.753 119.886 CURVE SMOOTH",
"421.549 119.886 OFFCURVE",
"469.575 169.714 OFFCURVE",
"469.575 272.215 CURVE SMOOTH",
"469.575 374.72 OFFCURVE",
"421.549 424.548 OFFCURVE",
"322.753 424.548 CURVE SMOOTH"
);
}
);
width = 669;
}
);
unicode = 00E5;
},
{
glyphname = ae;
layers = (
{
layerId = "9e608202-4e31-4786-af01-fb7a634e06d8";
paths = (
{
closed = 1;
nodes = (
"208.257 -5.925 OFFCURVE",
"92.481 29.692 OFFCURVE",
"56.471 126.358 CURVE SMOOTH",
"41.466 166.636 OFFCURVE",
"44.041 213.783 OFFCURVE",
"63.362 252.457 CURVE SMOOTH",
"99.127 324.047 OFFCURVE",
"189.747 326.109 OFFCURVE",
"199.96 326.109 CURVE",
"462.391 326.109 LINE",
"452.08 395.774 OFFCURVE",
"389.571 437.447 OFFCURVE",
"302.059 437.447 CURVE SMOOTH",
"240.643 437.447 OFFCURVE",
"188.696 418.407 OFFCURVE",
"154.915 383.688 CURVE",
"74.865 468.501 LINE",
"127.323 522.435 OFFCURVE",
"207.732 552.063 OFFCURVE",
"302.059 552.063 CURVE SMOOTH",
"397.681 552.063 OFFCURVE",
"479.386 517.845 OFFCURVE",
"529.86 462.4 CURVE",
"580.329 518.095 OFFCURVE",
"662.143 552.459 OFFCURVE",
"758.015 552.459 CURVE SMOOTH",
"850.708 552.459 OFFCURVE",
"925.359 524.143 OFFCURVE",
"973.903 470.572 CURVE SMOOTH",
"1023.325 416.032 OFFCURVE",
"1045.284 336.631 OFFCURVE",
"1029.478 243.129 CURVE SMOOTH",
"1025.334 220.414 LINE",
"597.183 220.414 LINE",
"611.624 148.86 OFFCURVE",
"667.639 109.077 OFFCURVE",
"758.015 109.077 CURVE SMOOTH",
"818.109 109.077 OFFCURVE",
"869.374 127.503 OFFCURVE",
"903.238 161.107 CURVE",
"983.423 76.149 LINE",
"930.977 23.421 OFFCURVE",
"851.208 -5.529 OFFCURVE",
"758.015 -5.529 CURVE SMOOTH",
"662.393 -5.529 OFFCURVE",
"580.688 28.689 OFFCURVE",
"530.208 84.134 CURVE",
"479.739 28.439 OFFCURVE",
"397.926 -5.925 OFFCURVE",
"302.059 -5.925 CURVE SMOOTH"
);
},
{
closed = 1;
nodes = (
"243.719 220.185 LINE SMOOTH",
"197.019 220.185 OFFCURVE",
"169.314 215.229 OFFCURVE",
"165.871 189.912 CURVE SMOOTH",
"160.798 152.602 OFFCURVE",
"196.425 131.81 OFFCURVE",
"218.188 122.922 CURVE SMOOTH",
"241.62 113.352 OFFCURVE",
"269.865 108.691 OFFCURVE",
"302.059 108.691 CURVE SMOOTH",
"390.998 108.691 OFFCURVE",
"453.03 148.86 OFFCURVE",
"462.839 220.185 CURVE"
);
},
{
closed = 1;
nodes = (
"669.576 437.832 OFFCURVE",
"606.876 394.824 OFFCURVE",
"597.282 326.505 CURVE",
"913.763 326.505 LINE",
"910.012 354.398 OFFCURVE",
"903.187 377.367 OFFCURVE",
"882.678 397.784 CURVE SMOOTH",
"856.36 423.984 OFFCURVE",
"813.253 437.832 OFFCURVE",
"758.015 437.832 CURVE SMOOTH"
);
}
);
width = 1080;
}
);
unicode = 00E6;
},
{
glyphname = ccedilla;
layers = (
{
layerId = "9e608202-4e31-4786-af01-fb7a634e06d8";
paths = (
{
closed = 1;
nodes = (
"450.472 202.511 LINE",
"433.146 144.005 OFFCURVE",
"392.418 117.911 OFFCURVE",
"318.406 117.911 CURVE SMOOTH",
"221.871 117.911 OFFCURVE",
"174.942 168.055 OFFCURVE",
"174.942 271.208 CURVE SMOOTH",
"174.942 374.361 OFFCURVE",
"221.871 424.505 OFFCURVE",
"318.406 424.505 CURVE SMOOTH",
"392.418 424.505 OFFCURVE",
"433.146 398.41 OFFCURVE",
"450.472 339.904 CURVE",
"581.365 339.836 LINE",
"557.672 467 OFFCURVE",
"457.415 547.194 OFFCURVE",
"317.387 547.194 CURVE SMOOTH",
"150.481 547.194 OFFCURVE",
"46.8 441.442 OFFCURVE",
"46.8 271.209 CURVE SMOOTH",
"46.8 112.387 OFFCURVE",
"137.07 9.728 OFFCURVE",
"284.71 -3.327 CURVE",
"256.933 -108.717 LINE",
"268.416 -107.48 OFFCURVE",
"279.474 -105.827 OFFCURVE",
"290.951 -105.827 CURVE",
"335.672 -105.827 OFFCURVE",
"342.345 -122.494 OFFCURVE",
"342.345 -132.435 CURVE",
"342.345 -155.049 OFFCURVE",
"316.29 -158.43 OFFCURVE",
"300.76 -158.43 CURVE",
"281.902 -158.43 OFFCURVE",
"261.127 -153.061 OFFCURVE",
"246.519 -144.416 CURVE",
"231.805 -135.711 LINE",
"203.707 -198.527 LINE",
"216.459 -205.166 LINE",
"218.089 -206.015 OFFCURVE",
"256.923 -225.94 OFFCURVE",
"305.236 -225.94 CURVE",
"348.319 -225.94 OFFCURVE",
"393.989 -209.269 OFFCURVE",
"414.043 -168.152 CURVE SMOOTH",
"442.115 -110.596 OFFCURVE",
"404.259 -56.045 OFFCURVE",
"343.291 -47.74 CURVE",
"354.897 -2.842 LINE",
"484.113 9.47 OFFCURVE",
"558.622 78.586 OFFCURVE",
"581.365 202.58 CURVE"
);
}
);
width = 628;
}
);
unicode = 00E7;
},
{
glyphname = egrave;
layers = (
{
layerId = "9e608202-4e31-4786-af01-fb7a634e06d8";
paths = (
{
closed = 1;
nodes = (
"300.91 608.972 LINE",
"101.682 737.644 LINE",
"297.621 737.644 LINE",
"405.698 608.972 LINE"
);
},
{
closed = 1;
nodes = (
"549.203 92.71 LINE",
"499.769 31.463 OFFCURVE",
"419.393 -2.266 OFFCURVE",
"322.878 -2.266 CURVE SMOOTH",
"152.587 -2.266 OFFCURVE",
"46.8 103.52 OFFCURVE",
"46.8 273.811 CURVE SMOOTH",
"46.8 444.103 OFFCURVE",
"152.587 549.89 OFFCURVE",
"322.878 549.89 CURVE SMOOTH",
"410.807 549.89 OFFCURVE",
"481.748 521.796 OFFCURVE",
"528.039 468.65 CURVE SMOOTH",
"575.207 414.497 OFFCURVE",
"593.586 336.688 OFFCURVE",
"581.183 243.635 CURVE SMOOTH",
"577.58 216.583 LINE",
"180.136 216.583 LINE",
"180.136 155.278 OFFCURVE",
"247.597 115.468 OFFCURVE",
"328.89 115.468 CURVE SMOOTH",
"386.956 115.468 OFFCURVE",
"437.472 139.368 OFFCURVE",
"467.657 174.614 CURVE"
);
},
{
closed = 1;
nodes = (
"461.444 322.481 LINE",
"458.287 348.887 OFFCURVE",
"449.347 370.432 OFFCURVE",
"434.721 386.771 CURVE SMOOTH",
"411.069 413.194 OFFCURVE",
"370.114 428.355 OFFCURVE",
"314.488 427.166 CURVE SMOOTH",
"261.027 426.024 OFFCURVE",
"186.391 408.536 OFFCURVE",
"177.611 322.481 CURVE"
);
}
);
width = 632;
}
);
unicode = 00E8;
},
{
glyphname = eacute;
layers = (
{
layerId = "9e608202-4e31-4786-af01-fb7a634e06d8";
paths = (
{
closed = 1;
nodes = (
"322.516 609.191 LINE",
"522.068 738.079 LINE",
"325.811 738.079 LINE",
"217.558 609.191 LINE"
);
},
{
closed = 1;
nodes = (
"550.02 92.096 LINE",
"500.505 30.749 OFFCURVE",
"420 -3.034 OFFCURVE",
"323.327 -3.034 CURVE SMOOTH",
"152.76 -3.034 OFFCURVE",
"46.801 102.924 OFFCURVE",
"46.801 273.492 CURVE SMOOTH",
"46.801 444.06 OFFCURVE",
"152.76 550.019 OFFCURVE",
"323.327 550.019 CURVE SMOOTH",
"411.399 550.019 OFFCURVE",
"482.455 521.88 OFFCURVE",
"528.822 468.647 CURVE SMOOTH",
"576.067 414.407 OFFCURVE",
"594.476 336.471 OFFCURVE",
"582.052 243.267 CURVE SMOOTH",
"578.444 216.17 LINE",
"180.354 216.17 LINE",
"180.354 154.766 OFFCURVE",
"247.925 114.891 OFFCURVE",
"329.349 114.891 CURVE SMOOTH",
"387.51 114.891 OFFCURVE",
"438.108 138.83 OFFCURVE",
"468.342 174.133 CURVE"
);
},
{
closed = 1;
nodes = (
"462.119 322.241 LINE",
"458.956 348.689 OFFCURVE",
"450 370.271 OFFCURVE",
"435.351 386.635 CURVE SMOOTH",
"411.66 413.102 OFFCURVE",
"370.638 428.286 OFFCURVE",
"314.922 427.096 CURVE SMOOTH",
"261.375 425.952 OFFCURVE",
"186.617 408.435 OFFCURVE",
"177.823 322.24 CURVE"
);
}
);
width = 633;
}
);
unicode = 00E9;
},
{
glyphname = ecircumflex;
layers = (
{
layerId = "9e608202-4e31-4786-af01-fb7a634e06d8";
paths = (
{
closed = 1;
nodes = (
"363.094 608.602 LINE",
"317.14 654.172 LINE",
"271.186 608.602 LINE",
"159.488 608.602 LINE",
"291.204 737.134 LINE",
"343.075 737.134 LINE",
"474.792 608.602 LINE"
);
},
{
closed = 1;
nodes = (
"549.209 91.839 LINE",
"499.773 30.59 OFFCURVE",
"419.397 -3.139 OFFCURVE",
"322.881 -3.139 CURVE SMOOTH",
"152.588 -3.139 OFFCURVE",
"46.8 102.649 OFFCURVE",
"46.8 272.942 CURVE SMOOTH",
"46.8 443.235 OFFCURVE",
"152.588 549.023 OFFCURVE",
"322.881 549.023 CURVE SMOOTH",
"410.81 549.023 OFFCURVE",
"481.752 520.93 OFFCURVE",
"528.044 467.783 CURVE SMOOTH",
"575.212 413.63 OFFCURVE",
"593.592 335.819 OFFCURVE",
"581.188 242.765 CURVE SMOOTH",
"577.586 215.712 LINE",
"180.138 215.712 LINE",
"180.138 154.407 OFFCURVE",
"247.599 114.597 OFFCURVE",
"328.893 114.597 CURVE SMOOTH",
"386.959 114.597 OFFCURVE",
"437.476 138.497 OFFCURVE",
"467.662 173.743 CURVE"
);
},
{
closed = 1;
nodes = (
"461.449 321.612 LINE",
"458.292 348.018 OFFCURVE",
"449.35 369.564 OFFCURVE",
"434.725 385.903 CURVE SMOOTH",
"411.072 412.326 OFFCURVE",
"370.117 427.487 OFFCURVE",
"314.49 426.298 CURVE SMOOTH",
"261.029 425.156 OFFCURVE",
"186.392 407.668 OFFCURVE",
"177.612 321.612 CURVE"
);
}
);
width = 632;
}
);
unicode = 00EA;
},
{
glyphname = edieresis;
layers = (
{
layerId = "9e608202-4e31-4786-af01-fb7a634e06d8";
paths = (
{
closed = 1;
nodes = (
"151.26 716.924 OFFCURVE",
"174.817 740.446 OFFCURVE",
"220.25 740.446 CURVE SMOOTH",
"264.001 740.446 OFFCURVE",
"289.241 716.924 OFFCURVE",
"289.788 670.908 CURVE SMOOTH",
"289.241 626.022 OFFCURVE",
"264.001 600.782 OFFCURVE",
"220.25 601.37 CURVE SMOOTH",
"176.5 600.782 OFFCURVE",
"151.26 626.022 OFFCURVE",
"150.713 670.908 CURVE SMOOTH"
);
},
{
closed = 1;
nodes = (
"549.535 90.064 LINE",
"500.068 28.776 OFFCURVE",
"419.639 -4.975 OFFCURVE",
"323.06 -4.975 CURVE SMOOTH",
"152.656 -4.975 OFFCURVE",
"46.8 100.881 OFFCURVE",
"46.8 271.284 CURVE SMOOTH",
"46.8 441.688 OFFCURVE",
"152.656 547.545 OFFCURVE",
"323.06 547.545 CURVE SMOOTH",
"411.047 547.545 OFFCURVE",
"482.037 519.435 OFFCURVE",
"528.356 466.252 CURVE SMOOTH",
"575.558 412.065 OFFCURVE",
"593.947 334.203 OFFCURVE",
"581.536 241.088 CURVE SMOOTH",
"577.931 214.018 LINE",
"180.224 214.018 LINE",
"180.224 152.673 OFFCURVE",
"247.73 112.837 OFFCURVE",
"329.076 112.837 CURVE SMOOTH",
"387.18 112.837 OFFCURVE",
"437.729 136.753 OFFCURVE",
"467.935 172.022 CURVE"
);
},
{
closed = 1;
nodes = (
"461.718 319.986 LINE",
"458.559 346.409 OFFCURVE",
"449.614 367.97 OFFCURVE",
"434.978 384.319 CURVE SMOOTH",
"411.311 410.76 OFFCURVE",
"370.327 425.929 OFFCURVE",
"314.665 424.74 CURVE SMOOTH",
"261.169 423.597 OFFCURVE",
"186.483 406.098 OFFCURVE",
"177.698 319.986 CURVE"
);
},
{
closed = 1;
nodes = (
"343.03 716.64 OFFCURVE",
"366.588 740.161 OFFCURVE",
"412.021 740.161 CURVE SMOOTH",
"455.771 740.161 OFFCURVE",
"481.012 716.64 OFFCURVE",
"481.559 670.623 CURVE SMOOTH",
"481.012 625.737 OFFCURVE",
"455.771 600.497 OFFCURVE",
"412.021 601.086 CURVE SMOOTH",
"368.271 600.497 OFFCURVE",
"343.03 625.737 OFFCURVE",
"342.484 670.623 CURVE SMOOTH"
);
}
);
width = 632;
}
);
unicode = 00EB;
},
{
glyphname = igrave;
layers = (
{
layerId = "9e608202-4e31-4786-af01-fb7a634e06d8";
paths = (
{
closed = 1;
nodes = (
"126.873 608.259 LINE",
"-72. 736.694 LINE",
"123.589 736.694 LINE",
"231.474 608.259 LINE"
);
},
{
closed = 1;
nodes = (
"112.188 0.01 LINE",
"112.188 543.96 LINE",
"238.448 543.96 LINE",
"238.448 0.01 LINE"
);
}
);
width = 335;
}
);
unicode = 00EC;
},
{
glyphname = iacute;
layers = (
{
layerId = "9e608202-4e31-4786-af01-fb7a634e06d8";
paths = (
{
closed = 1;
nodes = (
"208.574 608.253 LINE",
"407.447 736.695 LINE",
"211.858 736.695 LINE",
"103.974 608.253 LINE"
);
},
{
closed = 1;
nodes = (
"223.26 0.006 LINE",
"223.26 543.96 LINE",
"97. 543.96 LINE",
"97. 0.006 LINE"
);
}
);
width = 335;
}
);
unicode = 00ED;
},
{
glyphname = icircumflex;
layers = (
{
layerId = "9e608202-4e31-4786-af01-fb7a634e06d8";
paths = (
{
closed = 1;
nodes = (
"171.271 608.838 LINE",
"125.393 654.334 LINE",
"79.514 608.838 LINE",
"-32. 608.838 LINE",
"99.5 737.159 LINE",
"151.285 737.159 LINE",
"282.785 608.838 LINE"
);
},
{
closed = 1;
nodes = (
"58.734 0.01 LINE",
"58.734 544.042 LINE",
"185.014 544.042 LINE",
"185.014 0.01 LINE"
);
}
);
width = 260;
}
);
unicode = 00EE;
},
{
glyphname = idieresis;
layers = (
{
layerId = "9e608202-4e31-4786-af01-fb7a634e06d8";
paths = (
{
closed = 1;
nodes = (
"13.548 719.764 OFFCURVE",
"37.021 743.2 OFFCURVE",
"82.289 743.2 CURVE SMOOTH",
"125.88 743.2 OFFCURVE",
"151.029 719.764 OFFCURVE",
"151.574 673.914 CURVE SMOOTH",
"151.029 629.191 OFFCURVE",
"125.88 604.042 OFFCURVE",
"82.289 604.629 CURVE SMOOTH",
"38.697 604.042 OFFCURVE",
"13.548 629.191 OFFCURVE",
"13.003 673.914 CURVE SMOOTH"
);
},
{
closed = 1;
nodes = (
"114.606 0.96 LINE",
"114.606 545.379 LINE",
"240.975 545.379 LINE",
"240.975 0.96 LINE"
);
},
{
closed = 1;
nodes = (
"204.559 719.613 OFFCURVE",
"228.032 743.049 OFFCURVE",
"273.3 743.049 CURVE SMOOTH",
"316.892 743.049 OFFCURVE",
"342.041 719.613 OFFCURVE",
"342.585 673.763 CURVE SMOOTH",
"342.041 629.04 OFFCURVE",
"316.892 603.891 OFFCURVE",
"273.3 604.478 CURVE SMOOTH",
"229.708 603.891 OFFCURVE",
"204.559 629.04 OFFCURVE",
"204.014 673.763 CURVE SMOOTH"
);
}
);
width = 356;
}
);
unicode = 00EF;
},
{
glyphname = eth;
layers = (
{
layerId = "9e608202-4e31-4786-af01-fb7a634e06d8";
paths = (
{
closed = 1;
nodes = (
"600.771 277.131 OFFCURVE",
"599.927 481.906 OFFCURVE",
"463.118 602.212 CURVE",
"561.452 645.318 LINE",
"537.487 699.99 LINE",
"406.209 642.442 LINE",
"323.454 687.779 OFFCURVE",
"223.983 702.63 OFFCURVE",
"130.6 699.01 CURVE",
"135.062 587.409 LINE",
"175.555 590.886 OFFCURVE",
"223.579 586.908 OFFCURVE",
"262.911 579.626 CURVE",
"149.768 530.027 LINE",
"173.734 475.357 LINE",
"348.871 552.132 LINE",
"361.094 546.045 OFFCURVE",
"372.823 539.061 OFFCURVE",
"383.58 530.787 CURVE",
"457.698 473.772 OFFCURVE",
"471.382 408.777 OFFCURVE",
"471.382 408.777 CURVE",
"471.382 408.777 OFFCURVE",
"416.078 464.08 OFFCURVE",
"296.753 462.132 CURVE",
"232.05 461.085 OFFCURVE",
"167.217 441.962 OFFCURVE",
"118.066 398.385 CURVE SMOOTH",
"68.608 354.534 OFFCURVE",
"44.055 291.755 OFFCURVE",
"47.044 216.847 CURVE SMOOTH",
"53.657 51.088 OFFCURVE",
"191.941 -7.969 OFFCURVE",
"319.138 -7.969 CURVE",
"458.074 -8.784 OFFCURVE",
"607.042 69.02 OFFCURVE",
"600.37 253.219 CURVE"
);
},
{
closed = 1;
nodes = (
"271.624 94.356 OFFCURVE",
"161.396 106.851 OFFCURVE",
"156.779 222.511 CURVE SMOOTH",
"151.783 347.664 OFFCURVE",
"279.385 362.718 OFFCURVE",
"318.61 364.353 CURVE",
"368.805 368.234 OFFCURVE",
"486.642 352.085 OFFCURVE",
"491.26 236.405 CURVE SMOOTH",
"496.255 111.304 OFFCURVE",
"358.027 96.001 OFFCURVE",
"318.801 94.356 CURVE"
);
}
);
width = 647;
}
);
unicode = 00F0;
},
{
glyphname = ntilde;
layers = (
{
layerId = "9e608202-4e31-4786-af01-fb7a634e06d8";
paths = (
{
closed = 1;
nodes = (
"391.115 726.535 LINE",
"391.115 726.535 OFFCURVE",
"401.233 688.465 OFFCURVE",
"368.507 685.237 CURVE SMOOTH",
"341.639 682.576 OFFCURVE",
"312.738 736.704 OFFCURVE",
"248.038 730.32 CURVE SMOOTH",
"177.201 723.327 OFFCURVE",
"156.078 656.11 OFFCURVE",
"170.621 607.087 CURVE",
"246.274 607.087 LINE",
"246.274 607.087 OFFCURVE",
"237.198 642.217 OFFCURVE",
"268.883 643.527 CURVE SMOOTH",
"295.865 644.651 OFFCURVE",
"324.651 595.329 OFFCURVE",
"389.352 603.415 CURVE SMOOTH",
"459.983 612.244 OFFCURVE",
"481.312 680.564 OFFCURVE",
"466.769 726.751 CURVE"
);
},
{
closed = 1;
nodes = (
"581.1 -0.004 LINE",
"581.1 316.77 LINE SMOOTH",
"581.1 463.533 OFFCURVE",
"498.11 547.698 OFFCURVE",
"353.367 547.698 CURVE SMOOTH",
"280.584 547.698 OFFCURVE",
"227.8 525.915 OFFCURVE",
"193.264 504.183 CURVE",
"184.089 543.719 LINE",
"78.006 543.719 LINE",
"78.006 -0.241 LINE",
"204.192 -0.241 LINE",
"204.192 301.894 LINE",
"204.604 332.801 OFFCURVE",
"210.171 371.636 OFFCURVE",
"248.831 397.791 CURVE SMOOTH",
"274.811 415.296 OFFCURVE",
"308.11 424.935 OFFCURVE",
"342.543 424.935 CURVE SMOOTH",
"432.749 424.935 OFFCURVE",
"454.811 381.626 OFFCURVE",
"454.811 297.554 CURVE SMOOTH",
"454.811 -0.004 LINE"
);
}
);
width = 659;
}
);
unicode = 00F1;
},
{
glyphname = ograve;
layers = (
{
layerId = "9e608202-4e31-4786-af01-fb7a634e06d8";
paths = (
{
closed = 1;
nodes = (
"302.402 615.358 LINE",
"102.781 744.292 LINE",
"299.107 744.292 LINE",
"407.397 615.358 LINE"
);
},
{
closed = 1;
nodes = (
"152.791 -3.916 OFFCURVE",
"46.8 102.079 OFFCURVE",
"46.8 272.706 CURVE SMOOTH",
"46.8 443.333 OFFCURVE",
"152.791 549.328 OFFCURVE",
"323.418 549.328 CURVE SMOOTH",
"494.045 549.328 OFFCURVE",
"600.04 443.333 OFFCURVE",
"600.04 272.706 CURVE SMOOTH",
"600.04 102.079 OFFCURVE",
"494.045 -3.916 OFFCURVE",
"323.418 -3.916 CURVE SMOOTH"
);
},
{
closed = 1;
nodes = (
"222.05 429.005 OFFCURVE",
"172.768 377.878 OFFCURVE",
"172.768 272.706 CURVE SMOOTH",
"172.768 167.534 OFFCURVE",
"222.05 116.407 OFFCURVE",
"323.422 116.407 CURVE SMOOTH",
"424.795 116.407 OFFCURVE",
"474.078 167.534 OFFCURVE",
"474.078 272.706 CURVE SMOOTH",
"474.078 377.878 OFFCURVE",
"424.795 429.005 OFFCURVE",
"323.422 429.005 CURVE SMOOTH"
);
}
);
width = 647;
}
);
unicode = 00F2;
},
{
glyphname = oacute;
layers = (
{
layerId = "9e608202-4e31-4786-af01-fb7a634e06d8";
paths = (
{
closed = 1;
nodes = (
"357.438 618.358 LINE",
"557.059 744.292 LINE",
"360.733 744.292 LINE",
"252.443 618.358 LINE"
);
},
{
closed = 1;
nodes = (
"494.049 -3.916 OFFCURVE",
"600.04 102.079 OFFCURVE",
"600.04 272.706 CURVE SMOOTH",
"600.04 443.333 OFFCURVE",
"494.049 549.328 OFFCURVE",
"323.422 549.328 CURVE SMOOTH",
"152.795 549.328 OFFCURVE",
"46.8 443.333 OFFCURVE",
"46.8 272.706 CURVE SMOOTH",
"46.8 102.079 OFFCURVE",
"152.795 -3.916 OFFCURVE",
"323.422 -3.916 CURVE SMOOTH"
);
},
{
closed = 1;
nodes = (
"424.79 429.005 OFFCURVE",
"474.072 377.878 OFFCURVE",
"474.072 272.706 CURVE SMOOTH",
"474.072 167.534 OFFCURVE",
"424.79 116.407 OFFCURVE",
"323.418 116.407 CURVE SMOOTH",
"222.045 116.407 OFFCURVE",
"172.763 167.534 OFFCURVE",
"172.763 272.706 CURVE SMOOTH",
"172.763 377.878 OFFCURVE",
"222.045 429.005 OFFCURVE",
"323.418 429.005 CURVE SMOOTH"
);
}
);
width = 647;
}
);
unicode = 00F3;
},
{
glyphname = ocircumflex;
layers = (
{
layerId = "9e608202-4e31-4786-af01-fb7a634e06d8";
paths = (
{
closed = 1;
nodes = (
"152.44 -3.92 OFFCURVE",
"46.8 101.814 OFFCURVE",
"46.8 272.025 CURVE SMOOTH",
"46.8 442.227 OFFCURVE",
"152.44 547.96 OFFCURVE",
"322.724 547.96 CURVE SMOOTH",
"492.905 547.96 OFFCURVE",
"598.648 442.227 OFFCURVE",
"598.648 272.025 CURVE SMOOTH",
"598.648 101.814 OFFCURVE",
"492.905 -3.92 OFFCURVE",
"322.724 -3.92 CURVE SMOOTH"
);
},
{
closed = 1;
nodes = (
"221.524 427.935 OFFCURVE",
"172.37 376.932 OFFCURVE",
"172.37 272.025 CURVE SMOOTH",
"172.37 167.108 OFFCURVE",
"221.524 116.105 OFFCURVE",
"322.724 116.105 CURVE SMOOTH",
"423.82 116.105 OFFCURVE",
"472.975 167.108 OFFCURVE",
"472.975 272.025 CURVE SMOOTH",
"472.975 376.932 OFFCURVE",
"423.82 427.935 OFFCURVE",
"322.724 427.935 CURVE SMOOTH"
);
},
{
closed = 1;
nodes = (
"364.958 608.644 LINE",
"319.02 654.189 LINE",
"273.082 608.644 LINE",
"161.429 608.644 LINE",
"293.098 737.121 LINE",
"344.943 737.121 LINE",
"476.612 608.644 LINE"
);
}
);
width = 645;
}
);
unicode = 00F4;
},
{
glyphname = otilde;
layers = (
{
layerId = "9e608202-4e31-4786-af01-fb7a634e06d8";
paths = (
{
closed = 1;
nodes = (
"152.44 -3.92 OFFCURVE",
"46.8 101.814 OFFCURVE",
"46.8 272.025 CURVE SMOOTH",
"46.8 442.227 OFFCURVE",
"152.44 547.96 OFFCURVE",
"322.724 547.96 CURVE SMOOTH",
"492.905 547.96 OFFCURVE",
"598.648 442.227 OFFCURVE",
"598.648 272.025 CURVE SMOOTH",
"598.648 101.814 OFFCURVE",
"492.905 -3.92 OFFCURVE",
"322.724 -3.92 CURVE SMOOTH"
);
},
{
closed = 1;
nodes = (
"221.524 427.935 OFFCURVE",
"172.37 376.932 OFFCURVE",
"172.37 272.025 CURVE SMOOTH",
"172.37 167.108 OFFCURVE",
"221.524 116.105 OFFCURVE",
"322.724 116.105 CURVE SMOOTH",
"423.82 116.105 OFFCURVE",
"472.975 167.108 OFFCURVE",
"472.975 272.025 CURVE SMOOTH",
"472.975 376.932 OFFCURVE",
"423.82 427.935 OFFCURVE",
"322.724 427.935 CURVE SMOOTH"
);
},
{
closed = 1;
nodes = (
"470.983 727.061 LINE",
"485.526 680.875 OFFCURVE",
"464.196 612.554 OFFCURVE",
"393.565 603.725 CURVE SMOOTH",
"328.865 595.639 OFFCURVE",
"300.078 644.961 OFFCURVE",
"273.096 643.837 CURVE SMOOTH",
"241.412 642.527 OFFCURVE",
"250.488 607.397 OFFCURVE",
"250.488 607.397 CURVE",
"174.834 607.397 LINE",
"160.291 656.42 OFFCURVE",
"181.414 723.637 OFFCURVE",
"252.252 730.63 CURVE SMOOTH",
"316.952 737.014 OFFCURVE",
"345.852 682.886 OFFCURVE",
"372.72 685.547 CURVE SMOOTH",
"405.447 688.775 OFFCURVE",
"395.329 726.845 OFFCURVE",
"395.329 726.845 CURVE"
);
}
);
width = 646;
}
);
unicode = 00F5;
},
{
glyphname = odieresis;
layers = (
{
layerId = "9e608202-4e31-4786-af01-fb7a634e06d8";
paths = (
{
closed = 1;
nodes = (
"152.44 -3.92 OFFCURVE",
"46.8 101.814 OFFCURVE",
"46.8 272.025 CURVE SMOOTH",
"46.8 442.227 OFFCURVE",
"152.44 547.96 OFFCURVE",
"322.724 547.96 CURVE SMOOTH",
"492.905 547.96 OFFCURVE",
"598.648 442.227 OFFCURVE",
"598.648 272.025 CURVE SMOOTH",
"598.648 101.814 OFFCURVE",
"492.905 -3.92 OFFCURVE",
"322.724 -3.92 CURVE SMOOTH"
);
},
{
closed = 1;
nodes = (
"221.524 427.935 OFFCURVE",
"172.37 376.932 OFFCURVE",
"172.37 272.025 CURVE SMOOTH",
"172.37 167.108 OFFCURVE",
"221.524 116.105 OFFCURVE",
"322.724 116.105 CURVE SMOOTH",
"423.821 116.105 OFFCURVE",
"472.975 167.108 OFFCURVE",
"472.975 272.025 CURVE SMOOTH",
"472.975 376.932 OFFCURVE",
"423.821 427.935 OFFCURVE",
"322.724 427.935 CURVE SMOOTH"
);
},
{
closed = 1;
nodes = (
"157.879 718.972 OFFCURVE",
"181.528 742.584 OFFCURVE",
"227.137 742.584 CURVE SMOOTH",
"271.056 742.584 OFFCURVE",
"296.394 718.972 OFFCURVE",
"296.943 672.777 CURVE SMOOTH",
"296.394 627.718 OFFCURVE",
"271.056 602.38 OFFCURVE",
"227.137 602.971 CURVE SMOOTH",
"183.217 602.38 OFFCURVE",
"157.879 627.718 OFFCURVE",
"157.33 672.777 CURVE SMOOTH"
);
},
{
closed = 1;
nodes = (
"349.421 718.071 OFFCURVE",
"373.07 741.683 OFFCURVE",
"418.678 741.683 CURVE SMOOTH",
"462.597 741.683 OFFCURVE",
"487.935 718.071 OFFCURVE",
"488.484 671.876 CURVE SMOOTH",
"487.935 626.817 OFFCURVE",
"462.597 601.479 OFFCURVE",
"418.678 602.07 CURVE SMOOTH",
"374.759 601.479 OFFCURVE",
"349.421 626.817 OFFCURVE",
"348.872 671.876 CURVE SMOOTH"
);
}
);
width = 645;
}
);
unicode = 00F6;
},
{
glyphname = oslash;
layers = (
{
layerId = "9e608202-4e31-4786-af01-fb7a634e06d8";
paths = (
{
closed = 1;
nodes = (
"603.628 615.634 LINE",
"502.558 615.634 LINE",
"447.299 528.614 LINE",
"413.272 541.306 OFFCURVE",
"374.53 547.987 OFFCURVE",
"331.713 547.987 CURVE SMOOTH",
"161.042 547.987 OFFCURVE",
"55.026 441.966 OFFCURVE",
"55.026 271.295 CURVE SMOOTH",
"55.026 182.308 OFFCURVE",
"83.901 110.95 OFFCURVE",
"135.68 62.978 CURVE",
"46.8 -71.855 LINE",
"147.871 -71.855 LINE",
"206.529 17.819 LINE",
"242.814 2.659 OFFCURVE",
"284.801 -5.396 OFFCURVE",
"331.713 -5.396 CURVE SMOOTH",
"502.382 -5.396 OFFCURVE",
"608.404 100.626 OFFCURVE",
"608.404 271.295 CURVE SMOOTH",
"608.404 364.569 OFFCURVE",
"576.678 438.469 OFFCURVE",
"520.098 486.371 CURVE"
);
},
{
closed = 1;
nodes = (
"181.024 376.494 OFFCURVE",
"230.318 427.634 OFFCURVE",
"331.716 427.634 CURVE",
"348.199 427.634 OFFCURVE",
"363.16 426.137 OFFCURVE",
"376.902 423.422 CURVE",
"206.463 168.746 LINE",
"189.533 193.94 OFFCURVE",
"181.024 227.956 OFFCURVE",
"181.024 271.295 CURVE SMOOTH"
);
},
{
closed = 1;
nodes = (
"310.906 114.957 OFFCURVE",
"292.411 117.235 OFFCURVE",
"275.964 121.569 CURVE",
"450.563 382.466 LINE",
"471.793 356.66 OFFCURVE",
"482.411 319.796 OFFCURVE",
"482.411 271.295 CURVE SMOOTH",
"482.411 166.096 OFFCURVE",
"433.115 114.957 OFFCURVE",
"331.716 114.957 CURVE SMOOTH"
);
}
);
width = 655;
}
);
unicode = 00F8;
},
{
glyphname = ugrave;
layers = (
{
layerId = "9e608202-4e31-4786-af01-fb7a634e06d8";
paths = (
{
closed = 1;
nodes = (
"310.237 603.455 LINE",
"111.28 731.946 LINE",
"306.952 731.946 LINE",
"414.88 603.455 LINE"
);
},
{
closed = 1;
nodes = (
"154.568 -3.645 OFFCURVE",
"78 74.017 OFFCURVE",
"78 227.19 CURVE SMOOTH",
"78 543.845 LINE",
"204.163 543.845 LINE",
"204.163 246.395 LINE SMOOTH",
"204.163 162.367 OFFCURVE",
"226.262 119.063 OFFCURVE",
"316.427 119.063 CURVE",
"350.891 119.068 OFFCURVE",
"384.149 128.704 OFFCURVE",
"410.071 146.203 CURVE SMOOTH",
"448.801 172.348 OFFCURVE",
"454.272 211.167 OFFCURVE",
"454.71 242.07 CURVE",
"454.71 543.296 LINE",
"580.872 543.296 LINE",
"580.872 0.336 LINE",
"474.821 0.336 LINE",
"465.627 39.857 LINE",
"431.136 18.13 OFFCURVE",
"378.401 -3.645 OFFCURVE",
"305.581 -3.645 CURVE SMOOTH"
);
}
);
width = 659;
}
);
unicode = 00F9;
},
{
glyphname = uacute;
layers = (
{
layerId = "9e608202-4e31-4786-af01-fb7a634e06d8";
paths = (
{
closed = 1;
nodes = (
"341.204 604.261 LINE",
"540.375 732.896 LINE",
"344.491 732.896 LINE",
"236.446 604.261 LINE"
);
},
{
closed = 1;
nodes = (
"378.401 -3.645 OFFCURVE",
"431.136 18.13 OFFCURVE",
"465.627 39.857 CURVE",
"474.821 0.336 LINE",
"580.872 0.336 LINE",
"580.872 543.296 LINE",
"454.71 543.296 LINE",
"454.71 242.07 LINE",
"454.272 211.167 OFFCURVE",
"448.801 172.348 OFFCURVE",
"410.071 146.203 CURVE SMOOTH",
"384.149 128.704 OFFCURVE",
"350.891 119.068 OFFCURVE",
"316.427 119.063 CURVE",
"226.262 119.063 OFFCURVE",
"204.163 162.367 OFFCURVE",
"204.163 246.395 CURVE SMOOTH",
"204.163 543.845 LINE",
"78 543.845 LINE",
"78 227.19 LINE SMOOTH",
"78 74.017 OFFCURVE",
"154.568 -3.645 OFFCURVE",
"305.581 -3.645 CURVE"
);
}
);
width = 659;
}
);
unicode = 00FA;
},
{
glyphname = ucircumflex;
layers = (
{
layerId = "9e608202-4e31-4786-af01-fb7a634e06d8";
paths = (
{
closed = 1;
nodes = (
"372.983 604.154 LINE",
"327.021 649.732 LINE",
"281.059 604.154 LINE",
"169.343 604.154 LINE",
"301.082 732.707 LINE",
"352.96 732.707 LINE",
"484.699 604.154 LINE"
);
},
{
closed = 1;
nodes = (
"154.568 -3.645 OFFCURVE",
"78 74.017 OFFCURVE",
"78 227.19 CURVE SMOOTH",
"78 543.845 LINE",
"204.163 543.845 LINE",
"204.163 246.395 LINE SMOOTH",
"204.163 162.367 OFFCURVE",
"226.262 119.063 OFFCURVE",
"316.427 119.063 CURVE",
"350.891 119.068 OFFCURVE",
"384.149 128.704 OFFCURVE",
"410.071 146.203 CURVE SMOOTH",
"448.801 172.348 OFFCURVE",
"454.272 211.167 OFFCURVE",
"454.71 242.07 CURVE",
"454.71 543.296 LINE",
"580.872 543.296 LINE",
"580.872 0.336 LINE",
"474.821 0.336 LINE",
"465.627 39.857 LINE",
"431.136 18.13 OFFCURVE",
"378.401 -3.645 OFFCURVE",
"305.581 -3.645 CURVE SMOOTH"
);
}
);
width = 659;
}
);
unicode = 00FB;
},
{
glyphname = udieresis;
layers = (
{
layerId = "9e608202-4e31-4786-af01-fb7a634e06d8";
paths = (
{
closed = 1;
nodes = (
"154.652 -4.115 OFFCURVE",
"78. 73.632 OFFCURVE",
"78. 226.971 CURVE SMOOTH",
"78. 543.974 LINE",
"204.3 543.974 LINE",
"204.3 246.197 LINE SMOOTH",
"204.3 223.706 OFFCURVE",
"204.3 171.033 OFFCURVE",
"230.429 145.668 CURVE SMOOTH",
"247.282 129.302 OFFCURVE",
"281.14 118.726 OFFCURVE",
"316.687 118.726 CURVE",
"351.189 118.731 OFFCURVE",
"384.484 128.378 OFFCURVE",
"410.434 145.896 CURVE SMOOTH",
"449.207 172.069 OFFCURVE",
"454.685 210.932 OFFCURVE",
"455.122 241.867 CURVE",
"455.122 543.424 LINE",
"581.423 543.424 LINE",
"581.423 -0.13 LINE",
"475.255 -0.13 LINE",
"466.051 39.433 LINE",
"431.523 17.684 OFFCURVE",
"378.729 -4.115 OFFCURVE",
"305.83 -4.115 CURVE SMOOTH"
);
},
{
closed = 1;
nodes = (
"163.627 716.924 OFFCURVE",
"187.185 740.445 OFFCURVE",
"232.618 740.445 CURVE SMOOTH",
"276.368 740.445 OFFCURVE",
"301.609 716.924 OFFCURVE",
"302.156 670.908 CURVE SMOOTH",
"301.609 626.022 OFFCURVE",
"276.368 600.781 OFFCURVE",
"232.618 601.37 CURVE SMOOTH",
"188.868 600.781 OFFCURVE",
"163.627 626.022 OFFCURVE",
"163.081 670.908 CURVE SMOOTH"
);
},
{
closed = 1;
nodes = (
"355.398 716.64 OFFCURVE",
"378.956 740.161 OFFCURVE",
"424.389 740.161 CURVE SMOOTH",
"468.139 740.161 OFFCURVE",
"493.38 716.64 OFFCURVE",
"493.927 670.624 CURVE SMOOTH",
"493.38 625.738 OFFCURVE",
"468.139 600.497 OFFCURVE",
"424.389 601.086 CURVE SMOOTH",
"380.639 600.497 OFFCURVE",
"355.398 625.738 OFFCURVE",
"354.852 670.624 CURVE SMOOTH"
);
}
);
width = 659;
}
);
unicode = 00FC;
},
{
glyphname = yacute;
layers = (
{
layerId = "9e608202-4e31-4786-af01-fb7a634e06d8";
paths = (
{
closed = 1;
nodes = (
"354.731 604.3 LINE",
"553.846 732.896 LINE",
"358.019 732.896 LINE",
"250.005 604.3 LINE"
);
},
{
closed = 1;
nodes = (
"220.262 -203.127 LINE",
"612.738 543.988 LINE",
"466.979 543.988 LINE",
"308.887 232.62 LINE",
"150.776 543.988 LINE",
"5. 543.988 LINE",
"239.411 98.663 LINE",
"81.336 -203.127 LINE"
);
}
);
width = 618;
}
);
unicode = 00FD;
},
{
glyphname = thorn;
layers = (
{
layerId = "9e608202-4e31-4786-af01-fb7a634e06d8";
paths = (
{
closed = 1;
nodes = (
"78 -203.456 LINE",
"78 728.147 LINE",
"230.479 728.147 LINE",
"230.479 542.222 LINE",
"276.405 566.481 OFFCURVE",
"331.486 579.048 OFFCURVE",
"393.365 579.048 CURVE SMOOTH",
"584.916 579.048 OFFCURVE",
"703.91 457.732 OFFCURVE",
"703.91 262.438 CURVE SMOOTH",
"703.91 67.144 OFFCURVE",
"584.916 -54.173 OFFCURVE",
"393.365 -54.173 CURVE SMOOTH",
"331.486 -54.173 OFFCURVE",
"276.405 -41.606 OFFCURVE",
"230.479 -17.347 CURVE",
"230.479 -203.456 LINE"
);
},
{
closed = 1;
nodes = (
"276.979 432.638 OFFCURVE",
"223.357 376.962 OFFCURVE",
"223.357 262.438 CURVE SMOOTH",
"223.357 147.913 OFFCURVE",
"276.979 92.236 OFFCURVE",
"387.295 92.236 CURVE SMOOTH",
"497.605 92.236 OFFCURVE",
"551.227 147.913 OFFCURVE",
"551.227 262.438 CURVE SMOOTH",
"551.227 378.548 OFFCURVE",
"499.135 432.638 OFFCURVE",
"387.295 432.638 CURVE SMOOTH"
);
}
);
width = 751;
}
);
unicode = 00FE;
},
{
glyphname = ydieresis;
layers = (
{
layerId = "9e608202-4e31-4786-af01-fb7a634e06d8";
paths = (
{
closed = 1;
nodes = (
"81.328 -203.131 LINE",
"239.383 98.624 LINE",
"5. 543.896 LINE",
"150.759 543.896 LINE",
"308.851 232.565 LINE",
"466.925 543.896 LINE",
"612.666 543.896 LINE",
"220.236 -203.131 LINE"
);
},
{
closed = 1;
nodes = (
"151.26 716.924 OFFCURVE",
"174.818 740.445 OFFCURVE",
"220.25 740.445 CURVE SMOOTH",
"264.001 740.445 OFFCURVE",
"289.241 716.924 OFFCURVE",
"289.788 670.908 CURVE SMOOTH",
"289.241 626.022 OFFCURVE",
"264.001 600.781 OFFCURVE",
"220.25 601.37 CURVE SMOOTH",
"176.5 600.781 OFFCURVE",
"151.26 626.022 OFFCURVE",
"150.713 670.908 CURVE SMOOTH"
);
},
{
closed = 1;
nodes = (
"343.031 716.64 OFFCURVE",
"366.589 740.161 OFFCURVE",
"412.021 740.161 CURVE SMOOTH",
"455.772 740.161 OFFCURVE",
"481.012 716.64 OFFCURVE",
"481.559 670.624 CURVE SMOOTH",
"481.012 625.738 OFFCURVE",
"455.772 600.497 OFFCURVE",
"412.021 601.086 CURVE SMOOTH",
"368.271 600.497 OFFCURVE",
"343.031 625.738 OFFCURVE",
"342.484 670.624 CURVE SMOOTH"
);
}
);
width = 618;
}
);
unicode = 00FF;
},
{
glyphname = circumflex;
layers = (
{
layerId = "9e608202-4e31-4786-af01-fb7a634e06d8";
paths = (
{
closed = 1;
nodes = (
"250.406 608.602 LINE",
"204.452 654.172 LINE",
"158.498 608.602 LINE",
"46.8 608.602 LINE",
"178.516 737.134 LINE",
"230.387 737.134 LINE",
"362.104 608.602 LINE"
);
}
);
width = 409;
}
);
unicode = 02C6;
},
{
glyphname = caron;
layers = (
{
layerId = "9e608202-4e31-4786-af01-fb7a634e06d8";
paths = (
{
closed = 1;
nodes = (
"250.406 737.134 LINE",
"204.452 691.564 LINE",
"158.498 737.134 LINE",
"46.8 737.134 LINE",
"178.516 608.602 LINE",
"230.387 608.602 LINE",
"362.104 737.134 LINE"
);
}
);
width = 409;
}
);
unicode = 02C7;
},
{
glyphname = ogonek;
layers = (
{
components = (
{
name = space;
transform = "{1, 0, 0, 1, -1.686, 0}";
alignment = -1;
}
);
layerId = "9e608202-4e31-4786-af01-fb7a634e06d8";
paths = (
{
closed = 1;
nodes = (
"74.941 -136.886 LINE",
"98.732 -150.962 OFFCURVE",
"115.376 -159.642 OFFCURVE",
"144.009 -159.642 CURVE",
"159.562 -159.642 OFFCURVE",
"185.66 -156.256 OFFCURVE",
"185.66 -133.605 CURVE",
"185.66 -123.648 OFFCURVE",
"178.976 -106.955 OFFCURVE",
"134.183 -106.955 CURVE",
"122.689 -106.955 OFFCURVE",
"111.613 -108.611 OFFCURVE",
"100.111 -109.85 CURVE",
"130.315 4.746 LINE",
"200.442 4.746 LINE",
"186.608 -48.775 LINE",
"245.726 -56.828 OFFCURVE",
"258.938 -96.296 OFFCURVE",
"259.516 -98.13 CURVE",
"268.57 -123.096 OFFCURVE",
"267.93 -147.94 OFFCURVE",
"257.473 -169.379 CURVE SMOOTH",
"246.323 -192.241 OFFCURVE",
"223.803 -211.075 OFFCURVE",
"197.231 -219.761 CURVE",
"182.02 -224.743 OFFCURVE",
"165.624 -227.26 OFFCURVE",
"148.5 -227.26 CURVE",
"110.964 -227.26 OFFCURVE",
"79.278 -216.711 OFFCURVE",
"46.8 -199.803 CURVE"
);
}
);
width = 313;
}
);
unicode = 02DB;
},
{
glyphname = mu;
layers = (
{
layerId = "9e608202-4e31-4786-af01-fb7a634e06d8";
paths = (
{
closed = 1;
nodes = (
"78 -199.657 LINE",
"78 543.912 LINE",
"204.892 543.912 LINE",
"204.892 249.176 LINE SMOOTH",
"204.892 164.658 OFFCURVE",
"227.107 121.107 OFFCURVE",
"317.798 121.107 CURVE",
"352.465 121.112 OFFCURVE",
"385.915 130.805 OFFCURVE",
"411.987 148.404 CURVE SMOOTH",
"450.949 174.703 OFFCURVE",
"456.451 213.74 OFFCURVE",
"456.886 244.817 CURVE",
"456.886 543.364 LINE",
"583.778 543.364 LINE",
"583.778 -2.737 LINE",
"477.113 -2.737 LINE",
"467.87 37.008 LINE",
"433.18 15.155 OFFCURVE",
"380.139 -6.741 OFFCURVE",
"306.894 -6.741 CURVE SMOOTH",
"267.71 -6.741 OFFCURVE",
"233.384 1.357 OFFCURVE",
"204.892 17.086 CURVE",
"204.892 -199.657 LINE"
);
}
);
width = 662;
}
);
unicode = 03BC;
},
{
glyphname = paragraph;
layers = (
{
layerId = "9e608202-4e31-4786-af01-fb7a634e06d8";
paths = (
{
closed = 1;
nodes = (
"438.862 -115.883 LINE",
"438.862 629.474 LINE",
"341.426 629.474 LINE",
"341.426 -115.883 LINE",
"221.668 -115.883 LINE",
"221.668 353.738 LINE",
"113.351 360.068 OFFCURVE",
"46.8 431.756 OFFCURVE",
"46.8 544.023 CURVE SMOOTH",
"46.8 661.676 OFFCURVE",
"119.882 734.759 OFFCURVE",
"237.535 734.759 CURVE SMOOTH",
"558.625 734.759 LINE",
"558.625 -115.883 LINE"
);
}
);
width = 637;
}
);
unicode = 00B6;
},
{
glyphname = section;
layers = (
{
layerId = "9e608202-4e31-4786-af01-fb7a634e06d8";
paths = (
{
closed = 1;
nodes = (
"199.617 131.041 LINE",
"203.203 56.498 OFFCURVE",
"260.49 36.541 OFFCURVE",
"328.141 36.541 CURVE SMOOTH",
"391.844 36.541 OFFCURVE",
"461.757 53.022 OFFCURVE",
"466.23 97.832 CURVE SMOOTH",
"471.265 150.76 OFFCURVE",
"356.054 167.8 OFFCURVE",
"316.43 172.953 CURVE",
"101.511 204.278 OFFCURVE",
"74.941 281.077 OFFCURVE",
"78.253 359.396 CURVE SMOOTH",
"79.839 396.898 OFFCURVE",
"94.142 425.546 OFFCURVE",
"118.164 453.679 CURVE",
"94.823 481.052 OFFCURVE",
"81.066 519.275 OFFCURVE",
"82.897 562.583 CURVE SMOOTH",
"87.512 671.78 OFFCURVE",
"183.118 736.97 OFFCURVE",
"338.626 736.97 CURVE",
"488.631 736.2 OFFCURVE",
"578.065 663.173 OFFCURVE",
"586.034 531.155 CURVE",
"464.855 531.155 LINE",
"463.951 545.432 OFFCURVE",
"459.102 569.839 OFFCURVE",
"448.494 583.465 CURVE",
"433.278 606.6 OFFCURVE",
"390.551 623.152 OFFCURVE",
"336.404 624.104 CURVE",
"276.413 625.16 OFFCURVE",
"232.345 615.747 OFFCURVE",
"211.807 593.927 CURVE",
"204.312 585.962 OFFCURVE",
"198.021 574.145 OFFCURVE",
"198.304 563.542 CURVE",
"193.012 504.986 OFFCURVE",
"303.46 493.561 OFFCURVE",
"348.145 487.698 CURVE",
"563.034 456.378 OFFCURVE",
"589.601 379.579 OFFCURVE",
"586.286 301.256 CURVE SMOOTH",
"584.703 263.841 OFFCURVE",
"570.113 235.257 OFFCURVE",
"546.145 207.249 CURVE",
"569.633 179.84 OFFCURVE",
"583.484 141.525 OFFCURVE",
"581.647 98.073 CURVE SMOOTH",
"577.029 -11.124 OFFCURVE",
"481.457 -76.309 OFFCURVE",
"325.97 -76.309 CURVE",
"175.276 -75.539 OFFCURVE",
"85.735 -1.968 OFFCURVE",
"78.371 131.041 CURVE"
);
},
{
closed = 1;
nodes = (
"192.002 341.474 OFFCURVE",
"197.056 332.156 OFFCURVE",
"207.101 323.956 CURVE",
"228.066 306.842 OFFCURVE",
"267.579 297.509 OFFCURVE",
"334.196 285.834 CURVE",
"334.196 285.834 OFFCURVE",
"417.872 271.27 OFFCURVE",
"445.395 263.167 CURVE",
"460.093 273.503 OFFCURVE",
"469.874 288.389 OFFCURVE",
"470.875 301.019 CURVE",
"472.794 325.24 OFFCURVE",
"460.201 354.217 OFFCURVE",
"332.626 374.488 CURVE",
"295.601 380.033 OFFCURVE",
"255.907 386.738 OFFCURVE",
"219.889 397.263 CURVE",
"205.853 386.748 OFFCURVE",
"194.958 371.291 OFFCURVE",
"193.536 356.988 CURVE"
);
}
);
width = 665;
}
);
unicode = 00A7;
},
{
glyphname = guillemotleft;
layers = (
{
layerId = "9e608202-4e31-4786-af01-fb7a634e06d8";
paths = (
{
closed = 1;
nodes = (
"362.921 473.903 LINE",
"217.689 473.903 LINE",
"78 289.975 LINE",
"217.689 106.05 LINE",
"362.926 106.05 LINE",
"223.236 289.974 LINE"
);
},
{
closed = 1;
nodes = (
"585.903 473.903 LINE",
"440.671 473.903 LINE",
"300.982 289.975 LINE",
"440.671 106.05 LINE",
"585.907 106.05 LINE",
"446.218 289.974 LINE"
);
}
);
width = 664;
}
);
unicode = 00AB;
},
{
glyphname = guillemotright;
layers = (
{
layerId = "9e608202-4e31-4786-af01-fb7a634e06d8";
paths = (
{
closed = 1;
nodes = (
"300.987 473.905 LINE",
"446.219 473.905 LINE",
"585.909 289.975 LINE",
"446.219 106.05 LINE",
"300.982 106.05 LINE",
"440.673 289.975 LINE"
);
},
{
closed = 1;
nodes = (
"78.004 473.905 LINE",
"223.236 473.905 LINE",
"362.926 289.975 LINE",
"223.236 106.05 LINE",
"78. 106.05 LINE",
"217.69 289.975 LINE"
);
}
);
width = 664;
}
);
unicode = 00BB;
},
{
glyphname = guilsinglleft;
layers = (
{
layerId = "9e608202-4e31-4786-af01-fb7a634e06d8";
paths = (
{
closed = 1;
nodes = (
"362.922 473.905 LINE",
"217.69 473.905 LINE",
"78 289.975 LINE",
"217.69 106.05 LINE",
"362.927 106.05 LINE",
"223.236 289.975 LINE"
);
}
);
width = 441;
}
);
unicode = 2039;
},
{
glyphname = guilsinglright;
layers = (
{
layerId = "9e608202-4e31-4786-af01-fb7a634e06d8";
paths = (
{
closed = 1;
nodes = (
"78.005 473.905 LINE",
"223.238 473.905 LINE",
"362.927 289.975 LINE",
"223.238 106.05 LINE",
"78. 106.05 LINE",
"217.691 289.975 LINE"
);
}
);
width = 441;
}
);
unicode = 203A;
},
{
glyphname = dotlessi;
layers = (
{
layerId = "9e608202-4e31-4786-af01-fb7a634e06d8";
paths = (
{
closed = 1;
nodes = (
"97 0.01 LINE",
"97 543.912 LINE",
"236.616 543.912 LINE",
"236.616 0.01 LINE"
);
}
);
width = 334;
}
);
unicode = 0131;
},
{
glyphname = grave;
layers = (
{
layerId = "9e608202-4e31-4786-af01-fb7a634e06d8";
paths = (
{
closed = 1;
nodes = (
"245.683 607.298 LINE",
"46.8 735.737 LINE",
"242.403 735.737 LINE",
"350.286 607.298 LINE"
);
}
);
width = 397;
}
);
unicode = 0060;
},
{
glyphname = acute;
layers = (
{
components = (
{
name = space;
alignment = -1;
}
);
layerId = "9e608202-4e31-4786-af01-fb7a634e06d8";
paths = (
{
closed = 1;
nodes = (
"151.399 607.298 LINE",
"350.282 735.737 LINE",
"154.679 735.737 LINE",
"46.796 607.298 LINE"
);
}
);
width = 397;
}
);
unicode = 00B4;
},
{
glyphname = ring;
layers = (
{
layerId = "9e608202-4e31-4786-af01-fb7a634e06d8";
paths = (
{
closed = 1;
nodes = (
"87.313 599.931 OFFCURVE",
"46.8 640.445 OFFCURVE",
"46.8 705.67 CURVE SMOOTH",
"46.8 770.886 OFFCURVE",
"87.313 811.399 OFFCURVE",
"152.529 811.399 CURVE SMOOTH",
"217.755 811.399 OFFCURVE",
"258.268 770.886 OFFCURVE",
"258.268 705.67 CURVE SMOOTH",
"258.268 640.445 OFFCURVE",
"217.755 599.931 OFFCURVE",
"152.529 599.931 CURVE SMOOTH"
);
},
{
closed = 1;
nodes = (
"119.596 753.278 OFFCURVE",
"104.921 738.604 OFFCURVE",
"104.921 705.67 CURVE SMOOTH",
"104.921 672.737 OFFCURVE",
"119.596 658.052 OFFCURVE",
"152.529 658.052 CURVE SMOOTH",
"185.462 658.052 OFFCURVE",
"200.147 672.737 OFFCURVE",
"200.147 705.67 CURVE SMOOTH",
"200.147 738.604 OFFCURVE",
"185.462 753.278 OFFCURVE",
"152.529 753.278 CURVE SMOOTH"
);
}
);
width = 305;
}
);
unicode = 02DA;
},
{
glyphname = oe;
layers = (
{
layerId = "9e608202-4e31-4786-af01-fb7a634e06d8";
paths = (
{
closed = 1;
nodes = (
"151.551 -4.976 OFFCURVE",
"46.8 99.77 OFFCURVE",
"46.8 268.382 CURVE SMOOTH",
"46.8 437.003 OFFCURVE",
"151.551 541.749 OFFCURVE",
"320.168 541.749 CURVE SMOOTH",
"408.628 541.749 OFFCURVE",
"485.472 507.995 OFFCURVE",
"533.675 453.897 CURVE",
"581.837 512.404 OFFCURVE",
"660.438 548.66 OFFCURVE",
"752.664 548.66 CURVE SMOOTH",
"839.848 548.66 OFFCURVE",
"910.072 520.946 OFFCURVE",
"955.745 468.513 CURVE SMOOTH",
"1002.319 415.047 OFFCURVE",
"1020.428 337.944 OFFCURVE",
"1008.108 245.549 CURVE SMOOTH",
"1005.148 223.328 LINE",
"602.338 223.328 LINE",
"602.338 160.616 OFFCURVE",
"668.118 109.171 OFFCURVE",
"758.748 109.171 CURVE SMOOTH",
"813.871 109.171 OFFCURVE",
"865.902 130.423 OFFCURVE",
"899.361 166.3 CURVE",
"973.639 91.717 LINE",
"924.527 33.761 OFFCURVE",
"846.299 -5.076 OFFCURVE",
"752.664 -5.076 CURVE SMOOTH",
"664.204 -5.076 OFFCURVE",
"584.002 32.051 OFFCURVE",
"539.156 89.778 CURVE",
"490.998 31.281 OFFCURVE",
"412.399 -4.976 OFFCURVE",
"320.168 -4.976 CURVE SMOOTH"
);
},
{
closed = 1;
nodes = (
"213.829 432.125 OFFCURVE",
"162.135 378.558 OFFCURVE",
"162.135 268.382 CURVE SMOOTH",
"162.135 158.206 OFFCURVE",
"213.829 104.65 OFFCURVE",
"320.173 104.65 CURVE SMOOTH",
"426.511 104.65 OFFCURVE",
"478.204 158.206 OFFCURVE",
"478.204 268.382 CURVE SMOOTH",
"478.204 378.558 OFFCURVE",
"426.511 432.125 OFFCURVE",
"320.173 432.125 CURVE SMOOTH"
);
},
{
closed = 1;
nodes = (
"599.144 318.591 LINE",
"899.524 318.591 LINE",
"896.145 346.92 OFFCURVE",
"889.756 371.698 OFFCURVE",
"870.23 393.511 CURVE SMOOTH",
"845.106 421.577 OFFCURVE",
"803.639 436.422 OFFCURVE",
"750.301 436.422 CURVE",
"664.423 434.595 OFFCURVE",
"606.947 395.022 OFFCURVE",
"599.813 325.123 CURVE"
);
}
);
width = 1059;
}
);
unicode = 0153;
},
{
glyphname = dieresis;
layers = (
{
layerId = "9e608202-4e31-4786-af01-fb7a634e06d8";
paths = (
{
closed = 1;
nodes = (
"47.349 718.972 OFFCURVE",
"70.998 742.584 OFFCURVE",
"116.606 742.584 CURVE SMOOTH",
"160.525 742.584 OFFCURVE",
"185.863 718.972 OFFCURVE",
"186.412 672.777 CURVE SMOOTH",
"185.863 627.718 OFFCURVE",
"160.525 602.38 OFFCURVE",
"116.606 602.971 CURVE SMOOTH",
"72.687 602.38 OFFCURVE",
"47.349 627.718 OFFCURVE",
"46.8 672.777 CURVE SMOOTH"
);
},
{
closed = 1;
nodes = (
"238.89 718.071 OFFCURVE",
"262.539 741.683 OFFCURVE",
"308.148 741.683 CURVE SMOOTH",
"352.067 741.683 OFFCURVE",
"377.405 718.071 OFFCURVE",
"377.954 671.876 CURVE SMOOTH",
"377.405 626.817 OFFCURVE",
"352.067 601.479 OFFCURVE",
"308.148 602.07 CURVE SMOOTH",
"264.228 601.479 OFFCURVE",
"238.89 626.817 OFFCURVE",
"238.342 671.876 CURVE SMOOTH"
);
}
);
width = 425;
}
);
unicode = 00A8;
},
{
glyphname = cedilla;
layers = (
{
components = (
{
name = space;
transform = "{1, 0, 0, 1, -1.686, 0}";
alignment = -1;
}
);
layerId = "9e608202-4e31-4786-af01-fb7a634e06d8";
paths = (
{
closed = 1;
nodes = (
"74.943 -136.893 LINE",
"98.739 -150.964 OFFCURVE",
"115.376 -159.644 OFFCURVE",
"144.014 -159.644 CURVE",
"159.564 -159.644 OFFCURVE",
"185.657 -156.261 OFFCURVE",
"185.657 -133.613 CURVE",
"185.657 -123.65 OFFCURVE",
"178.973 -106.962 OFFCURVE",
"134.185 -106.962 CURVE",
"122.69 -106.962 OFFCURVE",
"111.61 -108.617 OFFCURVE",
"100.115 -109.859 CURVE",
"130.315 4.745 LINE",
"200.441 4.745 LINE",
"186.609 -48.775 LINE",
"245.726 -56.835 OFFCURVE",
"258.938 -96.305 OFFCURVE",
"259.518 -98.136 CURVE",
"268.57 -123.102 OFFCURVE",
"267.929 -147.943 OFFCURVE",
"257.469 -169.38 CURVE SMOOTH",
"246.326 -192.245 OFFCURVE",
"223.803 -211.074 OFFCURVE",
"197.234 -219.765 CURVE",
"182.025 -224.752 OFFCURVE",
"165.627 -227.266 OFFCURVE",
"148.504 -227.266 CURVE",
"110.968 -227.266 OFFCURVE",
"79.278 -216.713 OFFCURVE",
"46.802 -199.808 CURVE"
);
}
);
width = 313;
}
);
unicode = 00B8;
},
{
glyphname = OE;
layers = (
{
layerId = "9e608202-4e31-4786-af01-fb7a634e06d8";
paths = (
{
closed = 1;
nodes = (
"389.679 0.01 LINE SMOOTH",
"174.98 0.01 OFFCURVE",
"46.8 130.855 OFFCURVE",
"46.8 350 CURVE SMOOTH",
"46.8 569.146 OFFCURVE",
"174.98 699.99 OFFCURVE",
"389.679 699.99 CURVE SMOOTH",
"1018.146 699.99 LINE",
"1018.146 564.336 LINE",
"650.56 564.336 LINE",
"650.56 417.827 LINE",
"1005.16 417.827 LINE",
"1005.16 282.174 LINE",
"650.56 282.174 LINE",
"650.56 135.665 LINE",
"1031.133 135.665 LINE",
"1031.133 0.011 LINE"
);
},
{
closed = 1;
nodes = (
"388.788 564.335 LINE SMOOTH",
"256.057 564.335 OFFCURVE",
"188.757 492.226 OFFCURVE",
"188.757 350 CURVE SMOOTH",
"188.757 207.645 OFFCURVE",
"256.814 135.476 OFFCURVE",
"391.028 135.476 CURVE SMOOTH",
"504.839 135.476 LINE",
"504.839 564.336 LINE"
);
}
);
width = 1063;
}
);
unicode = 0152;
},
{
glyphname = asciitilde;
layers = (
{
layerId = "9e608202-4e31-4786-af01-fb7a634e06d8";
paths = (
{
closed = 1;
nodes = (
"417.24 428.635 LINE",
"417.24 428.635 OFFCURVE",
"432.507 371.193 OFFCURVE",
"383.126 366.322 CURVE SMOOTH",
"342.586 362.306 OFFCURVE",
"298.979 443.979 OFFCURVE",
"201.354 434.346 CURVE SMOOTH",
"94.47 423.795 OFFCURVE",
"62.597 322.373 OFFCURVE",
"84.541 248.403 CURVE",
"198.693 248.403 LINE",
"198.693 248.403 OFFCURVE",
"184.998 301.41 OFFCURVE",
"232.806 303.386 CURVE SMOOTH",
"273.518 305.083 OFFCURVE",
"316.954 230.662 OFFCURVE",
"414.579 242.863 CURVE SMOOTH",
"521.152 256.185 OFFCURVE",
"553.335 359.272 OFFCURVE",
"531.392 428.961 CURVE"
);
}
);
width = 616;
}
);
unicode = 007E;
},
{
glyphname = uni02BB;
layers = (
{
layerId = "9e608202-4e31-4786-af01-fb7a634e06d8";
paths = (
{
closed = 1;
nodes = (
"227.034 844.845 LINE",
"201.55 683.233 LINE",
"221.493 671.837 OFFCURVE",
"234.158 643.819 OFFCURVE",
"234.158 619.974 CURVE SMOOTH",
"234.158 573.277 OFFCURVE",
"202.779 541.89 OFFCURVE",
"156.077 541.89 CURVE SMOOTH",
"109.374 541.89 OFFCURVE",
"78. 573.277 OFFCURVE",
"78. 619.974 CURVE",
"78. 627.836 OFFCURVE",
"79.033 635.533 OFFCURVE",
"81.141 643.509 CURVE",
"136.498 844.845 LINE"
);
}
);
width = 281;
}
);
unicode = 02BB;
},
{
glyphname = uni02BC;
layers = (
{
layerId = "9e608202-4e31-4786-af01-fb7a634e06d8";
paths = (
{
closed = 1;
nodes = (
"46.8 431.62 LINE",
"49.666 699.991 LINE",
"174.441 699.991 LINE",
"162.979 431.62 LINE"
);
}
);
width = 221;
}
);
unicode = 02BC;
},
{
glyphname = minute;
layers = (
{
layerId = "9e608202-4e31-4786-af01-fb7a634e06d8";
paths = (
{
closed = 1;
nodes = (
"53.575 451.177 LINE",
"46.8 699.991 LINE",
"151.54 699.991 LINE",
"144.765 451.177 LINE"
);
}
);
width = 198;
}
);
unicode = 2032;
},
{
glyphname = second;
layers = (
{
layerId = "9e608202-4e31-4786-af01-fb7a634e06d8";
paths = (
{
closed = 1;
nodes = (
"53.587 450.865 LINE",
"46.8 700.079 LINE",
"151.709 700.079 LINE",
"144.923 450.865 LINE"
);
},
{
closed = 1;
nodes = (
"216.532 450.865 LINE",
"209.745 700.079 LINE",
"314.654 700.079 LINE",
"307.867 450.865 LINE"
);
}
);
width = 361;
}
);
unicode = 2033;
},
{
glyphname = arrowup;
layers = (
{
layerId = "9e608202-4e31-4786-af01-fb7a634e06d8";
paths = (
{
closed = 1;
nodes = (
"260.669 513.522 LINE",
"78 374.78 LINE",
"78 233.988 LINE",
"195.747 323.414 LINE",
"195.747 76.011 LINE",
"325.603 76.011 LINE",
"325.603 323.414 LINE",
"443.349 233.988 LINE",
"443.349 374.787 LINE"
);
}
);
width = 521;
}
);
unicode = 2191;
},
{
glyphname = arrowdown;
layers = (
{
layerId = "9e608202-4e31-4786-af01-fb7a634e06d8";
paths = (
{
closed = 1;
nodes = (
"260.669 76.011 LINE",
"78 214.754 LINE",
"78 355.547 LINE",
"195.747 266.12 LINE",
"195.747 513.523 LINE",
"325.603 513.523 LINE",
"325.603 266.12 LINE",
"443.349 355.547 LINE",
"443.349 214.748 LINE"
);
}
);
width = 521;
}
);
unicode = 2193;
},
{
glyphname = uni2215;
layers = (
{
layerId = "9e608202-4e31-4786-af01-fb7a634e06d8";
paths = (
{
closed = 1;
nodes = (
"357.602 824.35 LINE",
"32 -104.758 LINE",
"145.893 -104.758 LINE",
"471.496 824.35 LINE"
);
}
);
width = 503;
}
);
unicode = 2215;
},
{
glyphname = uniFFFD;
layers = (
{
layerId = "9e608202-4e31-4786-af01-fb7a634e06d8";
paths = (
{
closed = 1;
nodes = (
"78 600.766 LINE",
"78 0.01 LINE",
"606.815 0.01 LINE",
"606.815 600.766 LINE"
);
},
{
closed = 1;
nodes = (
"477.72 526.351 LINE",
"342.407 358.432 LINE",
"207.095 526.351 LINE"
);
},
{
closed = 1;
nodes = (
"159.506 469.338 LINE",
"295.631 300.386 LINE",
"159.506 131.444 LINE"
);
},
{
closed = 1;
nodes = (
"207.095 74.42 LINE",
"342.407 242.349 LINE",
"477.72 74.42 LINE"
);
},
{
closed = 1;
nodes = (
"525.31 131.444 LINE",
"389.184 300.386 LINE",
"525.31 469.338 LINE"
);
}
);
width = 685;
}
);
unicode = FFFD;
},
